<svg id="Layer_1" data-name="Layer 1" xmlns="http://www.w3.org/2000/svg" viewBox="0 0 320 384"><defs><style>.cls-1{fill:#f5f5f5;}.cls-2{fill:#e0e0e0;}.cls-3{fill:#959595;}.cls-4{fill:#263238;}.cls-5{fill:#455a64;}.cls-6{fill:#fafafa;}.cls-7{fill:#ebebeb;}.cls-8{fill:#eb996e;}.cls-9{fill:#ffbe9d;}.cls-10,.cls-11{opacity:0.2;}.cls-10,.cls-12{isolation:isolate;}.cls-12{opacity:0.3;}.cls-13{opacity:0.7;}</style></defs><g id="freepik--background-complete--inject-10"><path class="cls-1" d="M33.28,318.68V358a12.88,12.88,0,0,0,12.88,12.88H187.08A12.88,12.88,0,0,0,200,358V305.81H46.18a12.87,12.87,0,0,0-12.9,12.85Z"/><polygon class="cls-2" points="179.81 328.6 51.91 328.01 51.92 324.07 179.82 324.67 179.81 328.6"/><polygon class="cls-2" points="179.81 341.52 51.91 340.94 51.92 337 179.82 337.6 179.81 341.52"/><rect class="cls-2" x="152.53" y="326.73" width="3.93" height="50.6" transform="translate(-198.28 504.8) rotate(-89.72)"/><path class="cls-1" d="M47.5,65.12a7.43,7.43,0,0,1-7.43-7.43V17A7.43,7.43,0,0,1,47.5,9.61H118A7.43,7.43,0,0,1,125.46,17h0V65.12Z"/><path class="cls-2" d="M285,181.54v26.07a8.54,8.54,0,0,1-8.54,8.54H183a8.55,8.55,0,0,1-8.55-8.54V173h102a8.54,8.54,0,0,1,8.57,8.52Z"/><polygon class="cls-1" points="188.2 188.8 273.03 188.4 273.01 185.79 188.19 186.19 188.2 188.8"/><polygon class="cls-1" points="188.2 197.37 273.03 196.98 273.01 194.38 188.19 194.76 188.2 197.37"/></g><g id="freepik--Plants--inject-10"><path class="cls-3" d="M217.84,301.44c-14-13.61-14.2-34.66-10.57-52.93.61-3,.82-6.35,2.7-8.81s5.61-3.73,8.15-2c2.1,1.44,2.66,4.25,3.58,6.65a18.16,18.16,0,0,0,6.07,8.06c1.79,1.33,4.13,2.35,6.21,1.61,2.89-1,3.8-4.64,4.28-7.69q1.34-8.55,2.69-17.09a28.89,28.89,0,0,1,2.4-8.92c1.42-2.74,4-5.09,7-5.43s6.35,1.92,6.47,5a28.85,28.85,0,0,1-.53,3.81c-.13,1.28.24,2.78,1.38,3.3s2.53-.11,3.58-.83c3.66-2.56,6.45-6.18,9.08-9.8s5.25-7.35,8.66-10.25,7.8-4.91,12.22-4.44,8.63,3.93,9,8.42-2.82,8.44-6.12,11.48a69.25,69.25,0,0,1-16.4,11.2,5.66,5.66,0,0,0-2.79,2.16c-1,1.94.6,4.27,2.47,5.27,2.16,1.13,4.66,1.29,7,2s4.74,2.14,5.28,4.54c.74,3.3-2.41,6.16-5.33,7.89a59.14,59.14,0,0,1-18.91,7.14c-2.38.46-4.86.79-6.93,2.07s-3.61,3.85-2.86,6.18,3.43,3.48,5.85,3.43,4.74-1,7.12-1.47c4.46-.89,9.83.28,11.92,4.35a9.77,9.77,0,0,1-.37,8.71,22.6,22.6,0,0,1-5.86,6.79,59.58,59.58,0,0,1-28,13.51c-10.28,1.78-19.44,1.22-28.54-3.9"/><path class="cls-4" d="M215.36,315a135.58,135.58,0,0,1,9.08-24.35A277.19,277.19,0,0,1,240.12,263l4.49-7c1.47-2.31,2.93-4.61,4.51-6.75a138.43,138.43,0,0,1,9.76-11.86c3.3-3.62,6.52-6.93,9.58-10s6-5.87,8.73-8.32a110.17,110.17,0,0,1,13.86-10.56c1.73-1.11,3.1-1.94,4-2.47l1.07-.62a2.05,2.05,0,0,1,.39-.2,3,3,0,0,1-.34.25l-1,.66c-.92.57-2.26,1.42-4,2.56a114.37,114.37,0,0,0-13.72,10.68c-2.74,2.48-5.62,5.27-8.67,8.35s-6.26,6.41-9.52,10a142.16,142.16,0,0,0-9.67,11.81c-1.56,2.14-3,4.42-4.49,6.73s-3,4.66-4.48,7A287.59,287.59,0,0,0,225,290.89a138.14,138.14,0,0,0-9.2,24.22"/><path class="cls-4" d="M249.31,249.23a6.86,6.86,0,0,1-.08-1.36v-3.68c.06-3.11.3-7.42.57-12.13s.47-9,.48-12.13v-3.67a6.11,6.11,0,0,1,.05-1.35,6.73,6.73,0,0,1,.17,1.34c.09.83.14,2.12.19,3.68.08,3.11,0,7.43-.32,12.16s-.54,8.89-.75,12.12c-.07,1.45-.14,2.68-.2,3.67A5.6,5.6,0,0,1,249.31,249.23Z"/><path class="cls-4" d="M289.76,248.32a7.7,7.7,0,0,1-1.59-.07c-1-.07-2.47-.2-4.33-.28-3.66-.2-8.72-.3-14.32-.16s-10.64.48-14.3.82c-1.82.17-3.3.34-4.31.46a8.62,8.62,0,0,1-1.6.12,9.16,9.16,0,0,1,1.57-.35c1-.18,2.47-.41,4.3-.63,3.66-.46,8.72-.87,14.34-1a140,140,0,0,1,14.34.34c1.84.14,3.3.31,4.34.46A8.29,8.29,0,0,1,289.76,248.32Z"/><path class="cls-4" d="M225.07,290a4.59,4.59,0,0,1-.19-.52l-.44-1.53c-.37-1.33-.87-3.3-1.44-5.67-1.16-4.81-2.55-11.49-4-18.9s-2.77-14.1-3.82-18.92c-.52-2.35-.95-4.28-1.26-5.71-.14-.62-.25-1.14-.34-1.56a2.63,2.63,0,0,1-.09-.55,1.65,1.65,0,0,1,.2.52c.12.42.26.92.44,1.53.37,1.33.87,3.3,1.44,5.68,1.16,4.8,2.55,11.49,4,18.9s2.77,14.09,3.82,18.92c.52,2.34,1,4.27,1.26,5.71.14.62.25,1.13.34,1.55A2.09,2.09,0,0,1,225.07,290Z"/><path class="cls-4" d="M280,281.78a2.66,2.66,0,0,1-.56.12l-1.6.26-5.88.9c-4.95.75-11.81,1.89-19.37,3.13s-14.44,2.32-19.42,3c-2.47.33-4.51.58-5.91.72l-1.65.16a1.75,1.75,0,0,1-.56,0,2.74,2.74,0,0,1,.55-.13l1.6-.26,5.88-.89c5-.76,11.82-1.88,19.38-3.14s14.43-2.32,19.42-3c2.47-.33,4.5-.58,5.9-.72l1.65-.14A1.56,1.56,0,0,1,280,281.78Z"/><path class="cls-5" d="M89.84,51.35a9.17,9.17,0,0,1-3.16-8.67,12.21,12.21,0,0,1,5.24-7.82,5.25,5.25,0,0,1,4.2-1.1,4,4,0,0,1,2.54,3.07A8,8,0,0,1,98.18,41c-1.57,4.52-3.91,8.61-8.34,10.41"/><path class="cls-5" d="M85.65,59.07a21.45,21.45,0,0,0-19-5c-1.65.39-3.58,1.28-3.86,3s1.25,3.17,2.75,4A18.37,18.37,0,0,0,85.87,59.5"/><path class="cls-5" d="M61.47,23.31a10.75,10.75,0,0,1,8.25,1.44A18.83,18.83,0,0,1,75.66,31c3,4.72,4,11.07,4.18,16.66-6.21-.25-11.51-5.12-14-7.77-4-4.18-8.71-14.15-4.39-16.5"/><path class="cls-4" d="M95,67.51a24.3,24.3,0,0,1-1.55-2.34,39.57,39.57,0,0,1-3.49-10,19.65,19.65,0,0,1,.78-10.5,13.11,13.11,0,0,1,1.49-2.85A3.91,3.91,0,0,1,93,41a27.13,27.13,0,0,0-1.85,3.89A20.84,20.84,0,0,0,90.6,55.1,45.88,45.88,0,0,0,93.9,65"/><path class="cls-4" d="M98.69,72.16l-3.63-4.68c-3-4-7.28-9.42-12-15.39S73.9,40.78,70.73,36.92L67,32.29a13.79,13.79,0,0,1-1.31-1.73,13.1,13.1,0,0,1,1.52,1.55c.92,1,2.29,2.55,3.93,4.44,3.27,3.79,7.7,9.09,12.46,15.06S92.54,63.1,95.5,67.14C97,69.16,98.16,70.85,99,72"/><path class="cls-4" d="M70.54,57.78a3.39,3.39,0,0,1,1.08-.33,8,8,0,0,1,1.29-.25A14.69,14.69,0,0,1,74.65,57a22.51,22.51,0,0,1,4.57.17,24.22,24.22,0,0,1,10.35,4,22.27,22.27,0,0,1,3.48,2.95c.41.42.8.86,1.16,1.31A10.35,10.35,0,0,1,95,66.53c.41.6.35.88.32.91a38.23,38.23,0,0,0-2.58-3,24.6,24.6,0,0,0-3.48-2.79,27,27,0,0,0-4.84-2.48,28.33,28.33,0,0,0-5.27-1.43,24.7,24.7,0,0,0-4.46-.29C72.11,57.51,70.54,57.89,70.54,57.78Z"/></g><g id="freepik--Device--inject-10"><path class="cls-4" d="M205.1,323.87l-95.31-.45a20.75,20.75,0,0,1-20.62-20.84l1-238.93A20.77,20.77,0,0,1,111,43l95.3.44a20.77,20.77,0,0,1,20.63,20.85l-1,238.92A20.77,20.77,0,0,1,205.1,323.87Z"/><path class="cls-6" d="M206.13,51.67l-18.48-.09a4.58,4.58,0,0,0-4.5,4.67h0V59.6a4.6,4.6,0,0,1-4.51,4.67h0l-36-.17a4.59,4.59,0,0,1-4.47-4.71V56a4.6,4.6,0,0,0-4.47-4.71H127.2L111,51.26A14.56,14.56,0,0,0,96.41,65.74l-1,233.2a14.55,14.55,0,0,0,14.47,14.61L205,314a14.54,14.54,0,0,0,14.61-14.47h0l1-233.21a14.53,14.53,0,0,0-14.42-14.63Z"/><path class="cls-5" d="M152.34,291.62a2,2,0,1,1-2.27-1.67l.31,0A1.86,1.86,0,0,1,152.34,291.62Z"/><path class="cls-5" d="M158.42,291.66a2,2,0,1,1-2.26-1.68,1.51,1.51,0,0,1,.3,0A1.84,1.84,0,0,1,158.42,291.66Z"/><path class="cls-5" d="M164.5,291.68a2,2,0,1,1-2.26-1.67l.3,0A1.84,1.84,0,0,1,164.5,291.68Z"/><path class="cls-7" d="M124.88,164.09c1.55.23,95,18.56,95,18.56V164.09Z"/><path class="cls-7" d="M95.46,281.92S197.17,267.53,196.27,268s-100.81,0-100.81,0Z"/><path class="cls-4" d="M213.56,9.64c.12,0,.22,5.14.22,11.48s-.1,11.48-.22,11.48-.21-5.14-.21-11.48S213.45,9.64,213.56,9.64Z"/><path class="cls-4" d="M254.26,36.07c.05.1-4.62,2.27-10.42,4.82s-10.54,4.56-10.59,4.44,4.62-2.27,10.42-4.82S254.21,36,254.26,36.07Z"/><path class="cls-4" d="M248.45,3.3a1.56,1.56,0,0,1-.17.37c-.16.25-.35.59-.59,1-.5.87-1.25,2.1-2.2,3.62-1.89,3-4.61,7.16-7.7,11.66S232,28.54,230,31.54c-.95,1.46-1.73,2.7-2.29,3.55l-.64,1a1.91,1.91,0,0,1-.24.32A2.42,2.42,0,0,1,227,36l.58-1c.5-.86,1.26-2.09,2.2-3.61,1.89-3,4.62-7.16,7.7-11.66s5.84-8.57,7.78-11.59l2.3-3.56.63-1A2,2,0,0,1,248.45,3.3Z"/></g><g id="freepik--speech-bubbles--inject-10"><path class="cls-3" d="M292.47,91.12h-186a7.27,7.27,0,0,0-7.27,7.27h0v57.7a7.26,7.26,0,0,0,7.26,7.28h13.87c1.11,6,2.41,13.62,2.41,13.62l12.55-13.62h157.2a7.27,7.27,0,0,0,7.27-7.27h0V98.4a7.28,7.28,0,0,0-7.26-7.28Z"/><path class="cls-1" d="M215.72,122.4c0,.12-22.14.22-49.45.22s-49.44-.1-49.44-.22,22.13-.22,49.44-.22S215.72,122.31,215.72,122.4Z"/><path class="cls-1" d="M215.72,113.56c0,.11-22.14.21-49.45.21s-49.44-.1-49.44-.21,22.13-.22,49.44-.22S215.72,113.44,215.72,113.56Z"/><path class="cls-1" d="M215.72,131.2c0,.12-22.14.21-49.45.21s-49.44-.09-49.44-.21S139,131,166.27,131,215.72,131.08,215.72,131.2Z"/><path class="cls-1" d="M181.6,140.28c0,.12-14.5.22-32.39.22s-32.38-.1-32.38-.22,14.49-.21,32.38-.21S181.6,140.16,181.6,140.28Z"/><path class="cls-5" d="M208.41,194.87H20.87a5.08,5.08,0,0,0-5.09,5.07V261a5.09,5.09,0,0,0,5.09,5.09H157.08l12.38,13.48s1.29-7.58,2.39-13.48h36.54a5.09,5.09,0,0,0,5.09-5.09h0V200a5.08,5.08,0,0,0-5.07-5.1Z"/><path class="cls-1" d="M201.06,226.37c0,.11-22.14.21-49.45.21s-49.45-.1-49.45-.21,22.14-.22,49.45-.22S201.06,226.22,201.06,226.37Z"/><path class="cls-1" d="M201.06,217.47c0,.12-22.14.22-49.45.22s-49.45-.1-49.45-.22,22.14-.21,49.45-.21S201.06,217.35,201.06,217.47Z"/><path class="cls-1" d="M201.06,235.12c0,.11-22.14.21-49.45.21s-49.45-.1-49.45-.21,22.14-.22,49.45-.22S201.06,235,201.06,235.12Z"/><path class="cls-1" d="M166.94,244.2c0,.12-14.49.21-32.38.21s-32.4-.09-32.4-.21,14.51-.21,32.4-.21S166.94,244.08,166.94,244.2Z"/></g><g id="freepik--character-2--inject-10"><path class="cls-4" d="M245.7,66.65c.12-1.52-1.24-3.6-2.48-4.81a5,5,0,0,1-1.37-5.26c.5-1.87,1.69-1.73,2.16-2.83a8.33,8.33,0,0,0,.27-2.63,5.48,5.48,0,0,1,6.15-4.72l.39.07a7.58,7.58,0,0,1,14-1.46,5.83,5.83,0,0,1,7.85,2.56,5.92,5.92,0,0,1,.61,2.17,4.26,4.26,0,0,1,5.53.83,5.23,5.23,0,0,1,.39,5.78,6.84,6.84,0,0,1-5,3.3,10,10,0,0,1-5.94-1.08,19.19,19.19,0,0,1-4.89-3.69"/><ellipse class="cls-2" cx="259.19" cy="126.59" rx="35.72" ry="34.89"/><path class="cls-8" d="M295.06,126.61l-3.95-10.13-14.17,8.9,12.62,19.47S294.7,138.18,295.06,126.61Z"/><path class="cls-9" d="M256,104.66h0a9.51,9.51,0,0,0,9.55-9c.21-4.2.39-8.25.39-8.25s7.79-.56,8.5-8.19.83-25.24.83-25.24h0a27.05,27.05,0,0,0-27.15,1.18l-.74.47-.9,39.44a9.5,9.5,0,0,0,9.44,9.57Z"/><path class="cls-4" d="M260.41,65.74a1.1,1.1,0,1,1-1.42.7A1.12,1.12,0,0,1,260.41,65.74Z"/><path class="cls-4" d="M262.57,66.13c-.13.13-.82-.5-1.91-.57s-1.87.43-2,.29.08-.3.43-.53a2.54,2.54,0,0,1,1.59-.39,2.48,2.48,0,0,1,1.51.62C262.51,65.83,262.62,66.07,262.57,66.13Z"/><path class="cls-4" d="M272.05,65.74a1.1,1.1,0,1,1-1.42.7A1.11,1.11,0,0,1,272.05,65.74Z"/><path class="cls-4" d="M274.32,66.15c-.12.13-.82-.5-1.91-.56s-1.87.43-2,.29.08-.3.43-.53a2.63,2.63,0,0,1,1.59-.4,2.67,2.67,0,0,1,1.52.62C274.29,65.85,274.39,66.1,274.32,66.15Z"/><path class="cls-4" d="M266.32,74.39a5.11,5.11,0,0,1,1.74-.22c.28,0,.5,0,.54-.2a1.49,1.49,0,0,0-.13-.83c-.22-.71-.44-1.44-.67-2.2a29.88,29.88,0,0,1-1.36-5.77c.16-.07,1,2.47,1.94,5.59.22.76.42,1.49.62,2.21a1.78,1.78,0,0,1,.06,1.16.73.73,0,0,1-.52.4,1.93,1.93,0,0,1-.48,0A5.11,5.11,0,0,1,266.32,74.39Z"/><path class="cls-8" d="M265.87,87.33a18.1,18.1,0,0,1-9.8-3.64s1.92,5.68,9.66,5.62Z"/><path class="cls-9" d="M247.12,66.86A1.15,1.15,0,0,0,246,65.68c-1.44-.07-3.8.45-4.13,4.38-.42,5.61,5,4.31,5.08,4.12S247.09,69,247.12,66.86Z"/><path class="cls-8" d="M245.81,72a1.5,1.5,0,0,1-.28.13,1,1,0,0,1-.74,0,2.42,2.42,0,0,1-1-2.27,3.13,3.13,0,0,1,.38-1.37,1.14,1.14,0,0,1,.82-.7.5.5,0,0,1,.56.32c.07.15,0,.27,0,.28s.13-.09.1-.32a.59.59,0,0,0-.2-.37.76.76,0,0,0-.52-.19,1.38,1.38,0,0,0-1.1.83,3.18,3.18,0,0,0-.46,1.53,2.55,2.55,0,0,0,1.25,2.54,1.14,1.14,0,0,0,.92-.09C245.78,72.12,245.82,72,245.81,72Z"/><path class="cls-4" d="M257.52,63.14c.28.36,1.26.19,2.53.14s2.25-.05,2.47-.45-.95-1.34-2.59-1.2S257.21,62.76,257.52,63.14Z"/><path class="cls-4" d="M269.88,62.76c.15.49,1.09.64,2.12.63s1.95-.19,2.09-.68-.82-1.17-2.12-1.15S269.73,62.29,269.88,62.76Z"/><path class="cls-4" d="M276.29,56.39s-4.63,2.25-10.65-.75c-3.95-2-8.54-2.94-9.56-2.15s-1.23,4.87-5.14,6.06c0,0,.26,7.75-2.83,7.48S247,54.74,247,54.74l7.57-3.69,8.25-1.56,7.78,1.1,6,1.65Z"/><path class="cls-5" d="M224.46,101.35c8.1-8.33,22.34-7.43,22.34-7.43l11.81,8.46,6.69-7.8a43.55,43.55,0,0,1,13.63,4.22l.45.14V99c5.18,2.81,12.51,9.56,19.5,16.11l-8.36,7.75-9.26,8.25a.25.25,0,0,1,0,.17c-.09.5,1.29,11.8,2.71,20.38a34.85,34.85,0,0,1-31.09,9.4c-3.79-.67-5.62-1.59-9.13-2.48a12.71,12.71,0,0,1-9.4-11.18h0c-.62-7.19-1.1-16.11-1.1-16.11"/><path class="cls-4" d="M272.7,96a8.9,8.9,0,0,1,.51,1.33c.31.83.71,2.12,1.2,3.68,1,3.12,2.22,7.43,3.39,12.32s2.05,9.29,2.6,12.51c.29,1.65.49,2.92.62,3.83a9.36,9.36,0,0,1,.15,1.41,9.34,9.34,0,0,1-.32-1.39c-.19-1-.44-2.24-.74-3.79-.64-3.21-1.56-7.62-2.73-12.47s-2.36-9.22-3.25-12.33l-1.08-3.72A9.3,9.3,0,0,1,272.7,96Z"/><path class="cls-4" d="M280.3,125.79c-.08-.09,3.45-3.1,7.89-6.7s8.07-6.46,8.15-6.37-3.45,3.09-7.88,6.7S280.38,125.88,280.3,125.79Z"/><path class="cls-10" d="M235.15,112.77l-7.23,23.82,2.7,1.4,2.65-6.73S236,117.1,235.15,112.77Z"/><g class="cls-11"><path d="M271.91,96.06c3.91,2-5.88,7-10.29,6.87l3.21-8.46S270.6,95.37,271.91,96.06Z"/></g><path class="cls-5" d="M245.63,94.47V88.15S258,91.33,258.4,98.7c0,0,1.57-8.15,7.92-8.54l.9,11.46-7.43,6.44h-7.45l-5.93-5.13-.78-8"/><path class="cls-4" d="M261.18,134.06a7.61,7.61,0,0,1,0-1.35c0-.87,0-2.14,0-3.7,0-3.11-.09-7.42-.48-12.15s-1-9-1.53-12.07c-.27-1.48-.49-2.7-.65-3.63a6.77,6.77,0,0,1-.2-1.35,10.18,10.18,0,0,1,.36,1.31c.22.83.49,2.08.78,3.62a114.13,114.13,0,0,1,2,24.28c0,1.56-.1,2.82-.17,3.7A10,10,0,0,1,261.18,134.06Z"/><path class="cls-4" d="M257.84,96.58a1.55,1.55,0,0,0-.74.06,2.63,2.63,0,0,0-1.23,1.58,35.46,35.46,0,0,0-2.37,6.86l-.07.28-.25-.15c-.73-.45-1.49-.93-2.25-1.44a48.69,48.69,0,0,1-4-3A5.08,5.08,0,0,1,245.58,99a5.64,5.64,0,0,1-.42-1.9,11.16,11.16,0,0,1,.28-2.76,4.33,4.33,0,0,1,.27-1,6.93,6.93,0,0,1-.11,1,12.9,12.9,0,0,0-.13,2.71,5.23,5.23,0,0,0,.44,1.78,4.72,4.72,0,0,0,1.29,1.65c1.17,1,2.52,2,4,3,.76.51,1.5,1,2.24,1.44l-.32.13a30.93,30.93,0,0,1,2.48-6.84,4.75,4.75,0,0,1,.64-1.06,1.73,1.73,0,0,1,.79-.54C257.62,96.36,257.85,96.57,257.84,96.58Z"/><path class="cls-4" d="M266.32,90.16a5.36,5.36,0,0,1,.12,1l.19,2.69c.09,1.13.23,2.48.47,4a6.86,6.86,0,0,1,.14,2.43,4.16,4.16,0,0,1-1.65,2.07,18.63,18.63,0,0,0-2.7,2l-.33.38v-.5a14.64,14.64,0,0,0-1.83-6.14c-.78-1.41-1.42-2.13-1.37-2.17s.19.15.48.49A11.6,11.6,0,0,1,261,97.94a14.29,14.29,0,0,1,2,6.25l-.36-.13a17.35,17.35,0,0,1,2.76-2.13,3.78,3.78,0,0,0,1.47-1.83,6.61,6.61,0,0,0-.13-2.26c-.21-1.49-.32-2.85-.37-4s-.07-2.07-.06-2.7A3.66,3.66,0,0,1,266.32,90.16Z"/><path class="cls-4" d="M306,91.74c-.5.59-18.65,24.89-18.65,24.89l2.56,1.45L308.5,94.15Z"/><path class="cls-9" d="M233.1,110.92s19.09,27.48,20.24,28c2.26,1.07,28.37-21.49,30.86-23.65l2.48-3.35s2.06-9.43,4.25-8.71-1.2,4.79.23,8.38,8-5,8.26-5.73l1.69-2.21s1.77,5,1.65,7.13c-.39,6.72-6.75,14.72-6.75,14.72S267.43,160.9,247.86,162c-5.63.32-15.68-15.68-22.35-27.67a16.43,16.43,0,0,1,4.68-21.26Z"/><path class="cls-8" d="M299.51,112c.37-.84.78-1.67,1.23-2.47A26,26,0,0,1,302,107a15.43,15.43,0,0,1-2.47,5Z"/><path class="cls-5" d="M229.87,97.51s-20.48,7.29-5.25,41.73L248.27,125l-3.37-8Z"/><path class="cls-4" d="M228.31,98.11a7.33,7.33,0,0,1,2.47.21,9.6,9.6,0,0,1,2.68,1.13,14.52,14.52,0,0,1,3,2.47,35.93,35.93,0,0,1,5.56,8.31c1.73,3.35,3.35,7.17,5,11.18l1.45,3.5.08.18-.18.09c-6.84,3.73-12.79,7.22-17,9.84-2.11,1.3-3.79,2.38-5,3.12l-1.32.82a2.87,2.87,0,0,1-.48.28,2.38,2.38,0,0,1,.43-.34c.29-.22.72-.53,1.28-.92,1.13-.82,2.79-1.9,4.87-3.23,4.18-2.68,10.12-6.23,17-10l-.1.26c-.46-1.12-1-2.3-1.45-3.5-1.65-4-3.3-7.82-5-11.16a36.8,36.8,0,0,0-5.43-8.25,14.48,14.48,0,0,0-2.89-2.47,10.19,10.19,0,0,0-2.63-1.18A15.09,15.09,0,0,0,228.31,98.11Z"/><path class="cls-5" d="M272.37,47a1.48,1.48,0,0,1,.1.36,4.77,4.77,0,0,1,.06,1.07A5.63,5.63,0,0,1,271,52a5.57,5.57,0,0,1-5.52,1.39,4.9,4.9,0,0,1-2.82-2,3,3,0,0,1-.42-1.87,2.39,2.39,0,0,1,1-1.7,2.11,2.11,0,0,1,2-.13,2.57,2.57,0,0,1,1.35,1.36,3.62,3.62,0,0,1-.55,3.43,4.3,4.3,0,0,1-5.41,1.18,9.15,9.15,0,0,0-2-.78A2.49,2.49,0,0,0,257,53a7.94,7.94,0,0,0-1.17.78,2.21,2.21,0,0,1,.24-.29,2.35,2.35,0,0,1,.33-.3,2.51,2.51,0,0,1,.53-.34,2.69,2.69,0,0,1,1.65-.25,9.19,9.19,0,0,1,2.12.74,6.14,6.14,0,0,0,1.19.39,3.72,3.72,0,0,0,1.33,0,3.82,3.82,0,0,0,2.47-1.49,3.2,3.2,0,0,0,.48-3,1.94,1.94,0,0,0-2.52-1.12l-.19.08a2,2,0,0,0-.83,1.4,2.51,2.51,0,0,0,.37,1.6,4.45,4.45,0,0,0,2.57,1.88,5.25,5.25,0,0,0,5.18-1.23,5.55,5.55,0,0,0,1.61-3.37A11.53,11.53,0,0,0,272.37,47Z"/><path class="cls-4" d="M267.9,78.15s-.24.17-.7.18a3.69,3.69,0,0,1-3.05-1.53c-.25-.38-.32-.65-.27-.68a10,10,0,0,0,1.8,1.44A9.11,9.11,0,0,0,267.9,78.15Z"/><path class="cls-5" d="M273.73,49.79a2.91,2.91,0,0,1,.4,1.52,5.06,5.06,0,0,1-4.59,5.29,2.77,2.77,0,0,1-1.56-.18c0-.07.6,0,1.52-.12a5.1,5.1,0,0,0,4.32-4.95C273.85,50.4,273.66,49.84,273.73,49.79Z"/><path class="cls-2" d="M245.82,118.86c.05.1-5.38,2.9-12.15,6.24s-12.29,6-12.38,5.87,5.38-2.91,12.15-6.26S245.77,118.75,245.82,118.86Z"/><path class="cls-2" d="M240.87,109.5c0,.1-4.79,2.81-10.82,6s-11,5.77-11,5.67,4.79-2.82,10.82-6S240.81,109.39,240.87,109.5Z"/><path class="cls-2" d="M236.07,101.93a19,19,0,0,1-2.42,1.43l-5.92,3.3L221.84,110a19,19,0,0,1-2.48,1.33,17.73,17.73,0,0,1,2.33-1.59c1.47-.93,3.52-2.17,5.83-3.48s4.44-2.42,6-3.19A17.26,17.26,0,0,1,236.07,101.93Z"/><path class="cls-2" d="M254.2,100.13a4,4,0,0,1-1.6-.43,12.33,12.33,0,0,1-3.3-2.17,23.22,23.22,0,0,1-2.69-2.92,5.9,5.9,0,0,1-.93-1.35,9.23,9.23,0,0,1,1.16,1.16,36.72,36.72,0,0,0,2.75,2.79,15.14,15.14,0,0,0,3.17,2.21C253.61,99.89,254.22,100.08,254.2,100.13Z"/><path class="cls-2" d="M266.23,95.67a5.7,5.7,0,0,1-4.44,3.74,26.77,26.77,0,0,0,2.48-1.59C265,97.13,265.61,96.42,266.23,95.67Z"/><path class="cls-2" d="M287.69,108.09a2.33,2.33,0,0,1-.46.08l-1.33.17c-1.16.13-2.83.28-4.89.45-4.13.33-9.9.65-16.2.88s-12.06.31-16.22.28c-2.07,0-3.76-.06-4.91-.1l-1.34-.07a1.82,1.82,0,0,1-.46-.06,1.77,1.77,0,0,1,.46,0h1.34l4.91,0c4.12,0,9.9-.17,16.2-.4s12-.51,16.19-.75l4.9-.32,1.34-.08A1.47,1.47,0,0,1,287.69,108.09Z"/><path class="cls-2" d="M281.17,117.87a8.83,8.83,0,0,1-1.35.22c-.88.11-2.15.24-3.72.39-3.15.29-7.49.58-12.3.78s-9.18.24-12.38.21c-1.58,0-2.86,0-3.74-.09a7.83,7.83,0,0,1-1.37-.1,9,9,0,0,1,1.37-.07l3.74,0c3.15,0,7.51-.14,12.31-.33s9.16-.44,12.3-.66l3.73-.25A7.39,7.39,0,0,1,281.17,117.87Z"/><path class="cls-2" d="M266.38,129.94a16.78,16.78,0,0,1-2.73.39c-1.7.17-4,.36-6.65.49s-4.95.17-6.65.17a17,17,0,0,1-2.76-.11,16.89,16.89,0,0,1,2.75-.2l6.64-.29,6.6-.37A20.11,20.11,0,0,1,266.38,129.94Z"/><path class="cls-2" d="M247.47,101.31c0,.12-2.53.14-5.65.28s-5.63.3-5.65.18A42,42,0,0,1,247.47,101.31Z"/><path class="cls-2" d="M282.28,100.86A64.07,64.07,0,0,1,275,101a59.72,59.72,0,0,1-7.33-.24,64,64,0,0,1,7.33-.19A61.85,61.85,0,0,1,282.28,100.86Z"/><path class="cls-2" d="M283.55,151.07a3.73,3.73,0,0,1-.75.43c-.5.25-1.23.59-2.15,1A46.93,46.93,0,0,1,265.52,156c-1,.06-1.8.08-2.36.06a3.87,3.87,0,0,1-.83-.06c0-.06,1.23-.11,3.2-.3a61.53,61.53,0,0,0,7.63-1.23,58.77,58.77,0,0,0,7.43-2.24A30.16,30.16,0,0,1,283.55,151.07Z"/></g><g id="freepik--character-1--inject-10"><ellipse class="cls-2" cx="60.66" cy="229.3" rx="35.72" ry="34.08"/><path class="cls-4" d="M53.38,147.16c-5.66.29-7.89,6.2-8.56,7.52a11.5,11.5,0,0,0-.91,4.33,9.33,9.33,0,0,1-1.09,4.26c-1.25,2-3.87,3-4.58,5.26-.82,2.53,1.26,5.24.71,7.84-.3,1.39-1.31,2.54-1.65,3.92a5.75,5.75,0,0,0,.77,4.28c1.85,3.2,5.72,4.8,9.41,5s7.31-1,10.85-2.06"/><path class="cls-4" d="M78.32,154.48a3.53,3.53,0,0,0,.82,3.66,23.62,23.62,0,0,0,3.07,2.48,5,5,0,0,1,2.1,3.24c.1,1.2-.51,2.41-.34,3.6.43,3.1,5.35,4,5.61,7.12.18,2.08-2,4-1.35,6a9.33,9.33,0,0,0,1.23,2.09c1.41,2.32.46,5.53-1.57,7.32a12,12,0,0,1-7.54,2.56c-2.28.1-4.87-.27-6.21-2.11-1.23-1.69-1-4-.73-6.06,1.14-9.67,1-19.44.76-29.17"/><path class="cls-9" d="M54.88,199.23c0-5.08,0-10.43,0-10.43s-6.53-1.16-7.79-9.71c-1.2-8.16.82-25.7.82-25.7h0c9.47-3.74,20.13-2.3,26.75,5.32h0l-1,41.26c-.11,4.78-4.33,8.49-9.45,8.33h0C59,208.13,54.83,204.09,54.88,199.23Z"/><path class="cls-4" d="M49.69,166.85a1.11,1.11,0,0,0,1,1.13,1.06,1.06,0,0,0,1.15-1v0a1.1,1.1,0,0,0-1.05-1.12,1,1,0,0,0-1.13,1Z"/><path class="cls-4" d="M47.94,166c.13.14,1-.46,2.14-.44,2.22.32,2.18.66,2.16.47s-.06-.33-.44-.6a3,3,0,0,0-1.73-.56,2.92,2.92,0,0,0-1.71.54C48,165.69,47.87,166,47.94,166Z"/><path class="cls-4" d="M61.76,167.21a1.07,1.07,0,0,0,1,1.11,1,1,0,0,0,1.13-.93v0a1.1,1.1,0,0,0-1-1.12,1,1,0,0,0-1.14,1Z"/><path class="cls-4" d="M60.22,166.42c.13.14,1-.47,2.15-.45s2,.62,2.17.48-.08-.32-.45-.6a3,3,0,0,0-1.73-.56,2.94,2.94,0,0,0-1.72.53C60.28,166.14,60.16,166.35,60.22,166.42Z"/><path class="cls-4" d="M55.84,174.87a7.26,7.26,0,0,0-1.91-.37c-.29,0-.58-.1-.63-.3a1.63,1.63,0,0,1,.21-.89l.92-2.28a40.64,40.64,0,0,0,2.07-6A41.39,41.39,0,0,0,54,170.83c-.3.83-.59,1.57-.87,2.29a1.73,1.73,0,0,0-.18,1.18.75.75,0,0,0,.5.45,1.41,1.41,0,0,0,.5.07A7.42,7.42,0,0,0,55.84,174.87Z"/><path class="cls-8" d="M54.87,188.8a21.75,21.75,0,0,0,11.47-2.91s-2.84,5.83-11.38,5Z"/><path class="cls-8" d="M56.29,177.69a2.14,2.14,0,0,1,1.92-.77,2,2,0,0,1,1.39.77,1.25,1.25,0,0,1,.07,1.41,1.45,1.45,0,0,1-1.55.37,4.47,4.47,0,0,1-1.5-.92,1.23,1.23,0,0,1-.33-.35.39.39,0,0,1,0-.44"/><path class="cls-4" d="M59.31,175.72c-.2,0-.22,1.27-1.32,2.17s-2.48.74-2.48.91.31.26.88.27a3.12,3.12,0,0,0,2.07-.69,2.77,2.77,0,0,0,1-1.81C59.53,176,59.39,175.72,59.31,175.72Z"/><path class="cls-4" d="M71,152.62c-3.12,4.46-11.4,9-17.33,10.1.69-.91,4.32-3.15,5-4.06-2.68,2-6.53,4.69-10.08,4.86a2.09,2.09,0,0,1-1.23-.19,1.62,1.62,0,0,1-.62-1.34,35.17,35.17,0,0,1,.24-7.74A8.61,8.61,0,0,1,50,148.73c2.29-1.76,5.55-2.19,8.62-2.27a19.61,19.61,0,0,1,7.6,1c2.36.92,4.39,2.76,4.73,4.95"/><path class="cls-4" d="M79.91,172.58a45.91,45.91,0,0,0,.82-5.71c.26-4.41-1-20.63-16.2-19.36l-.62,4.63s-2.34,15.84,7.48,16a17.57,17.57,0,0,0,5,9.31s2.57-.08,3.49-4.82"/><path class="cls-9" d="M71.42,168.09a5.15,5.15,0,0,1,2.75.21,3.61,3.61,0,0,1,2,1.85,3.78,3.78,0,0,1,0,2.73,6.44,6.44,0,0,1-1.59,2.27,4.06,4.06,0,0,1-1.65,1.08,2,2,0,0,1-1.9-.31"/><path class="cls-8" d="M71.86,173.64c-.11,0,.29.58,1.12.37a1.8,1.8,0,0,0,1-.89,4,4,0,0,0,.48-1.51,2.47,2.47,0,0,0-.37-1.65,1.58,1.58,0,0,0-1.19-.71c-.83,0-1.13.56-1,.57a1.7,1.7,0,0,1,1-.09,1.55,1.55,0,0,1,.94,1.78c-.11.94-.48,1.8-1,2S71.91,173.56,71.86,173.64Z"/><path class="cls-4" d="M73.08,151a5.18,5.18,0,0,0,7-1.84,3.29,3.29,0,0,0,.48-2.48A3.39,3.39,0,0,0,78,144.42a5.21,5.21,0,0,0-4.78,1.15,4.54,4.54,0,0,0-1.24,4.7A4.12,4.12,0,0,0,75.92,153"/><path class="cls-4" d="M74.45,175.57a12.77,12.77,0,0,0-2.36,2,4.09,4.09,0,0,0-1,2.87,7.8,7.8,0,0,1,.19,1.74,5.91,5.91,0,0,1-1.19,2.06,4.87,4.87,0,0,0,.76,5.73,7.89,7.89,0,0,0,5.62,2.28,5.58,5.58,0,0,0,3.45-.82,5.66,5.66,0,0,0,2-4.6"/><path class="cls-5" d="M75.49,154.36a5.44,5.44,0,0,1-.89,1.55,18.22,18.22,0,0,1-6.54,5.62,5.74,5.74,0,0,1-1.65.65,37.55,37.55,0,0,0,5-3.39A38.88,38.88,0,0,0,75.49,154.36Z"/><path class="cls-5" d="M77.06,154.27a6.43,6.43,0,0,1-.27,2.09,17.32,17.32,0,0,1-1.93,4.69A17.13,17.13,0,0,1,71.62,165a7.16,7.16,0,0,1-1.72,1.22,26,26,0,0,0,4.59-5.35A25.87,25.87,0,0,0,77.06,154.27Z"/><path class="cls-5" d="M44.08,161.18c.13,0,.29,1.42.83,3.12a27.33,27.33,0,0,1,1,3A9.82,9.82,0,0,1,44.08,161.18Z"/><path class="cls-5" d="M80.48,190.34a2.45,2.45,0,0,0,1.25.41,2.71,2.71,0,0,0,1.46-.46,3,3,0,0,0,1.09-1.65,5.2,5.2,0,0,0,0-2.48c-.17-.9-.52-1.82-.82-2.84a7.24,7.24,0,0,1-.37-3.3c.19-1.2,1-2.18,1.35-3.3a4.2,4.2,0,0,0-.24-3.26,4.28,4.28,0,0,0-2.26-2.07,14.88,14.88,0,0,1-1.42-.62,2.8,2.8,0,0,1-1.13-1,4.81,4.81,0,0,1-.51-2.6,9.22,9.22,0,0,0-.08-2.1,3.55,3.55,0,0,0-.62-1.42,2,2,0,0,0-1.12-.69.77.77,0,0,1,.37,0,1.79,1.79,0,0,1,.88.54A3.59,3.59,0,0,1,79,165a7.77,7.77,0,0,1,.15,2.15,4.43,4.43,0,0,0,.52,2.4A4.56,4.56,0,0,0,82.09,171a4.56,4.56,0,0,1,2.47,2.24,4.62,4.62,0,0,1,.28,3.59,20,20,0,0,0-1.35,3.2,7,7,0,0,0,.34,3.14c.29,1,.63,1.94.82,2.88a5.62,5.62,0,0,1-.07,2.64,3.2,3.2,0,0,1-1.26,1.78,2.65,2.65,0,0,1-1.6.43,2.07,2.07,0,0,1-1-.32A.82.82,0,0,1,80.48,190.34Z"/><path class="cls-5" d="M74.52,189.76a1,1,0,0,0,.5.45,1.36,1.36,0,0,0,1.61-.43,2.54,2.54,0,0,0-.14-2.59c-.47-.93-1.4-1.85-1.65-3.21a2.32,2.32,0,0,1,.46-1.9c.4-.5.88-.83,1.19-1.23a3.62,3.62,0,0,0,.57-2.64,11,11,0,0,0-.47-1.88,3.22,3.22,0,0,1-.2-.69,4,4,0,0,1,.35.64,7.35,7.35,0,0,1,.62,1.89,3.88,3.88,0,0,1-.55,2.91c-.36.48-.83.82-1.17,1.26a1.91,1.91,0,0,0-.38,1.58c.2,1.18,1.08,2.08,1.58,3.09a2.84,2.84,0,0,1,0,3,1.48,1.48,0,0,1-1,.57,1.55,1.55,0,0,1-.87-.17C74.51,190.06,74.51,189.75,74.52,189.76Z"/><path class="cls-5" d="M42.18,187.59a3.6,3.6,0,0,1-.68-.67,8.54,8.54,0,0,1-1.44-2.17,4.27,4.27,0,0,1-.34-1.8,3.16,3.16,0,0,1,.72-2c.52-.59,1.26-.9,1.7-1.46a2.39,2.39,0,0,0,.34-2.12,8.58,8.58,0,0,0-.9-2.17,7.71,7.71,0,0,1-.82-2.17,2.77,2.77,0,0,1,.42-2.08,7.44,7.44,0,0,1,1.25-1.32,3.69,3.69,0,0,0,1.41-2,2.32,2.32,0,0,0,0-.91.7.7,0,0,1,.13.22,1.46,1.46,0,0,1,.07.72,3.76,3.76,0,0,1-1.37,2.21,7.85,7.85,0,0,0-1.16,1.28,2.47,2.47,0,0,0-.33,1.82,7.52,7.52,0,0,0,.82,2,9,9,0,0,1,1,2.27,2.85,2.85,0,0,1-.43,2.48c-.56.66-1.3.95-1.73,1.45a2.82,2.82,0,0,0-.67,1.75,4.21,4.21,0,0,0,.27,1.65,9.21,9.21,0,0,0,1.29,2.18A4.76,4.76,0,0,1,42.18,187.59Z"/><path class="cls-3" d="M76.58,152a13.47,13.47,0,0,0-2-2.19,13.73,13.73,0,0,0-2.65-1.34A5,5,0,0,1,76.58,152Z"/><path class="cls-5" d="M77.75,144.13a1.88,1.88,0,0,1,.54.93A4.46,4.46,0,0,1,77,149.89c-.52.44-.92.57-.94.53s.3-.28.73-.75A4.9,4.9,0,0,0,78,145.14,6,6,0,0,1,77.75,144.13Z"/><path class="cls-12" d="M35.87,245.63s20.51,19.47,32.69,15.94S84.35,248.9,84.35,248.9l.3-3.3-1.23-.82L36.49,241Z"/><path class="cls-8" d="M23.75,227.39l3.95-10.1,14.17,8.91L29.25,245.66S24.12,239,23.75,227.39Z"/><path class="cls-3" d="M39.73,199.39c6.61-3.45,15.14-4.44,15.14-4.44h0c2.47,5,10.29,5.58,15,2.2l4-2.7a15.19,15.19,0,0,1,1.65.08,21.3,21.3,0,0,1,18.88,17,42.93,42.93,0,0,1,1,10.72c-.52,9-9.86,9.84-9.86,9.84s-.48,8.9-1.11,16.11h0a13.45,13.45,0,0,1-8.16,11.64A33.31,33.31,0,0,1,65.87,263a35,35,0,0,1-31-10.73c1.42-8.58,2.77-19.69,2.67-20.2a.43.43,0,0,1,0-.16l-9.25-8.21L23,219.33s11.56-17.08,16.69-19.88"/><path class="cls-6" d="M51.2,204.92a4.8,4.8,0,0,0-2.28-.64,3.75,3.75,0,0,0-2.36.83,9.45,9.45,0,0,0-1.06,1.13,2.68,2.68,0,0,1-1.49,1,2.41,2.41,0,0,1-1.74-.47c-.48-.3-.89-.63-1.31-.87a2.8,2.8,0,0,0-2.41-.21,3.07,3.07,0,0,0-1.41,1c-.26.32-.35.54-.39.52a1.36,1.36,0,0,1,.25-.62,3,3,0,0,1,1.44-1.16,3.1,3.1,0,0,1,2.72.15c.46.25.88.59,1.33.87a2.06,2.06,0,0,0,1.44.4A2.37,2.37,0,0,0,45.2,206a7.55,7.55,0,0,1,1.11-1.15,4,4,0,0,1,2.61-.83,3.73,3.73,0,0,1,1.76.5A1.54,1.54,0,0,1,51.2,204.92Z"/><path class="cls-6" d="M60.6,217.29a4.79,4.79,0,0,0-2-1.33,3.77,3.77,0,0,0-2.48,0,10.37,10.37,0,0,0-1.35.73,2.67,2.67,0,0,1-1.73.46,2.36,2.36,0,0,1-1.5-1c-.36-.43-.64-.88-1-1.24a2.86,2.86,0,0,0-2.22-1,3.32,3.32,0,0,0-1.65.47,5.65,5.65,0,0,1-.54.38s.11-.23.45-.52a3.19,3.19,0,0,1,4.25.38c.36.39.65.83,1,1.25a2.07,2.07,0,0,0,1.23.83,2.47,2.47,0,0,0,1.47-.41,8.81,8.81,0,0,1,1.43-.74,3.92,3.92,0,0,1,2.74.07,3.73,3.73,0,0,1,1.52,1C60.54,217,60.62,217.24,60.6,217.29Z"/><path class="cls-6" d="M81.49,199.22a5,5,0,0,0-2.37-.14A3.76,3.76,0,0,0,77,200.39a10.9,10.9,0,0,0-.78,1.32A2.68,2.68,0,0,1,74.94,203a2.44,2.44,0,0,1-1.8-.09c-.52-.2-1-.44-1.46-.58a2.81,2.81,0,0,0-2.41.31,3.24,3.24,0,0,0-1.17,1.24c-.18.37-.23.61-.26.6a1.69,1.69,0,0,1,.11-.67A3.21,3.21,0,0,1,71.81,202c.5.15,1,.38,1.47.56a2,2,0,0,0,1.5.09,2.38,2.38,0,0,0,1-1.1,9,9,0,0,1,.83-1.36A3.94,3.94,0,0,1,79,198.79a3.56,3.56,0,0,1,1.83.12A1.45,1.45,0,0,1,81.49,199.22Z"/><path class="cls-6" d="M71.85,212.75a4.3,4.3,0,0,0-1.48-1.05,2.82,2.82,0,0,0-1.9-.06,7.36,7.36,0,0,0-1.06.51,2.11,2.11,0,0,1-1.39.31,1.9,1.9,0,0,1-1.15-.83c-.26-.35-.46-.71-.69-1a2.11,2.11,0,0,0-1.65-.82,3,3,0,0,0-1.71.54,1.22,1.22,0,0,1,.35-.39,2.47,2.47,0,0,1,3.3.42c.27.31.48.67.72,1a1.55,1.55,0,0,0,.9.68c.76.13,1.45-.56,2.24-.78a3,3,0,0,1,2.14.16C71.63,212,71.9,212.77,71.85,212.75Z"/><path class="cls-6" d="M50.6,224.16a4.2,4.2,0,0,0-1.48-1.06,2.82,2.82,0,0,0-1.9,0,7.47,7.47,0,0,0-1.07.51,2.05,2.05,0,0,1-1.41.31,1.9,1.9,0,0,1-1.14-.82c-.27-.36-.47-.71-.69-1a2.17,2.17,0,0,0-1.65-.83,3,3,0,0,0-1.71.54,1.18,1.18,0,0,1,.35-.39,2.29,2.29,0,0,1,1.36-.45,2.42,2.42,0,0,1,2,.87c.26.32.47.67.71,1a1.51,1.51,0,0,0,.9.68c.75.13,1.46-.55,2.25-.78a3.07,3.07,0,0,1,2.13.16C50.38,223.35,50.64,224.17,50.6,224.16Z"/><path class="cls-6" d="M70.46,224.42a4,4,0,0,0-1.74-.53,2.92,2.92,0,0,0-1.81.56,7.23,7.23,0,0,0-.83.83,2.18,2.18,0,0,1-1.21.73,1.91,1.91,0,0,1-1.36-.42c-.37-.25-.66-.52-1-.72a2.13,2.13,0,0,0-1.82-.24,3,3,0,0,0-1.44,1.06.92.92,0,0,1,.2-.48,2.31,2.31,0,0,1,1.15-.87,2.39,2.39,0,0,1,2.13.2c.34.2.66.48,1,.7a1.5,1.5,0,0,0,1.06.35c.76-.12,1.2-1,1.87-1.47a3.12,3.12,0,0,1,2.07-.54A2.22,2.22,0,0,1,70.46,224.42Z"/><path class="cls-6" d="M63.9,233.48a4.25,4.25,0,0,0-1.74-.53,3,3,0,0,0-1.82.56,8.13,8.13,0,0,0-.83.83,2.09,2.09,0,0,1-1.21.73,1.91,1.91,0,0,1-1.36-.42c-.36-.25-.66-.52-1-.71a2.09,2.09,0,0,0-1.82-.25,3,3,0,0,0-1.44,1.06.86.86,0,0,1,.2-.48,2.46,2.46,0,0,1,3.3-.67c.35.2.66.48,1,.7a1.48,1.48,0,0,0,1.07.34c.76-.11,1.19-1,1.87-1.46a3.16,3.16,0,0,1,2.07-.54A2.2,2.2,0,0,1,63.9,233.48Z"/><path class="cls-6" d="M50.05,256a4.59,4.59,0,0,0-1.5-1,2.94,2.94,0,0,0-1.9,0,8.12,8.12,0,0,0-1.06.54,2.07,2.07,0,0,1-1.37.31,1.86,1.86,0,0,1-1.17-.82c-.26-.35-.47-.7-.7-1a2.19,2.19,0,0,0-1.65-.83,3,3,0,0,0-1.7.57,1,1,0,0,1,.34-.4,2.37,2.37,0,0,1,1.36-.46,2.39,2.39,0,0,1,2,.82c.27.31.48.67.73,1a1.49,1.49,0,0,0,.91.66c.76.13,1.44-.57,2.23-.82a3,3,0,0,1,2.14.13C49.81,255.17,50.09,256,50.05,256Z"/><path class="cls-6" d="M66.26,260.76a4.16,4.16,0,0,0-1.71-.56,2.92,2.92,0,0,0-1.83.54,7.06,7.06,0,0,0-.82.82,2.15,2.15,0,0,1-1.22.71,1.93,1.93,0,0,1-1.36-.44c-.36-.25-.66-.53-1-.73a2.16,2.16,0,0,0-1.83-.27,3.08,3.08,0,0,0-1.45,1,.88.88,0,0,1,.21-.47,2.33,2.33,0,0,1,1.15-.83,2.5,2.5,0,0,1,2.13.23c.35.22.66.49,1,.72a1.55,1.55,0,0,0,1.07.36c.76-.11,1.21-1,1.89-1.43a3.12,3.12,0,0,1,2.08-.52A2.19,2.19,0,0,1,66.26,260.76Z"/><path class="cls-4" d="M12.83,192.54c.49.59,18.64,24.84,18.64,24.84l-2.55,1.46L10.29,194.91Z"/><path class="cls-9" d="M83.63,209.87s-17,29.35-18.15,29.88c-2.27,1.07-28.38-21.5-30.87-23.65l-2.47-3.35s-2.06-9.43-4.26-8.71,1.2,4.8-.23,8.38-8-4.95-8.25-5.73l-1.65-2.21s-1.77,5-1.65,7.13c.38,6.72,6.74,14.72,6.74,14.72s25.86,32.39,45.44,33.49c5.63.32,16.4-15.91,23.1-27.91,4-7.24,2.16-14.59-4.54-19.49Z"/><path class="cls-8" d="M19.3,212.75a15.26,15.26,0,0,1-2.48-4.95c.07,0,.55,1.12,1.24,2.48S19.35,212.72,19.3,212.75Z"/><path class="cls-3" d="M82.83,201.67c-.67.4-16.5,29.77-16.5,29.77L86.7,247.39a237,237,0,0,0,8.09-23.65c.76-2.88.37-10.58-.7-13.55-1.52-4.22-3.82-3.17-7.26-5.64Z"/><g class="cls-13"><path d="M89.52,201.67s-.2-.12-.58-.31a3.46,3.46,0,0,0-1.79-.37,4.89,4.89,0,0,0-2.65,1.1,13.09,13.09,0,0,0-2.63,2.83A46.27,46.27,0,0,0,79.4,209c-.83,1.5-1.77,3.1-2.72,4.78-1.93,3.36-4.05,7.05-6.26,10.93-1.36,2.35-2.67,4.64-3.91,6.78l-.05-.26,13.78,10.89,4,3.21,1.06.88a1.78,1.78,0,0,1,.35.32,2.09,2.09,0,0,1-.39-.27l-1.11-.82-4.08-3.12L66.2,231.63l-.14-.11.14-.2c1.23-2.15,2.55-4.43,3.89-6.79,2.23-3.87,4.36-7.55,6.29-10.91l2.75-4.76a48,48,0,0,1,2.48-4.13,12.74,12.74,0,0,1,2.76-2.87,5.13,5.13,0,0,1,2.78-1.09,3.37,3.37,0,0,1,1.84.47,3.07,3.07,0,0,1,.42.28C89.49,201.62,89.53,201.66,89.52,201.67Z"/></g><path class="cls-6" d="M83.44,229.21A4.11,4.11,0,0,0,82,228.15a2.85,2.85,0,0,0-1.89-.06,6.22,6.22,0,0,0-1.07.52,2.22,2.22,0,0,1-1.38.3,2,2,0,0,1-1.16-.82c-.26-.36-.45-.71-.68-1a2.15,2.15,0,0,0-1.65-.83,3.07,3.07,0,0,0-1.71.54,1.29,1.29,0,0,1,.34-.4,2.5,2.5,0,0,1,1.37-.44,2.4,2.4,0,0,1,2,.87c.27.31.48.67.72,1a1.61,1.61,0,0,0,.9.68c.76.13,1.45-.55,2.24-.78a3.09,3.09,0,0,1,2.14.15C83.23,228.39,83.52,229.22,83.44,229.21Z"/><path class="cls-6" d="M92.75,225.41A3.87,3.87,0,0,0,91.61,224a2.92,2.92,0,0,0-1.81-.56,7.63,7.63,0,0,0-1.16.21,2.23,2.23,0,0,1-1.42-.08,1.92,1.92,0,0,1-.88-1.13c-.15-.41-.25-.82-.39-1.13a2.14,2.14,0,0,0-1.37-1.24,3,3,0,0,0-1.79.06,1,1,0,0,1,.44-.28,2.26,2.26,0,0,1,1.43-.07,2.38,2.38,0,0,1,1.65,1.37c.17.37.27.77.42,1.15a1.51,1.51,0,0,0,.69.88c.69.34,1.54-.13,2.37-.14a3.16,3.16,0,0,1,2,.73A2.22,2.22,0,0,1,92.75,225.41Z"/><path class="cls-6" d="M93.23,213.27a4.05,4.05,0,0,0-1.14-1.42,2.87,2.87,0,0,0-1.81-.57,6.57,6.57,0,0,0-1.16.21,2.1,2.1,0,0,1-1.42-.09,1.88,1.88,0,0,1-.88-1.11c-.15-.42-.25-.83-.39-1.15a2.27,2.27,0,0,0-1.37-1.24,3,3,0,0,0-1.79.06,1.13,1.13,0,0,1,.44-.28,2.41,2.41,0,0,1,1.43-.07A2.5,2.5,0,0,1,86.79,209c.17.38.27.78.42,1.15a1.53,1.53,0,0,0,.69.89c.69.33,1.54-.14,2.36-.14a3,3,0,0,1,2,.73A2.22,2.22,0,0,1,93.23,213.27Z"/><path class="cls-6" d="M88.72,241.22a4.24,4.24,0,0,0-1.14-1.42,2.87,2.87,0,0,0-1.81-.57,6.59,6.59,0,0,0-1.16.22,2.16,2.16,0,0,1-1.42-.09,2,2,0,0,1-.88-1.12c-.16-.41-.25-.82-.4-1.14a2.15,2.15,0,0,0-1.36-1.24,2.88,2.88,0,0,0-1.79.06,1.25,1.25,0,0,1,.44-.28,2.47,2.47,0,0,1,3.08,1.3c.17.37.28.77.43,1.15a1.5,1.5,0,0,0,.67.89c.7.33,1.55-.14,2.38-.14a3.06,3.06,0,0,1,2,.72A2.22,2.22,0,0,1,88.72,241.22Z"/></g></svg>