<svg id="Layer_1" data-name="Layer 1" xmlns="http://www.w3.org/2000/svg" viewBox="0 0 320 384"><defs><style>.cls-1{opacity:0.05;}.cls-2{fill:#455a64;}</style></defs><g class="cls-1"><path class="cls-2" d="M98.62,138.67l.9-1.48a39.18,39.18,0,0,1,35.75-19.12,38.49,38.49,0,0,1,5.53.76,41.18,41.18,0,0,1,29.32,25.48c2.78,7.49,3.56,16.11,8.85,22.05,6.89,7.73,18.57,8,28.85,7.65s22,0,28.82,7.72c4.29,4.86,5.65,11.77,5.31,18.28-.92,17.24-12.93,32.65-28.2,40.31s-33.27,8.35-50,5c-23.42-4.72-45.7-17.68-59.08-37.71S87.91,160.28,98.62,138.67Z"/></g></svg>