<svg id="Layer_1" data-name="Layer 1" xmlns="http://www.w3.org/2000/svg" viewBox="0 0 400 480"><defs><style>.cls-1{fill:#263238;}.cls-2,.cls-8,.cls-9{fill:#959595;}.cls-3{opacity:0.6;}.cls-4{opacity:0.2;}.cls-16,.cls-5{fill:#455a64;}.cls-5,.cls-9{opacity:0.5;}.cls-6{fill:#536167;}.cls-10,.cls-23,.cls-7{fill:#fff;}.cls-8{opacity:0.7;}.cls-10{fill-rule:evenodd;}.cls-11{opacity:0.3;}.cls-12{fill:#ebebeb;}.cls-13{fill:#ffbe9d;}.cls-14{fill:#eb996e;}.cls-15{fill:#e0e0e0;}.cls-17{fill:#fafafa;}.cls-18{fill:#f5f5f5;}.cls-19{fill:#707070;}.cls-20{fill:#b78876;}.cls-21{fill:#995037;}.cls-22{fill:#a2adb2;}.cls-23{opacity:0.6;isolation:isolate;}</style></defs><g id="freepik--Floor--inject-2"><path class="cls-1" d="M378.27,443.39c0,.13-80.54.24-179.86.24s-179.87-.11-179.87-.24,80.51-.24,179.87-.24S378.27,443.24,378.27,443.39Z"/></g><g id="freepik--World--inject-2"><path class="cls-2" d="M282.48,244.26a12.1,12.1,0,0,1,.23-3.12,14,14,0,0,1,.56-3.07,10.28,10.28,0,0,1-.14,3.13A11.94,11.94,0,0,1,282.48,244.26Z"/><path class="cls-2" d="M280.78,252.13a5,5,0,0,1,.26-2,5.21,5.21,0,0,1,.68-1.91,4.85,4.85,0,0,1-.27,2A5.45,5.45,0,0,1,280.78,252.13Z"/><path class="cls-2" d="M278.33,259.82a5.12,5.12,0,0,1,.45-2,5,5,0,0,1,.87-1.84,5.13,5.13,0,0,1-.46,2A5.44,5.44,0,0,1,278.33,259.82Z"/><path class="cls-2" d="M275.15,267.17a4.87,4.87,0,0,1,.65-1.92,5.67,5.67,0,0,1,1-1.73,9.72,9.72,0,0,1-1.68,3.65Z"/><path class="cls-2" d="M271.27,274.21a4.83,4.83,0,0,1,.81-1.84,5.11,5.11,0,0,1,1.19-1.61,4.8,4.8,0,0,1-.81,1.85C271.9,273.55,271.35,274.29,271.27,274.21Z"/><path class="cls-2" d="M266.73,280.85a5,5,0,0,1,1-1.75c.66-.9,1.25-1.61,1.35-1.52a5,5,0,0,1-1,1.76C267.42,280.25,266.82,280.92,266.73,280.85Z"/><path class="cls-2" d="M261.57,287c-.09-.07.44-.8,1.17-1.65s1.4-1.44,1.49-1.37-.44.81-1.18,1.65S261.69,287.09,261.57,287Z"/><path class="cls-2" d="M255.85,292.66c-.08-.09.51-.81,1.32-1.53s1.52-1.31,1.6-1.22-.5.76-1.31,1.52S255.93,292.74,255.85,292.66Z"/><path class="cls-2" d="M249.63,297.72c-.07-.09.59-.71,1.46-1.39s1.61-1.16,1.72-1.06-.58.71-1.47,1.39A4.82,4.82,0,0,1,249.63,297.72Z"/><path class="cls-2" d="M242.92,302.18a5.8,5.8,0,0,1,1.61-1.26,5.15,5.15,0,0,1,1.82-.89c.06.1-.65.66-1.61,1.25A5.17,5.17,0,0,1,242.92,302.18Z"/><path class="cls-2" d="M235.84,306a4.8,4.8,0,0,1,1.73-1.11,5,5,0,0,1,1.89-.72,5.66,5.66,0,0,1-1.7,1.09A5,5,0,0,1,235.84,306Z"/><path class="cls-2" d="M228.42,309.05a10.17,10.17,0,0,1,3.75-1.45,5,5,0,0,1-1.8.92A4.93,4.93,0,0,1,228.42,309.05Z"/><path class="cls-2" d="M220.74,311.42a9.51,9.51,0,0,1,3.87-1.09,4.94,4.94,0,0,1-1.88.74A5,5,0,0,1,220.74,311.42Z"/><path class="cls-2" d="M212.87,313a9.39,9.39,0,0,1,3.95-.71A9.71,9.71,0,0,1,212.87,313Z"/><path class="cls-2" d="M204.87,313.86a10,10,0,0,1,4-.32A9.84,9.84,0,0,1,204.87,313.86Z"/><path class="cls-2" d="M196.83,313.93a9.63,9.63,0,0,1,4,.06,4.84,4.84,0,0,1-2,.18A5.19,5.19,0,0,1,196.83,313.93Z"/><path class="cls-2" d="M188.82,313.23a10.61,10.61,0,0,1,4,.44,9.36,9.36,0,0,1-4-.44Z"/><path class="cls-2" d="M180.91,311.76a9.81,9.81,0,0,1,3.93.83,9.71,9.71,0,0,1-3.94-.83Z"/><path class="cls-2" d="M173.23,309.55a10.15,10.15,0,0,1,3.83,1.2A9.75,9.75,0,0,1,173.23,309.55Z"/><path class="cls-2" d="M165.71,306.6a10,10,0,0,1,3.7,1.57,4.92,4.92,0,0,1-1.94-.59A4.77,4.77,0,0,1,165.71,306.6Z"/><path class="cls-2" d="M158.54,302.94a10.77,10.77,0,0,1,3.54,1.95,5,5,0,0,1-1.87-.81C159.23,303.56,158.48,303.05,158.54,302.94Z"/><path class="cls-2" d="M151.77,298.62a5,5,0,0,1,1.78.94,5.29,5.29,0,0,1,1.56,1.3,4.91,4.91,0,0,1-1.79-.95C152.39,299.29,151.7,298.7,151.77,298.62Z"/><path class="cls-2" d="M145.45,293.64a5.66,5.66,0,0,1,1.69,1.12c.88.7,1.48,1.35,1.41,1.44s-.8-.4-1.68-1.12S145.37,293.73,145.45,293.64Z"/><path class="cls-2" d="M139.63,288.1c.09-.08.81.49,1.57,1.27s1.35,1.48,1.27,1.57-.8-.49-1.57-1.27S139.55,288.18,139.63,288.1Z"/><path class="cls-2" d="M134.37,282c.1-.07.74.57,1.44,1.42a5.15,5.15,0,0,1,1.12,1.68c-.09.08-.73-.56-1.44-1.42A5.15,5.15,0,0,1,134.37,282Z"/><path class="cls-2" d="M129.72,275.47c.1-.07.68.63,1.3,1.55a5.14,5.14,0,0,1,1,1.78c-.09.07-.67-.63-1.3-1.55A5.14,5.14,0,0,1,129.72,275.47Z"/><path class="cls-2" d="M125.72,268.5a4.92,4.92,0,0,1,1.14,1.67,5.05,5.05,0,0,1,.8,1.86c-.1.06-.61-.69-1.15-1.66A4.92,4.92,0,0,1,125.72,268.5Z"/><path class="cls-2" d="M122.4,261.18a5.44,5.44,0,0,1,1,1.77,5.22,5.22,0,0,1,.59,1.93,9.49,9.49,0,0,1-1.57-3.7Z"/><path class="cls-2" d="M119.81,253.58a5.45,5.45,0,0,1,.8,1.85,5.08,5.08,0,0,1,.41,2,9.93,9.93,0,0,1-1.21-3.83Z"/><path class="cls-2" d="M118,245.76a9.29,9.29,0,0,1,.83,3.92,5,5,0,0,1-.61-1.92A4.84,4.84,0,0,1,118,245.76Z"/><path class="cls-2" d="M116.87,237.8a5.1,5.1,0,0,1,.43,2,5.18,5.18,0,0,1,0,2,5.11,5.11,0,0,1-.44-2A5,5,0,0,1,116.87,237.8Z"/><path class="cls-2" d="M116.56,229.76a5.22,5.22,0,0,1,.24,2,4.85,4.85,0,0,1-.19,2,9.63,9.63,0,0,1,0-4Z"/><path class="cls-2" d="M117,221.74a9.67,9.67,0,0,1-.33,4A10,10,0,0,1,117,221.74Z"/><path class="cls-2" d="M118.24,213.79a9.78,9.78,0,0,1-.71,4A9.61,9.61,0,0,1,118.24,213.79Z"/><path class="cls-2" d="M120.21,206a10,10,0,0,1-1.08,3.88A9.59,9.59,0,0,1,120.21,206Z"/><path class="cls-2" d="M122.93,198.42a9.54,9.54,0,0,1-1.46,3.81,5.12,5.12,0,0,1,.53-2A5,5,0,0,1,122.93,198.42Z"/><path class="cls-2" d="M126.36,191.16a5.16,5.16,0,0,1-.71,1.89,5,5,0,0,1-1.1,1.69,5,5,0,0,1,.72-1.89C125.77,191.86,126.26,191.1,126.36,191.16Z"/><path class="cls-2" d="M130.48,184.22a5.1,5.1,0,0,1-.89,1.81,6.51,6.51,0,0,1-1.25,1.61,4.87,4.87,0,0,1,.89-1.81A5.91,5.91,0,0,1,130.48,184.22Z"/><path class="cls-2" d="M135.25,177.78a5.27,5.27,0,0,1-1.06,1.72c-.68.87-1.31,1.52-1.4,1.46a5,5,0,0,1,1.07-1.72C134.53,178.36,135.16,177.7,135.25,177.78Z"/><path class="cls-2" d="M140.62,171.8c.08.08-.47.8-1.23,1.61s-1.44,1.4-1.53,1.32.47-.8,1.23-1.6S140.54,171.71,140.62,171.8Z"/><path class="cls-2" d="M146.53,166.35c.07.09-.54.76-1.37,1.48a5.2,5.2,0,0,1-1.65,1.18c-.07-.09.54-.76,1.37-1.49A5.33,5.33,0,0,1,146.53,166.35Z"/><path class="cls-2" d="M152.94,161.5c.07.1-.61.7-1.51,1.35a4.93,4.93,0,0,1-1.75,1c-.07-.09.61-.69,1.51-1.34A5.2,5.2,0,0,1,152.94,161.5Z"/><path class="cls-2" d="M159.78,157.29a5,5,0,0,1-1.61,1.19,5.15,5.15,0,0,1-1.84.81c-.07-.11.67-.64,1.61-1.2A4.81,4.81,0,0,1,159.78,157.29Z"/><path class="cls-2" d="M167,153.74a5,5,0,0,1-1.73,1,5.22,5.22,0,0,1-1.91.65c-.06-.1.72-.56,1.73-1A5.62,5.62,0,0,1,167,153.74Z"/><path class="cls-2" d="M174.51,150.92a5.06,5.06,0,0,1-1.82.85,4.77,4.77,0,0,1-2,.47,9.7,9.7,0,0,1,3.79-1.32Z"/><path class="cls-2" d="M182.27,148.83a4.82,4.82,0,0,1-1.9.68,5,5,0,0,1-2,.28,5,5,0,0,1,1.91-.69A5.19,5.19,0,0,1,182.27,148.83Z"/><path class="cls-2" d="M190.2,147.49a9.73,9.73,0,0,1-4,.58,10.41,10.41,0,0,1,4-.58Z"/><path class="cls-2" d="M198.21,146.94a5.23,5.23,0,0,1-2,.3,4.82,4.82,0,0,1-2-.12,9.64,9.64,0,0,1,4-.18Z"/><path class="cls-2" d="M206.26,147.15a4.66,4.66,0,0,1-2,.11,5.24,5.24,0,0,1-2-.31A9.82,9.82,0,0,1,206.26,147.15Z"/><path class="cls-2" d="M214.24,148.13a9.91,9.91,0,0,1-4-.59,5.17,5.17,0,0,1,2,.09A4.8,4.8,0,0,1,214.24,148.13Z"/><path class="cls-2" d="M222.09,149.86a9.51,9.51,0,0,1-3.91-1,4.86,4.86,0,0,1,2,.28A5.21,5.21,0,0,1,222.09,149.86Z"/><path class="cls-2" d="M229.74,152.34a9.92,9.92,0,0,1-3.8-1.33A9.92,9.92,0,0,1,229.74,152.34Z"/><path class="cls-2" d="M237.11,155.55a9.9,9.9,0,0,1-3.65-1.69,9.84,9.84,0,0,1,3.65,1.69Z"/><path class="cls-2" d="M244.14,159.46a5,5,0,0,1-1.84-.84c-1-.57-1.69-1.1-1.61-1.2a5,5,0,0,1,1.84.8C243.47,158.83,244.2,159.36,244.14,159.46Z"/><path class="cls-2" d="M250.76,164a5,5,0,0,1-1.76-1c-.89-.65-1.61-1.27-1.5-1.35a4.93,4.93,0,0,1,1.75,1A5.74,5.74,0,0,1,250.76,164Z"/><path class="cls-2" d="M256.87,169.21a5.33,5.33,0,0,1-1.65-1.17c-.8-.74-1.44-1.41-1.37-1.5s.81.44,1.61,1.18S257,169.12,256.87,169.21Z"/><path class="cls-2" d="M262.5,175c-.09.08-.81-.51-1.53-1.32s-1.3-1.53-1.21-1.61.76.5,1.52,1.32A5.2,5.2,0,0,1,262.5,175Z"/><path class="cls-2" d="M267.57,181.21c-.1.07-.72-.59-1.4-1.46a5.31,5.31,0,0,1-1.06-1.73c.1-.07.72.58,1.39,1.47A5.13,5.13,0,0,1,267.57,181.21Z"/><path class="cls-2" d="M272,187.92c-.11.06-.66-.65-1.25-1.61a5.08,5.08,0,0,1-.88-1.81c.09-.07.65.64,1.24,1.61A4.94,4.94,0,0,1,272,187.92Z"/><path class="cls-2" d="M275.74,195a5,5,0,0,1-1.08-1.71,5.16,5.16,0,0,1-.71-1.89,5.63,5.63,0,0,1,1.09,1.71A4.91,4.91,0,0,1,275.74,195Z"/><path class="cls-2" d="M278.81,202.45a9.65,9.65,0,0,1-1.44-3.76A9.65,9.65,0,0,1,278.81,202.45Z"/><path class="cls-2" d="M281.14,210.14a5.1,5.1,0,0,1-.74-1.88,5.27,5.27,0,0,1-.34-2A9.92,9.92,0,0,1,281.14,210.14Z"/><path class="cls-2" d="M282.71,218a5.13,5.13,0,0,1-.55-1.95,5,5,0,0,1-.14-2,5,5,0,0,1,.55,1.94A4.71,4.71,0,0,1,282.71,218Z"/><path class="cls-2" d="M283.52,226a9.66,9.66,0,0,1-.3-4A9.66,9.66,0,0,1,283.52,226Z"/><path class="cls-2" d="M283.55,234.08a5,5,0,0,1-.17-2,4.84,4.84,0,0,1,.25-2,5,5,0,0,1,.17,2A4.84,4.84,0,0,1,283.55,234.08Z"/><path class="cls-1" d="M270.77,223.32c-.08-.8-.17-1.61-.29-2.41s-.23-1.71-.37-2.55c.14.8.26,1.69.37,2.55S270.69,222.5,270.77,223.32Z"/><path class="cls-2" d="M264.25,233.4a35.75,35.75,0,0,1-1.33-5,3.32,3.32,0,0,0-1.51-2.25,12.47,12.47,0,0,0-1.81-.41c-2.12-.64-2.7-3.61-4.71-4.52a6.27,6.27,0,0,0-2-.42c-2.68-.32-5.47-1.26-7.16-3.37a13.26,13.26,0,0,0-1.66-2,2,2,0,0,0-2.41-.23c.57,1.13,1.12,2.27,1.68,3.39a8.88,8.88,0,0,0,1.89,2.84,3.06,3.06,0,0,0,3.17.68,2.2,2.2,0,0,1,1.07-.38,1.22,1.22,0,0,1,.69.44c1.46,1.61,1,4.32-.44,6s-3.53,2.51-5.57,3.32a4.38,4.38,0,0,1-2.28.44c-1.4-.26-2.15-1.79-2.56-3.17-.92-3-1.37-6.35-3.22-8.91a11.13,11.13,0,0,1-1.71-2.49c-.39-1-.3-2.22-.91-3.12s-2-1.49-2.08-2.62a2.09,2.09,0,0,1,1.32-1.84c.74-.35,1.56-.45,2.3-.76.3-.13.63-.35.64-.66,0-.48-.66-.67-.8-1.12s.33-1,.54-1.45c.47-1.11-.7-2.24-1.82-2.69s-2.46-.8-3-1.87a6.83,6.83,0,0,1-.36-1.61,3.56,3.56,0,0,0-2.66-2.94,2.35,2.35,0,0,0-2.68,2,1.78,1.78,0,0,0,0,.46,10.1,10.1,0,0,0,1,2c.33.71.24,1.75-.49,2-1.19.36-2.35-1.81-3.34-1.07.41,1.4.8,2.79,1.21,4.21-1.61.8-3.44-.65-4.11-2.28s-.69-3.5-1.49-5.06-2.94-2.75-4.31-1.61c-.06,2,2.61,2.84,3.79,4.47a2.74,2.74,0,0,1-.53,3.84h0c-1.26.75-3.21-.55-2.76-1.93.17-.47.58-.87.62-1.38s-.49-1.15-1-1.56l-2.39-2a5.07,5.07,0,0,0-1.61-1c-1.57-.45-3.14.81-4,2.22s-1.29,3.06-2.41,4.22a4.43,4.43,0,0,1-6.26,0l-.05,0c-1.55-1.81-.77-5.12,1.52-5.77.86-.23,1.95-.21,2.41-1,.8-1.35-1.48-3.08-.69-4.44.59-1.05,2.18-.57,3.34-.93s1.8-1.51,2.48-2.51,1.73-2,2.91-1.73a3.62,3.62,0,0,1,.12-2.06,1.26,1.26,0,0,1,1.64-.69h.1a2.1,2.1,0,0,0,1.11,2.75h0a6,6,0,0,0,3.3.24c1.12-.14,2.52-.55,2.61-1.66a3.32,3.32,0,0,1,0-1.09c.49-1.33,2.94.5,3.88-.56.55-.57-.06-1.55-.8-1.73a8.45,8.45,0,0,0-2.3.11c-.81,0-1.72-.38-1.76-1.15s.81-1.3.91-2c.15-1.28-2-1.61-2.76-.57s-.5,2.45-.27,3.72.35,2.75-.58,3.63c-.39.6-1.43.28-1.77-.35a5.15,5.15,0,0,1-.33-2.13,1.82,1.82,0,0,0-1.08-1.73,3.86,3.86,0,0,0-1.51.16c-2,.25-3.35-2.31-2.72-4.2s2.41-3.11,4.14-4.08c1.27-.7,2.85-1.36,4.12-.64.58.33,1,.89,1.6,1.24,1,.58,2.24.37,3.39.39a7.89,7.89,0,0,1,4.94,1.92c.51.47,1,1.24.59,1.8s-1.67.71-1.45,1.4a2.46,2.46,0,0,0,3-1.71l.06-.27a2.09,2.09,0,0,1,1.19,1.68,3.68,3.68,0,0,1,5.2.21l.19.23a5,5,0,0,0,1,1.29c.45.29,1.24.14,1.3-.39a1.08,1.08,0,0,0-.09-.5c-.27-.8-.55-1.53-.8-2.3,1-.56,2.31.32,3,1.28,2.67,3.56,4.56,1.42,8.31,2,2.54.38,3.65,2,5.09,4,4.38,6,10.17,11,14.16,17.3.42.66.8,1.34,1.16,2-.06-.16-.12-.33-.19-.5A68.49,68.49,0,0,0,260.68,193c-.49-.81-1-1.61-1.5-2.36-.32-.48-.65-1-1-1.43s-.86-1.2-1.3-1.8-.71-.94-1.07-1.39-.51-.64-.8-1-.57-.72-.89-1.07l-1-1.11a2.35,2.35,0,0,0-.33-.3c-.33-.39-.69-.77-1-1.14l-.1-.12-.29-.3c-.29-.32-.6-.62-.89-.93-.49-.5-1-1-1.5-1.48s-.86-.8-1.3-1.21-.8-.71-1.16-1-.81-.67-1.18-1-1-.81-1.46-1.2h0c-1.38-1.1-2.8-2.15-4.26-3.13-.36-.25-.71-.49-1.07-.72s-.74-.49-1.11-.71-.74-.47-1.11-.68l-1.12-.67c-.37-.22-.61-.36-.91-.51a4.31,4.31,0,0,0-.47-.26c-.65-.37-1.31-.72-2-1-.32-.17-.65-.34-1-.5s-.85-.42-1.27-.61l-.2-.1-1.17-.53-1.67-.7c-.64-.26-1.27-.53-1.92-.76s-1.43-.54-2.16-.8-1.47-.49-2.21-.72-1.47-.43-2.22-.64c-1.47-.4-3-.75-4.49-1.06h-.07c-.59-.11-1.17-.22-1.75-.31h-.11l-.81-.13c-1.07-.18-2.17-.33-3.27-.45a1.27,1.27,0,0,1-.39,0c-.32,0-.64-.06-1-.09-.72-.08-1.45-.13-2.19-.18s-1.53-.09-2.3-.11-1.61,0-2.42,0c-2.14,0-4.25.08-6.34.28a14.58,14.58,0,0,0-1.47.13l-1.54.18-1.52.22-1.52.25c-.43.07-.88.15-1.31.24-1.07.21-2.12.43-3.17.68-.49.11-1,.24-1.46.37l-1.46.4c-.8.23-1.61.48-2.37.73h0l-1.91.65h0c-.64.22-1.27.47-1.9.72h-.11c-.58.22-1.15.46-1.72.7s-1.42.61-2.11.93l-1.74.8-1.83.94h-.07c-.58.31-1.16.62-1.73,1s-1.16.67-1.74,1h0c-.55.33-1.08.66-1.61,1l-.6.39c-.58.37-1.12.74-1.68,1.13s-1.34,1-2,1.44-1.14.87-1.7,1.32a72.15,72.15,0,0,0-8.93,8.46c-1,1.07-1.88,2.16-2.76,3.28-.75,1-1.48,1.91-2.17,2.92s-1.23,1.75-1.81,2.65c.58-.9,1.19-1.78,1.81-2.65a1.66,1.66,0,0,0,.54-.06,8.51,8.51,0,0,0,3-.49,17.73,17.73,0,0,0,2.23-1.73c2-1.41,5.21-1.66,5.74-4a21.65,21.65,0,0,1,.26-2.41c.56-1.43,2.42-1.61,4-1.61.65,0,1.4.09,1.7.66a1.62,1.62,0,0,1-.06,1.31A12.36,12.36,0,0,1,153,186.9c-2,1.21-4.55,2.14-5.1,4.39.27.8,1.66.7,1.77,1.5.08.64-.73,1-1,1.54-.44.8.55,1.83,1.5,1.79a4.21,4.21,0,0,0,2.41-1.37c2.06-1.91,4.24-4,5-6.71.33-1.12.44-2.42,1.35-3.22a2.23,2.23,0,0,1,3.1.55,2.31,2.31,0,0,1,.28.54c.89-.5,2.29-.88,2.75.05a4.92,4.92,0,0,1,.2,1.07c.29,1.45,2.28,2.11,2.48,3.57.24,1.7-1.93,2.58-3.62,2.83l-4.6.74a4.06,4.06,0,0,0-1.91.61,1.46,1.46,0,0,0-.56,1.78,4.71,4.71,0,0,0,.8.81,2.44,2.44,0,0,1-1.56,3.95c-.62,0-1.22-.2-1.83-.22-1.82-.08-3.26,1.52-4.13,3.12s-1.51,3.43-3,4.52c-2.34,1.76-6.38,1.35-7.51,4a6.43,6.43,0,0,0,0,3.48,4.63,4.63,0,0,1-.43,3.42c-.67,1-2.41,1.17-2.92.1a2.68,2.68,0,0,1-.06-1.51c.27-1.69.53-3.37.8-5,.2-1.25.36-2.64-.38-3.67-1-1.43-3.34-1.3-4.68-.15a8.18,8.18,0,0,0-2.26,4.66,20.87,20.87,0,0,1-1.3,4.52h0c-.24,1.41-.43,2.84-.58,4.29s-.25,2.94-.3,4.44c.17-.15.37-.33.58-.54.71-.74,2.15-3.87,3.45-2.34a1.19,1.19,0,0,1,0,1.43c-.41.5-1.2.62-1.51,1.17s.15,1.48.77,1.92a6.68,6.68,0,0,1,1.79,1.33c.8,1.2,0,3,.84,4.22.7,1,2.17,1.11,3.43,1.25l.43.06a5.75,5.75,0,0,1,4.93-5.3c4.71-1.07,10.89,2.83,13.53,6.37,3,4,4.35,9.58,8.85,11.57,3.22,1.42,7.83.91,9.42,4.08,1.4,2.84-1.05,6-1.43,9.18-.24,2.08.45,4.14.61,6.23s-.47,4.52-2.37,5.39c-1.05.48-2.41.42-3.22,1.22-1.51,1.43-.27,4.38-1.78,5.81a7.8,7.8,0,0,1-1.92,1c-3.4,1.71-3.31,6.71-1.73,10.17,0,.13.11.24.17.37a71.77,71.77,0,0,0,70.51,1.78h0a69.46,69.46,0,0,0,6.35-3.83,70.81,70.81,0,0,0,8.92-7.09,69.75,69.75,0,0,0,5.45-5.69c1.21-1.38,2.34-2.83,3.43-4.3.56-.77,1.1-1.52,1.61-2.31a71.56,71.56,0,0,0,11.67-30.56c.21-1.61.38-3.22.5-4.9a4.14,4.14,0,0,1-2.85,1.49A4.7,4.7,0,0,1,264.25,233.4Z"/><path class="cls-1" d="M182.2,177.44c-1.42.85-2.18,2.46-3.27,3.7s-3.07,2.13-4.36,1.09a3,3,0,0,1-1-2.11,5.3,5.3,0,0,1,.8-3.29c.62-1,1.56-1.8,2.08-2.86s.42-2.61-.66-3.11c-.58-.27-1.3-.16-1.81-.54-.94-.68-.27-2.29.8-2.7a7.85,7.85,0,0,1,3.41,0c4.17.26,7.24-2.46,10.35-4.73,2.41-1.76,7.62-3.84,10.46-2,1.12.72,1.56,2.56.5,3.37-.47.37-1.12.45-1.57.81s-.6,1.27-.9,1.92c-.81,1.68-3.06,2.29-3.79,4-.44,1-.24,2.31-.93,3.22a3.91,3.91,0,0,1-2.33,1.16l-5.43,1.28A8.46,8.46,0,0,0,182.2,177.44Z"/><path class="cls-1" d="M230.71,265.8c-1.8,2.72-2.12,6.11-2.63,9.32s-1.35,6.64-3.82,8.76-7,2-8.38-1c-.74-1.61-.35-3.5-.8-5.22-.52-2.25-2.31-4-3.15-6.12a16.76,16.76,0,0,1-.81-5.8c-.32-10.73-2.94-21.93-10.24-29.76a7,7,0,0,0-3.22-2.24,4.07,4.07,0,0,0-4.2,1.44,14,14,0,0,1-1.61,2.42c-1.56,1.42-4.28.4-5.33-1.44s-.9-4.09-.72-6.2l.65-7.84a6.6,6.6,0,0,1,1.16-3.87c1.27-1.47,3.56-1.54,5.12-2.71,2-1.52,2.31-4.45,3.61-6.66s5.32-3.13,5.92-.65c4.27-9.14,13.67,4.43,19.3,3.41,1.61-.29,3.22-1.08,4.83-.84,2.89.4,4.39,3.59,5.38,6.34q2.41,6.87,4.9,13.68c.63,1.74,1.44,3.67,3.16,4.34,1.32.51,2.85.12,4.19.61,3.51,1.28,2.41,6.82-.46,9.27s-6.81,4-8.16,7.49c-1,2.64-.21,5.73-1.3,8.33C233.47,262.78,231.83,264.12,230.71,265.8Z"/><path class="cls-1" d="M244.08,268.79c-1.16.16-2.52-.42-3.4.36a3.79,3.79,0,0,0-.81,1.83,4,4,0,0,1-1.6,2.24,2.48,2.48,0,0,1-2.68-.05,1.81,1.81,0,0,1-.37-2.5,11.06,11.06,0,0,1,1-.81c1.54-1.44.49-4.14,1.65-5.86.69-1,1.77-2.05,2.53-3.08.58-.8.8-1.42,1.86-1.61C246.89,258.35,249,268.09,244.08,268.79Z"/><path class="cls-2" d="M136.94,249.31c-.23-2.06.46-4.12.49-6.2,0-1.43-.08-2.94-.11-4.39a19.33,19.33,0,0,1-3.64-.5,1.07,1.07,0,0,1-.67-.35,1.34,1.34,0,0,1-.15-.76c-.09-1.61-1.65-2.68-3-3.49a12.31,12.31,0,0,0-2.22-1.08v.5a71.2,71.2,0,0,0,4.61,22.76,68.11,68.11,0,0,0,4.38,9.41c.7,1.3,1.47,2.59,2.29,3.84a54.16,54.16,0,0,0,3.16,4.54c1.16,1.46,2.16,2.8,3.33,4.11a69.53,69.53,0,0,0,5.08,5.22c1.58,1.48,3.22,2.89,4.94,4.21-3.92-10.52-7.61-21.26-14.31-30.21C139.29,254.6,137.27,252.21,136.94,249.31Z"/><path class="cls-1" d="M127.59,229.14v1.29C127.59,230.08,127.58,229.57,127.59,229.14Z"/><g class="cls-3"><path class="cls-1" d="M159.38,290.06c.61.4,1.22.8,1.84,1.19l1.31.8c-.45-.26-.88-.52-1.31-.8C160.6,290.86,160,290.46,159.38,290.06Z"/></g><path class="cls-2" d="M243.71,245.1c2.83-2.41,4-8,.46-9.27-1.34-.49-2.87-.1-4.19-.61-1.72-.67-2.53-2.6-3.15-4.35q-2.42-6.85-4.91-13.67c-1-2.75-2.48-5.94-5.38-6.35-1.61-.23-3.22.56-4.83.85-5.63,1-15-12.56-19.3-3.41-.59-2.49-4.63-1.55-5.92.65s-1.57,5.13-3.61,6.66c-1.56,1.17-3.84,1.24-5.12,2.71a6.67,6.67,0,0,0-1.16,3.87L186,230c-.18,2.11-.32,4.36.72,6.19s3.77,2.87,5.33,1.44a13.87,13.87,0,0,0,1.61-2.41,4.08,4.08,0,0,1,4.2-1.45A7.09,7.09,0,0,1,201,236c7.3,7.86,9.92,19.06,10.24,29.75a17.1,17.1,0,0,0,.81,5.81c.84,2.14,2.63,3.87,3.15,6.11.41,1.72,0,3.61.81,5.22,1.36,3,5.9,3.08,8.37,1s3.33-5.54,3.83-8.76.8-6.6,2.63-9.32c1.11-1.68,2.76-3,3.54-4.89,1.09-2.6.29-5.69,1.3-8.33C236.9,249.1,240.88,247.54,243.71,245.1Z"/><g class="cls-3"><path class="cls-1" d="M127.64,227.45h0a2.54,2.54,0,0,0,0,.39h0A2.54,2.54,0,0,1,127.64,227.45Z"/></g><g class="cls-3"><path class="cls-1" d="M127.58,231.48v1.06h0C127.59,232.18,127.59,231.84,127.58,231.48Z"/></g><path class="cls-2" d="M137.45,235.94l-.43-.07c-1.27-.13-2.74-.2-3.43-1.25-.8-1.21,0-3-.84-4.21a6.55,6.55,0,0,0-1.8-1.34c-.61-.43-1.13-1.25-.76-1.91s1.1-.67,1.5-1.18a1.17,1.17,0,0,0,0-1.42c-1.29-1.54-2.73,1.61-3.45,2.33a7.41,7.41,0,0,1-.58.54h0v5.09a12,12,0,0,1,2.22,1.09c1.4.8,3,1.87,3,3.49a1.31,1.31,0,0,0,.16.75,1,1,0,0,0,.66.35,20.43,20.43,0,0,0,3.65.51"/><path class="cls-2" d="M137.32,238.72c0,1.45.13,3,.11,4.39,0,2.08-.72,4.14-.49,6.2.33,2.9,2.35,5.29,4.11,7.63,6.7,8.95,10.4,19.69,14.32,30.21h0c.72.58,1.46,1.12,2.21,1.65.6.43,1.19.81,1.8,1.26s1.21.8,1.83,1.19l1.31.8-.18-.37c-1.6-3.46-1.66-8.46,1.73-10.17a7.8,7.8,0,0,0,1.92-1c1.51-1.43.27-4.39,1.78-5.82.85-.8,2.18-.74,3.22-1.21,1.9-.88,2.51-3.31,2.36-5.4s-.84-4.15-.6-6.22c.38-3.16,2.83-6.35,1.42-9.19-1.6-3.17-6.18-2.65-9.41-4.08-4.53-2-5.92-7.6-8.85-11.56-2.65-3.55-8.85-7.44-13.53-6.37-3.41.8-4.57,2.81-4.93,5.3"/><path class="cls-2" d="M132.08,209.53c1.34-1.15,3.66-1.29,4.69.14.74,1,.57,2.41.38,3.68-.27,1.68-.53,3.36-.81,5a2.68,2.68,0,0,0,.07,1.51c.5,1.07,2.25.86,2.92-.09a4.68,4.68,0,0,0,.42-3.42,6.43,6.43,0,0,1,0-3.48c1.14-2.72,5.17-2.31,7.51-4,1.45-1.08,2.1-2.92,3-4.52s2.31-3.21,4.13-3.12c.61,0,1.21.25,1.83.23a2.44,2.44,0,0,0,1.56-4,4.33,4.33,0,0,1-.8-.8,1.49,1.49,0,0,1,.56-1.79,4.1,4.1,0,0,1,1.92-.61l4.6-.73c1.69-.26,3.86-1.14,3.62-2.83-.21-1.47-2.19-2.13-2.49-3.57a4.9,4.9,0,0,0-.19-1.07c-.47-.94-1.87-.56-2.76-.06a2.23,2.23,0,0,0-2.84-1.36,2.31,2.31,0,0,0-.54.28c-.91.75-1,2.07-1.34,3.21-.75,2.73-2.92,4.83-5,6.72a4.08,4.08,0,0,1-2.41,1.36c-.94,0-1.93-1-1.5-1.79.3-.57,1.11-.9,1-1.53-.11-.81-1.49-.74-1.77-1.51.55-2.24,3.13-3.18,5.1-4.38a12.38,12.38,0,0,0,5.22-6.44,1.62,1.62,0,0,0,.07-1.31c-.3-.57-1.06-.66-1.71-.66-1.52,0-3.42.18-4,1.61a16.31,16.31,0,0,0-.27,2.41c-.53,2.37-3.77,2.63-5.74,4a18.72,18.72,0,0,1-2.23,1.73,8.51,8.51,0,0,1-3,.49,2.05,2.05,0,0,0-.55,0c-.62.87-1.22,1.76-1.81,2.66s-1.13,1.81-1.67,2.74a70.47,70.47,0,0,0-6.25,14q-.84,2.55-1.48,5.18c-.42,1.75-.78,3.53-1.07,5.32a20.85,20.85,0,0,0,1.29-4.52A8.56,8.56,0,0,1,132.08,209.53Z"/><path class="cls-2" d="M192.29,174.18c.69-.89.49-2.17.93-3.22.73-1.71,3-2.32,3.79-4,.3-.65.38-1.44.91-1.92s1.09-.48,1.56-.8c1.06-.81.62-2.66-.5-3.37-2.82-1.81-8,.28-10.46,2-3.13,2.27-6.18,5-10.35,4.73a8.51,8.51,0,0,0-3.41,0c-1.07.39-1.74,2-.8,2.7.51.38,1.24.27,1.81.54,1.08.5,1.19,2,.66,3.11s-1.46,1.85-2.08,2.86a5.3,5.3,0,0,0-.8,3.29,2.94,2.94,0,0,0,1,2.11c1.3,1,3.27.16,4.36-1.09s1.85-2.85,3.27-3.7a8.9,8.9,0,0,1,2.34-.81l5.42-1.28A3.92,3.92,0,0,0,192.29,174.18Z"/><g class="cls-3"><path class="cls-1" d="M271.1,229.44c0-1,0-2.06-.09-3.07.05,1,.09,2,.09,3.07v1c0,1.61-.06,3.16-.15,4.73.09-1.61.15-3.14.15-4.73A8.34,8.34,0,0,0,271.1,229.44Z"/></g><g class="cls-3"><path class="cls-1" d="M266.61,205.36c.34.91.67,1.82,1,2.74C267.32,207.18,267,206.27,266.61,205.36Z"/></g><path class="cls-2" d="M271.1,229.44c0-1,0-2.06-.09-3.07s-.14-2-.24-3.05c-.08-.8-.17-1.61-.29-2.41s-.23-1.71-.37-2.55a72.91,72.91,0,0,0-1.68-7.45c-.27-.94-.55-1.87-.86-2.79s-.62-1.83-1-2.74h0c-.36-.67-.75-1.33-1.17-2-4-6.32-9.78-11.26-14.16-17.31-1.43-2-2.55-3.6-5.08-4-3.75-.58-5.63,1.56-8.31-2-.71-1-2-1.84-3-1.28.28.81.56,1.53.81,2.3a1,1,0,0,1,.08.5c0,.53-.85.69-1.3.39a4.48,4.48,0,0,1-1-1.29,3.69,3.69,0,0,0-5.17-.63,2.11,2.11,0,0,0-.23.19,2.07,2.07,0,0,0-1.19-1.68,2.45,2.45,0,0,1-2.82,2l-.27,0c-.22-.7,1-.81,1.46-1.41s-.08-1.33-.6-1.8a7.89,7.89,0,0,0-4.94-1.92c-1.15,0-2.41.2-3.38-.39-.58-.35-1-.91-1.61-1.24-1.26-.72-2.85-.06-4.12.64-1.74,1-3.53,2.18-4.14,4.08s.75,4.45,2.73,4.21a3.8,3.8,0,0,1,1.5-.17,1.84,1.84,0,0,1,1.09,1.74,5.1,5.1,0,0,0,.33,2.12c.33.63,1.37,1,1.76.35.94-.88.81-2.41.58-3.63s-.49-2.68.27-3.72,2.92-.71,2.77.57c-.09.75-1,1.3-.91,2.05s1,1.19,1.75,1.15a8.45,8.45,0,0,1,2.3-.11c.76.18,1.37,1.17.8,1.73-.94,1.06-3.39-.8-3.88.56a4.05,4.05,0,0,0,0,1.1c-.09,1.11-1.49,1.52-2.61,1.65a6,6,0,0,1-3.3-.24,2.1,2.1,0,0,1-1.14-2.74v0a1.28,1.28,0,0,0-1.7.56v.08a3.48,3.48,0,0,0-.12,2.07c-1.19-.26-2.24.74-2.92,1.73s-1.32,2.15-2.47,2.5-2.75-.12-3.35.93c-.8,1.36,1.49,3.09.69,4.44-.46.76-1.54.74-2.41,1-2.28.65-3.08,4-1.52,5.78a4.5,4.5,0,0,0,6.31,0c1.15-1.17,1.61-2.82,2.42-4.23s2.41-2.67,4-2.22a4.64,4.64,0,0,1,1.61,1l2.28,1.92a2.23,2.23,0,0,1,1,1.56c0,.64-.45.91-.61,1.38-.48,1.38,1.51,2.68,2.75,1.93a2.75,2.75,0,0,0,.54-3.85c-1.18-1.61-3.85-2.45-3.79-4.47,1.37-1.12,3.52,0,4.32,1.61s.8,3.43,1.48,5.06,2.54,3.07,4.11,2.28c-.41-1.42-.8-2.81-1.21-4.21,1-.74,2.15,1.43,3.34,1.07.73-.23.8-1.27.5-2a9.35,9.35,0,0,1-1-2,2.35,2.35,0,0,1,2.27-2.44,2.13,2.13,0,0,1,.44,0,3.56,3.56,0,0,1,2.66,2.94,7.36,7.36,0,0,0,.36,1.61c.53,1.08,1.88,1.41,3,1.87s2.28,1.61,1.81,2.69c-.21.49-.73.95-.54,1.45s.8.64.8,1.12c0,.31-.34.53-.63.66-.75.31-1.61.41-2.3.76a2.07,2.07,0,0,0-1.33,1.84c.09,1.13,1.45,1.68,2.08,2.62s.52,2.09.91,3.12a11.13,11.13,0,0,0,1.71,2.49c1.89,2.56,2.34,5.87,3.22,8.91.41,1.38,1.16,2.91,2.57,3.17a4.34,4.34,0,0,0,2.27-.44c2-.8,4.14-1.67,5.57-3.32s1.9-4.35.44-6a1.22,1.22,0,0,0-.69-.44,2.2,2.2,0,0,0-1.07.38,3.06,3.06,0,0,1-3.17-.68,8.88,8.88,0,0,1-1.89-2.84c-.56-1.12-1.11-2.26-1.68-3.39a2,2,0,0,1,2.41.23,13.26,13.26,0,0,1,1.66,2c1.69,2.11,4.48,3,7.16,3.37a6.27,6.27,0,0,1,2,.42c2,.91,2.59,3.88,4.71,4.52a12.47,12.47,0,0,1,1.81.41,3.32,3.32,0,0,1,1.51,2.25,34.42,34.42,0,0,0,1.33,5c.71,1.59,2.11,3,3.84,3a4.17,4.17,0,0,0,2.89-1.28h0c.08-1.61.14-3.14.14-4.73A1.88,1.88,0,0,0,271.1,229.44Z"/><path class="cls-2" d="M242.21,259.27c-1.07.21-1.28.81-1.87,1.61-.76,1-1.83,2.06-2.52,3.08-1.17,1.72-.12,4.41-1.65,5.86a11.06,11.06,0,0,0-1,.81,1.82,1.82,0,0,0,.37,2.5,2.48,2.48,0,0,0,2.68.05,4,4,0,0,0,1.61-2.24,3.65,3.65,0,0,1,.8-1.83c.88-.81,2.25-.2,3.4-.37C249,268.09,246.89,258.35,242.21,259.27Z"/><g class="cls-4"><path d="M243.71,245.1c2.83-2.41,4-8,.46-9.27-1.34-.49-2.87-.1-4.19-.61-1.72-.67-2.53-2.6-3.15-4.35q-2.42-6.85-4.91-13.67c-1-2.75-2.48-5.94-5.38-6.35-1.61-.23-3.22.56-4.83.85-5.63,1-15-12.56-19.3-3.41-.59-2.49-4.63-1.55-5.92.65s-1.57,5.13-3.61,6.66c-1.56,1.17-3.84,1.24-5.12,2.71a6.67,6.67,0,0,0-1.16,3.87L186,230c-.18,2.11-.32,4.36.72,6.19s3.77,2.87,5.33,1.44a13.87,13.87,0,0,0,1.61-2.41,4.08,4.08,0,0,1,4.2-1.45A7.09,7.09,0,0,1,201,236c7.3,7.86,9.92,19.06,10.24,29.75a17.1,17.1,0,0,0,.81,5.81c.84,2.14,2.63,3.87,3.15,6.11.41,1.72,0,3.61.81,5.22,1.36,3,5.9,3.08,8.37,1s3.33-5.54,3.83-8.76.8-6.6,2.63-9.32c1.11-1.68,2.76-3,3.54-4.89,1.09-2.6.29-5.69,1.3-8.33C236.9,249.1,240.88,247.54,243.71,245.1Z"/></g><g class="cls-4"><path d="M155.37,287.16h0c.72.58,1.46,1.13,2.21,1.66.6.43,1.19.8,1.8,1.25s1.21.81,1.83,1.19c.43.28.86.54,1.31.81l-.18-.37c-1.6-3.46-1.66-8.46,1.73-10.18a7.8,7.8,0,0,0,1.92-1c1.51-1.43.27-4.39,1.78-5.82.85-.8,2.18-.74,3.22-1.21,1.9-.88,2.51-3.31,2.36-5.4s-.84-4.15-.6-6.22c.38-3.16,2.83-6.35,1.42-9.19-1.6-3.17-6.18-2.65-9.41-4.08-4.53-2-5.92-7.6-8.85-11.56-2.65-3.55-8.85-7.44-13.53-6.37-3.41.8-4.57,2.81-4.93,5.3l-.43-.07c-1.27-.13-2.74-.2-3.43-1.25-.8-1.21,0-3-.84-4.21a6.55,6.55,0,0,0-1.8-1.34c-.61-.43-1.13-1.25-.76-1.91s1.1-.67,1.5-1.18a1.17,1.17,0,0,0,0-1.42c-1.29-1.54-2.73,1.61-3.45,2.33a7.41,7.41,0,0,1-.58.54h0V233a71.63,71.63,0,0,0,4.55,22.78,68.11,68.11,0,0,0,4.38,9.41c.7,1.3,1.47,2.59,2.29,3.84a54.16,54.16,0,0,0,3.16,4.54c1.16,1.46,2.16,2.79,3.33,4.11a69.53,69.53,0,0,0,5.08,5.22c1.58,1.48,3.22,2.89,4.94,4.21"/></g><g class="cls-4"><path d="M132.08,209.53c1.34-1.15,3.66-1.29,4.69.14.74,1,.57,2.41.38,3.68-.27,1.68-.53,3.36-.81,5a2.68,2.68,0,0,0,.07,1.51c.5,1.07,2.25.86,2.92-.09a4.68,4.68,0,0,0,.42-3.42,6.43,6.43,0,0,1,0-3.48c1.14-2.72,5.17-2.31,7.51-4,1.45-1.08,2.1-2.92,3-4.52s2.31-3.21,4.13-3.12c.61,0,1.21.25,1.83.23a2.44,2.44,0,0,0,1.56-4,4.33,4.33,0,0,1-.8-.8,1.49,1.49,0,0,1,.56-1.79,4.1,4.1,0,0,1,1.92-.61l4.6-.73c1.69-.26,3.86-1.14,3.62-2.83-.21-1.47-2.19-2.13-2.49-3.57a4.9,4.9,0,0,0-.19-1.07c-.47-.94-1.87-.56-2.76-.06a2.23,2.23,0,0,0-2.84-1.36,2.31,2.31,0,0,0-.54.28c-.91.75-1,2.07-1.34,3.21-.75,2.73-2.92,4.83-5,6.72a4.08,4.08,0,0,1-2.41,1.36c-.94,0-1.93-1-1.5-1.79.3-.57,1.11-.9,1-1.53-.11-.81-1.49-.74-1.77-1.51.55-2.24,3.13-3.18,5.1-4.38a12.38,12.38,0,0,0,5.22-6.44,1.62,1.62,0,0,0,.07-1.31c-.3-.57-1.06-.66-1.71-.66-1.52,0-3.42.18-4,1.61a16.31,16.31,0,0,0-.27,2.41c-.53,2.37-3.77,2.63-5.74,4a18.72,18.72,0,0,1-2.23,1.73,8.51,8.51,0,0,1-3,.49,2.05,2.05,0,0,0-.55,0c-.62.87-1.22,1.76-1.81,2.66s-1.13,1.81-1.67,2.74a70.47,70.47,0,0,0-6.25,14q-.84,2.55-1.48,5.18c-.42,1.75-.78,3.53-1.07,5.32a20.85,20.85,0,0,0,1.29-4.52A8.56,8.56,0,0,1,132.08,209.53Z"/></g><g class="cls-4"><path d="M192.29,174.18c.69-.89.49-2.17.93-3.22.73-1.71,3-2.32,3.79-4,.3-.65.38-1.44.91-1.92s1.09-.48,1.56-.8c1.06-.81.62-2.66-.5-3.37-2.82-1.81-8,.28-10.46,2-3.13,2.27-6.18,5-10.35,4.73a8.51,8.51,0,0,0-3.41,0c-1.07.39-1.74,2-.8,2.7.51.38,1.24.27,1.81.54,1.08.5,1.19,2,.66,3.11s-1.46,1.85-2.08,2.86a5.3,5.3,0,0,0-.8,3.29,2.94,2.94,0,0,0,1,2.11c1.3,1,3.27.16,4.36-1.09s1.85-2.85,3.27-3.7a8.9,8.9,0,0,1,2.34-.81l5.42-1.28A3.92,3.92,0,0,0,192.29,174.18Z"/></g><g class="cls-4"><path d="M271.1,229.44c0-1,0-2.06-.09-3.07s-.14-2-.24-3.05c-.08-.8-.17-1.61-.29-2.41s-.23-1.71-.37-2.55a72.91,72.91,0,0,0-1.68-7.45c-.27-.94-.55-1.87-.86-2.79s-.62-1.83-1-2.74h0c-.36-.67-.75-1.33-1.17-2-4-6.32-9.78-11.26-14.16-17.31-1.43-2-2.55-3.6-5.08-4-3.75-.58-5.63,1.56-8.31-2-.71-1-2-1.84-3-1.28.28.81.56,1.53.81,2.3a1,1,0,0,1,.08.5c0,.53-.85.69-1.3.39a4.48,4.48,0,0,1-1-1.29,3.69,3.69,0,0,0-5.17-.63,2.11,2.11,0,0,0-.23.19,2.07,2.07,0,0,0-1.19-1.68,2.45,2.45,0,0,1-2.82,2l-.27,0c-.22-.7,1-.81,1.46-1.41s-.08-1.33-.6-1.8a7.89,7.89,0,0,0-4.94-1.92c-1.15,0-2.41.2-3.38-.39-.58-.35-1-.91-1.61-1.24-1.26-.72-2.85-.06-4.12.64-1.74,1-3.53,2.18-4.14,4.08s.75,4.45,2.73,4.21a3.8,3.8,0,0,1,1.5-.17,1.84,1.84,0,0,1,1.09,1.74,5.1,5.1,0,0,0,.33,2.12c.33.63,1.37,1,1.76.35.94-.88.81-2.41.58-3.63s-.49-2.68.27-3.72,2.92-.71,2.77.57c-.09.75-1,1.3-.91,2.05s1,1.19,1.75,1.15a8.45,8.45,0,0,1,2.3-.11c.76.18,1.37,1.17.8,1.73-.94,1.06-3.39-.8-3.88.56a4.05,4.05,0,0,0,0,1.1c-.09,1.11-1.49,1.52-2.61,1.65a6,6,0,0,1-3.3-.24,2.1,2.1,0,0,1-1.14-2.74v0a1.28,1.28,0,0,0-1.7.56v.08a3.48,3.48,0,0,0-.12,2.07c-1.19-.26-2.24.74-2.92,1.73s-1.32,2.15-2.47,2.5-2.75-.12-3.35.93c-.8,1.36,1.49,3.09.69,4.44-.46.76-1.54.74-2.41,1-2.28.65-3.08,4-1.52,5.78a4.5,4.5,0,0,0,6.31,0c1.15-1.17,1.61-2.82,2.42-4.23s2.41-2.67,4-2.22a4.64,4.64,0,0,1,1.61,1l2.28,1.92a2.23,2.23,0,0,1,1,1.56c0,.64-.45.91-.61,1.38-.48,1.38,1.51,2.68,2.75,1.93a2.75,2.75,0,0,0,.54-3.85c-1.18-1.61-3.85-2.45-3.79-4.47,1.37-1.12,3.52,0,4.32,1.61s.8,3.43,1.48,5.06,2.54,3.07,4.11,2.28c-.41-1.42-.8-2.81-1.21-4.21,1-.74,2.15,1.43,3.34,1.07.73-.23.8-1.27.5-2a9.35,9.35,0,0,1-1-2,2.35,2.35,0,0,1,2.27-2.44,2.13,2.13,0,0,1,.44,0,3.56,3.56,0,0,1,2.66,2.94,7.36,7.36,0,0,0,.36,1.61c.53,1.08,1.88,1.41,3,1.87s2.28,1.61,1.81,2.69c-.21.49-.73.95-.54,1.45s.8.64.8,1.12c0,.31-.34.53-.63.66-.75.31-1.61.41-2.3.76a2.07,2.07,0,0,0-1.33,1.84c.09,1.13,1.45,1.68,2.08,2.62s.52,2.09.91,3.12a11.13,11.13,0,0,0,1.71,2.49c1.89,2.56,2.34,5.87,3.22,8.91.41,1.38,1.16,2.91,2.57,3.17a4.34,4.34,0,0,0,2.27-.44c2-.8,4.14-1.67,5.57-3.32s1.9-4.35.44-6a1.22,1.22,0,0,0-.69-.44,2.2,2.2,0,0,0-1.07.38,3.06,3.06,0,0,1-3.17-.68,8.88,8.88,0,0,1-1.89-2.84c-.56-1.12-1.11-2.26-1.68-3.39a2,2,0,0,1,2.41.23,13.26,13.26,0,0,1,1.66,2c1.69,2.11,4.48,3,7.16,3.37a6.27,6.27,0,0,1,2,.42c2,.91,2.59,3.88,4.71,4.52a12.47,12.47,0,0,1,1.81.41,3.32,3.32,0,0,1,1.51,2.25,34.42,34.42,0,0,0,1.33,5c.71,1.59,2.11,3,3.84,3a4.17,4.17,0,0,0,2.89-1.28h0c.08-1.61.14-3.14.14-4.73A1.88,1.88,0,0,0,271.1,229.44Z"/></g><g class="cls-4"><path d="M242.21,259.27c-1.07.21-1.28.81-1.87,1.61-.76,1-1.83,2.06-2.52,3.08-1.17,1.72-.12,4.41-1.65,5.86a11.06,11.06,0,0,0-1,.81,1.82,1.82,0,0,0,.37,2.5,2.48,2.48,0,0,0,2.68.05,4,4,0,0,0,1.61-2.24,3.65,3.65,0,0,1,.8-1.83c.88-.81,2.25-.2,3.4-.37C249,268.09,246.89,258.35,242.21,259.27Z"/></g></g><g id="freepik--online-elements--inject-2"><path class="cls-2" d="M281,204.85c.06.1-.27.43-.74.73s-.89.47-.95.38.26-.43.73-.73S281,204.76,281,204.85Z"/><path class="cls-2" d="M287.79,200.48c.07.1-.64.67-1.61,1.27a5,5,0,0,1-1.81.92c-.06-.11.65-.67,1.61-1.27A4.93,4.93,0,0,1,287.79,200.48Z"/><path class="cls-2" d="M294.6,196.15c.07.1-.65.66-1.6,1.26a5.17,5.17,0,0,1-1.82.9c-.07-.1.65-.66,1.61-1.26A4.89,4.89,0,0,1,294.6,196.15Z"/><path class="cls-2" d="M301.44,191.86c.06.1-.65.66-1.61,1.24a4.64,4.64,0,0,1-1.82.9c-.06-.1.66-.65,1.61-1.25A5.15,5.15,0,0,1,301.44,191.86Z"/><path class="cls-2" d="M163.43,150.39c.1,0,.36.34.58.85s.29,1,.18,1-.36-.34-.58-.85S163.32,150.43,163.43,150.39Z"/><path class="cls-2" d="M160.16,142.49a6.23,6.23,0,0,1,1,1.91,5.53,5.53,0,0,1,.62,2.06,5.68,5.68,0,0,1-1-1.9A5.58,5.58,0,0,1,160.16,142.49Z"/><path class="cls-2" d="M156.88,134.54a5.68,5.68,0,0,1,1,1.9,5.53,5.53,0,0,1,.62,2.06,11.23,11.23,0,0,1-1.61-4Z"/><path class="cls-2" d="M153.61,126.62a11.48,11.48,0,0,1,1.63,4,5.34,5.34,0,0,1-1-1.9A5.74,5.74,0,0,1,153.61,126.62Z"/><path class="cls-2" d="M112.27,262.89a9.88,9.88,0,0,1,4-.92,5.49,5.49,0,0,1-2,.66A5.2,5.2,0,0,1,112.27,262.89Z"/><path class="cls-2" d="M104.31,264.75a5.1,5.1,0,0,1,1.94-.67,5.41,5.41,0,0,1,2-.27,10.28,10.28,0,0,1-4,.94Z"/><path class="cls-2" d="M96.33,266.6a5,5,0,0,1,2-.67,5.2,5.2,0,0,1,2-.26,5.2,5.2,0,0,1-2,.67A5.29,5.29,0,0,1,96.33,266.6Z"/><path class="cls-2" d="M115.35,191.35a5.91,5.91,0,0,1-1.78-.68,5,5,0,0,1-1.54-.93,5.7,5.7,0,0,1,1.78.7A4.62,4.62,0,0,1,115.35,191.35Z"/><path class="cls-2" d="M121.41,194.18c0,.11-.72-.11-1.51-.49s-1.39-.8-1.34-.88a3.34,3.34,0,0,1,1.51.5C120.86,193.7,121.46,194.08,121.41,194.18Z"/><path class="cls-2" d="M286.23,247.05a6.94,6.94,0,0,1-3.19-.92A6.94,6.94,0,0,1,286.23,247.05Z"/><path class="cls-2" d="M294.79,248.89a5,5,0,0,1-2-.26,5,5,0,0,1-1.9-.66,5.2,5.2,0,0,1,2,.25A5,5,0,0,1,294.79,248.89Z"/><path class="cls-2" d="M302.62,250.72a9.82,9.82,0,0,1-3.92-.91A9.82,9.82,0,0,1,302.62,250.72Z"/><path class="cls-2" d="M262.32,292.08c-.09.07-.74-.56-1.45-1.41a5,5,0,0,1-1.13-1.68c.09-.07.74.55,1.45,1.41A5,5,0,0,1,262.32,292.08Z"/><path class="cls-2" d="M267.56,298.17c-.09.08-.75-.54-1.47-1.38a5.18,5.18,0,0,1-1.16-1.66,5.56,5.56,0,0,1,1.47,1.39C267.12,297.35,267.65,298.1,267.56,298.17Z"/><path class="cls-2" d="M272.91,304.19c-.09.07-.76-.53-1.5-1.36a5.39,5.39,0,0,1-1.19-1.61,5.41,5.41,0,0,1,1.5,1.36C272.46,303.41,273,304.11,272.91,304.19Z"/><path class="cls-2" d="M278.35,310.1c-.08.08-.76-.51-1.52-1.33a5,5,0,0,1-1.21-1.61c.08-.08.76.52,1.52,1.33S278.44,310,278.35,310.1Z"/><path class="cls-2" d="M283.91,315.92c-.09.08-.81-.5-1.55-1.3S281,313.1,281.12,313s.8.51,1.54,1.3S284,315.84,283.91,315.92Z"/><path class="cls-2" d="M289.55,321.64c-.08.08-.8-.49-1.56-1.27s-1.36-1.5-1.28-1.61.81.49,1.57,1.28S289.63,321.56,289.55,321.64Z"/><path class="cls-2" d="M295.3,327.27c-.08.08-.8-.48-1.6-1.25s-1.39-1.47-1.31-1.56.81.49,1.61,1.26S295.38,327.18,295.3,327.27Z"/><rect class="cls-5" x="302.4" y="322.16" width="21.31" height="31.62" transform="matrix(0.16, -0.99, 0.99, 0.16, -69.41, 594.77)"/><path class="cls-6" d="M327,351h0L295.78,346h0l3.32-21h0l31.26,4.91h0ZM295.85,346l31.24,4.9,3.3-21L299.15,325Z"/><path class="cls-6" d="M330.39,330.15a1.72,1.72,0,0,1-.33.24l-1,.62-3.64,2.26-12.19,7.37-.1.07-.08-.09-.19-.21-9.71-10.68-2.92-3.22-.8-.9a.2.2,0,0,1-.19-.22h0a.21.21,0,0,1,.21-.21.22.22,0,0,1,.21.21.21.21,0,0,1-.18.18l.8.85,3,3.22,9.78,10.62.19.21h-.18l12.23-7.3L329,331l1-.58A3.27,3.27,0,0,1,330.39,330.15Z"/><path class="cls-6" d="M295.85,346.3c-.06,0,2.75-2.57,6.26-5.63s6.39-5.46,6.43-5.4-2.75,2.57-6.27,5.63S295.9,346.36,295.85,346.3Z"/><path class="cls-6" d="M319,336.64c.07,0,1.93,3.22,4.18,7.24s4,7.31,3.92,7.35-1.94-3.21-4.18-7.24S318.91,336.68,319,336.64Z"/><path class="cls-5" d="M91.58,194.54h0a14.33,14.33,0,0,1-14.31-14.3h0a14.31,14.31,0,0,1,14.31-14.31h0a14.3,14.3,0,0,1,14.31,14.31h0A14.32,14.32,0,0,1,91.58,194.54Z"/><path class="cls-7" d="M84,185a8.89,8.89,0,0,0,13.67-7.9,6.45,6.45,0,0,0,1.56-1.61,6.6,6.6,0,0,1-1.8.5,3.11,3.11,0,0,0,1.37-1.77,5.92,5.92,0,0,1-2,.76,3.13,3.13,0,0,0-5.32,2.86A8.93,8.93,0,0,1,85,174.54a3.14,3.14,0,0,0,1,4.17,3.21,3.21,0,0,1-1.42-.39,3.16,3.16,0,0,0,2.51,3.11,3.3,3.3,0,0,1-1.4,0,3.11,3.11,0,0,0,2.91,2.17A6.25,6.25,0,0,1,84,185Z"/><path class="cls-8" d="M316.53,265.09h0a8.53,8.53,0,0,1-8.53-8.53h0a8.53,8.53,0,0,1,8.53-8.53h0a8.52,8.52,0,0,1,8.54,8.5v0h0a8.52,8.52,0,0,1-8.53,8.53Z"/><path class="cls-7" d="M313.8,257.36a.21.21,0,0,0,.27-.08h0a.06.06,0,0,0,0-.06,4.05,4.05,0,0,1,.12-.47.34.34,0,0,0-.09-.33,1.67,1.67,0,0,1-.37-1.14,2.75,2.75,0,0,1,2.67-2.79h.19a2.18,2.18,0,0,1,2.4,1.93v.31c0,1.68-.74,3.09-1.84,3.09a.9.9,0,0,1-.95-.84v0a1.13,1.13,0,0,1,0-.26,10.46,10.46,0,0,0,.52-2.07.81.81,0,0,0-.74-.87h-.06c-.63,0-1.13.65-1.13,1.51a2.39,2.39,0,0,0,.18.92l-.74,3.17a6.31,6.31,0,0,0,0,2.21.07.07,0,0,0,.09.05h0a0,0,0,0,0,0-.05,5.83,5.83,0,0,0,1.06-1.9c.07-.26.41-1.61.41-1.61a1.66,1.66,0,0,0,1.42.73c1.87,0,3.14-1.71,3.14-4a3.49,3.49,0,0,0-3.62-3.34h-.07a3.86,3.86,0,0,0-4.15,3.53.45.45,0,0,1,0,.11A2.26,2.26,0,0,0,313.8,257.36Z"/><path class="cls-9" d="M345.28,413.06h0a15.42,15.42,0,0,1-15.43-15.42h0a15.43,15.43,0,0,1,15.43-15.43h0a15.44,15.44,0,0,1,15.44,15.42h0A15.44,15.44,0,0,1,345.3,413.1h0Z"/><path class="cls-10" d="M353.75,397.19a8.32,8.32,0,0,0-16.62-.15v.37a8.16,8.16,0,0,0,1.19,4.25l-1.49,4.43,4.6-1.46a8.35,8.35,0,0,0,12.31-7.24h0Zm-8.31,7.15a7,7,0,0,1-3.84-1.15l-2.69.84.87-2.57a6.9,6.9,0,0,1-1.33-4.06v-.68a7,7,0,0,1,13.92.13v.55a7,7,0,0,1-6.93,6.94Z"/><path class="cls-10" d="M349.25,399.07c-.21-.1-1.21-.59-1.4-.66s-.32-.1-.45.1-.53.66-.65.8-.24.15-.44.05a5.57,5.57,0,0,1-2.74-2.39c-.11-.21,0-.31.09-.41l.3-.36.08-.1.13-.24a.36.36,0,0,0,0-.35c-.06-.1-.46-1.09-.63-1.5s-.34-.33-.46-.33h-.39a.73.73,0,0,0-.55.25,2.29,2.29,0,0,0-.71,1.69,2.26,2.26,0,0,0,.11.69,4.33,4.33,0,0,0,.72,1.4,8.31,8.31,0,0,0,3.49,3.05c2.06.81,2.06.54,2.41.51a2,2,0,0,0,1.38-1,1.72,1.72,0,0,0,.12-.95C349.58,399.21,349.45,399.21,349.25,399.07Z"/><path class="cls-5" d="M321.68,102.8h0a9.33,9.33,0,0,1-9.33-9.33h0a9.33,9.33,0,0,1,9.33-9.33h0A9.33,9.33,0,0,1,331,93.47h0A9.33,9.33,0,0,1,321.68,102.8Z"/><path class="cls-7" d="M321.68,89.31h2.07a2.74,2.74,0,0,1,.94.17,1.76,1.76,0,0,1,1,1,2.85,2.85,0,0,1,.18,1v4.06a2.85,2.85,0,0,1-.18,1,1.76,1.76,0,0,1-1,1,3,3,0,0,1-.94.18h-4.14a3.13,3.13,0,0,1-.95-.18,1.76,1.76,0,0,1-1-1,3.39,3.39,0,0,1-.18-1V91.41a3.1,3.1,0,0,1,.18-1,1.73,1.73,0,0,1,1-1,2.84,2.84,0,0,1,.95-.17h2.07m0-.93h-2.11a4,4,0,0,0-1.23.23,2.65,2.65,0,0,0-1.49,1.5,3.8,3.8,0,0,0-.24,1.25V95.5a3.3,3.3,0,0,0,.24,1.24,2.59,2.59,0,0,0,1.49,1.5,3.79,3.79,0,0,0,1.24.24h4.22a3.69,3.69,0,0,0,1.24-.24,2.64,2.64,0,0,0,1.5-1.5,4.06,4.06,0,0,0,.23-1.24V91.36a4.06,4.06,0,0,0-.23-1.25,2.76,2.76,0,0,0-1.5-1.5,4.06,4.06,0,0,0-1.24-.23h-2.11"/><path class="cls-7" d="M321.68,90.84a2.63,2.63,0,1,0,2.6,2.66h0a2.63,2.63,0,0,0-2.63-2.63h0m0,4.34a1.71,1.71,0,1,1,0-3.42,1.7,1.7,0,0,1,1.72,1.68h0a1.71,1.71,0,0,1-1.71,1.71"/><path class="cls-7" d="M325,90.84a.64.64,0,0,1-.62.63.62.62,0,1,1,0-1.24h0a.61.61,0,0,1,.62.6h0"/><path class="cls-7" d="M25.61,262.56h1.9v-4.77h1.33l.14-1.61H27.51v-.91c0-.37.08-.52.44-.52h1v-1.66h-1.3c-1.41,0-2,.63-2,1.82v1.27h-1v1.61h1Z"/><path class="cls-2" d="M262.42,107.26a2.22,2.22,0,0,0,1-.67,2.14,2.14,0,0,0,.48-1.35,3.23,3.23,0,0,0-.16-.92l-.26-1c-.74-3-1.81-7.31-3.13-12.63-.32-1.33-.67-2.73-1-4.18-.19-.73-.36-1.47-.55-2.23a5.92,5.92,0,0,0-.32-1.09,2,2,0,0,0-.73-.81,1.72,1.72,0,0,0-1.06-.26,12,12,0,0,0-1.19.27L253,83l-5.13,1.33-22.86,5.91a1.92,1.92,0,0,0-1.37,2.18c.23,1,.47,2,.71,3l1.42,5.85,2.67,11.08.31,1.31a2.09,2.09,0,0,0,.58,1.07,1.78,1.78,0,0,0,1.06.5,3.1,3.1,0,0,0,1.21-.18l4.83-1.24,8.7-2.22,12.61-3.22,3.43-.85.9-.21.3-.06a1,1,0,0,1-.3.1l-.88.25-3.39,1-12.57,3.31-8.7,2.26-4.82,1.27a3.58,3.58,0,0,1-1.34.2,2.29,2.29,0,0,1-1.28-.61,2.4,2.4,0,0,1-.67-1.24c-.11-.44-.21-.87-.33-1.31l-2.69-11.07L224,95.58c-.24-1-.49-2-.73-3A2.34,2.34,0,0,1,225,90l22.85-6L253,82.65l2.46-.63a10.58,10.58,0,0,1,1.24-.28A2.2,2.2,0,0,1,258.77,83a6.81,6.81,0,0,1,.34,1.17c.18.75.35,1.49.53,2.23.35,1.45.68,2.85,1,4.19,1.26,5.32,2.28,9.65,3,12.65l.25,1.06a3.06,3.06,0,0,1,.14,1,2.11,2.11,0,0,1-.55,1.39,2,2,0,0,1-.75.53A1.55,1.55,0,0,1,262.42,107.26Z"/><polygon class="cls-2" points="244.47 96.16 249.37 97.64 245.7 101.29 242.02 104.95 240.79 99.81 239.57 94.67 244.47 96.16"/><path class="cls-2" d="M92.69,292V277.87c0-9,0-22-.06-37.74l.11.12H15.31l.14-.14V292l-.13-.12,55.79.06h0L15.29,292h-.12V239.91H92.86V240c0,15.82,0,28.79-.06,37.82V291A4.79,4.79,0,0,1,92.69,292Z"/><path class="cls-2" d="M15.25,244.76c0-.08,17.33-.14,38.72-.14s38.71.06,38.71.14-17.32.14-38.71.14S15.25,244.83,15.25,244.76Z"/><g class="cls-11"><circle class="cls-2" cx="17.69" cy="242.42" r="0.62"/></g><g class="cls-11"><path class="cls-2" d="M20.44,242.42a.62.62,0,1,1-1.24,0h0a.62.62,0,1,1,1.24,0Z"/></g><g class="cls-11"><path class="cls-2" d="M22.54,242.42a.63.63,0,0,1-.7.55.64.64,0,0,1-.55-.55.63.63,0,0,1,.7-.55A.64.64,0,0,1,22.54,242.42Z"/></g><g class="cls-11"><rect class="cls-2" x="21.92" y="250.17" width="20.66" height="20.66"/></g><path class="cls-2" d="M82.07,256c0,.08-8,.14-18,.14s-18-.06-18-.14,8-.14,18-.14S82.07,256,82.07,256Z"/><path class="cls-2" d="M82.07,259.85c0,.07-8,.13-18,.13s-18-.06-18-.13,8-.14,18-.14S82.07,259.76,82.07,259.85Z"/><path class="cls-2" d="M82.07,263.68c0,.08-8,.14-18,.14s-18-.06-18-.14,8-.14,18-.14S82.07,263.61,82.07,263.68Z"/><path class="cls-2" d="M67.36,267.52a4.74,4.74,0,0,1-.84.05l-2.28.05h-15l-2.28-.05a4.74,4.74,0,0,1-.84-.05,5.93,5.93,0,0,1,.84-.06H66.52A5.93,5.93,0,0,1,67.36,267.52Z"/><g class="cls-11"><rect class="cls-2" x="23.21" y="277.79" width="9.71" height="9.71"/></g><g class="cls-11"><rect class="cls-2" x="40.81" y="277.79" width="9.71" height="9.71"/></g><g class="cls-11"><rect class="cls-2" x="58.42" y="277.79" width="9.71" height="9.71"/></g><g class="cls-11"><rect class="cls-2" x="76.02" y="277.79" width="9.71" height="9.71"/></g></g><g id="freepik--character-1--inject-2"><path class="cls-1" d="M151.65,117.94V113.1c0-3.16.06-7.79.1-13.69.1-11.79.23-28.66.39-49l.15.11H45.47l.17-.13c-.24,24.43-.47,47.5-.67,67.54l-.16-.13,77.19.07h.1L44.86,118H44.7v-.12c.19-20.06.4-43.1.63-67.54v-.13H152.47v.11c-.22,20.38-.41,37.27-.55,49.08-.07,5.89-.12,10.51-.16,13.66,0,1.54,0,2.77-.06,3.6S151.65,117.94,151.65,117.94Z"/><path class="cls-1" d="M147.26,53.66c0,.07-23,.13-51.28.13s-51.27-.06-51.27-.13,22.95-.13,51.27-.13S147.26,53.57,147.26,53.66Z"/><path class="cls-1" d="M49,51.9a.69.69,0,1,1-.7-.68h0a.69.69,0,0,1,.68.67Z"/><path class="cls-1" d="M51.41,51.9a.67.67,0,0,1-.67.69h0a.69.69,0,1,1,0-1.38.7.7,0,0,1,.7.66Z"/><path class="cls-1" d="M53.84,51.9a.69.69,0,1,1-.7-.68h0a.68.68,0,0,1,.68.66h0Z"/><rect class="cls-12" x="51.69" y="60.85" width="14.64" height="12.59"/><path class="cls-13" d="M86.08,63.07l11.81-.94c.07-1.37,0-6.71,0-6.71s4.9-.76,5-5.67-.8-16.18-.8-16.18h0A17,17,0,0,0,85,35.73l-.73.55Z"/><path class="cls-14" d="M97.87,55.35a11.34,11.34,0,0,1-6.4-1.81s1.52,3.53,6.42,3.09Z"/><path class="cls-13" d="M84.77,41.38c-.08,0-3.37-1-3.26,2.36A2.51,2.51,0,0,0,85,46.2C85,46.09,84.77,41.38,84.77,41.38Z"/><path class="cls-14" d="M83.9,45l-.16.09a.54.54,0,0,1-.43,0,1.4,1.4,0,0,1-.71-1.28,1.9,1.9,0,0,1,.13-.85.71.71,0,0,1,.42-.46.31.31,0,0,1,.36.15.15.15,0,0,1,0,.16s.07-.06,0-.19a.46.46,0,0,0-.13-.21.49.49,0,0,0-.33-.07.84.84,0,0,0-.6.54,2,2,0,0,0-.17.94,1.52,1.52,0,0,0,.9,1.42.67.67,0,0,0,.53-.11C83.89,45,83.91,45,83.9,45Z"/><path class="cls-1" d="M100.26,41.18a.7.7,0,0,1-.68.7.63.63,0,0,1-.71-.54v0a.11.11,0,0,1,0-.08.69.69,0,0,1,.67-.71h0a.68.68,0,0,1,.73.61h0Z"/><path class="cls-1" d="M101.11,40.48c-.09.09-.64-.31-1.37-.3s-1.28.37-1.39.29.05-.22.29-.39a2,2,0,0,1,1.11-.34,1.86,1.86,0,0,1,1.09.35C101.07,40.27,101.15,40.43,101.11,40.48Z"/><path class="cls-1" d="M92.87,41.44a.71.71,0,0,1-.68.71.64.64,0,0,1-.71-.56.14.14,0,0,1,0-.09.71.71,0,0,1,.68-.71.67.67,0,0,1,.72.62h0Z"/><path class="cls-1" d="M93.69,40.61c-.08.1-.64-.3-1.37-.29s-1.28.38-1.39.28,0-.21.29-.38a2,2,0,0,1,1.11-.34,1.89,1.89,0,0,1,1.1.35C93.66,40.41,93.74,40.57,93.69,40.61Z"/><path class="cls-1" d="M96.47,46.21A5.37,5.37,0,0,1,97.66,46c.19,0,.37-.06.41-.19a1,1,0,0,0-.13-.57l-.57-1.47a26,26,0,0,1-1.29-3.85,23.1,23.1,0,0,1,1.59,3.73c.19.51.38,1,.55,1.48a1.09,1.09,0,0,1,.1.75.5.5,0,0,1-.32.28.92.92,0,0,1-.33,0A4.82,4.82,0,0,1,96.47,46.21Z"/><path class="cls-1" d="M94.22,46.73c.13,0,.13.82.83,1.39s1.57.5,1.58.64-.19.16-.57.17a2,2,0,0,1-1.28-.45,1.77,1.77,0,0,1-.64-1.18C94.06,46.93,94.15,46.72,94.22,46.73Z"/><path class="cls-1" d="M93.89,37.66c-.08.2-.83.11-1.71.21s-1.61.35-1.71.15.07-.28.36-.48a2.77,2.77,0,0,1,1.28-.45,2.92,2.92,0,0,1,1.34.16C93.76,37.4,93.92,37.53,93.89,37.66Z"/><path class="cls-1" d="M100.83,38.29c-.13.17-.64,0-1.28,0s-1.16.12-1.29-.06,0-.27.27-.43a1.84,1.84,0,0,1,2.06.07C100.82,38,100.89,38.21,100.83,38.29Z"/><path class="cls-1" d="M104.47,30.48a1.85,1.85,0,0,0-.64-1.62,1.3,1.3,0,0,0-1.67.12A1.5,1.5,0,0,0,101,27.2h-.15a9.12,9.12,0,0,0-2.26.76,3.54,3.54,0,0,1-2.29-.26c-.73-.3-1.41-.7-2.14-1a6.28,6.28,0,0,0-8,3.69,2.77,2.77,0,0,0-3,1.12,4.62,4.62,0,0,0-.72,3.21,10.47,10.47,0,0,0,.57,2.2v.19c0,2.7.35,5.87,1.5,5.89,2,0,1.53-3.75,1.53-3.75,2.46-1,1.55-4.65,2.16-5.2s1.93-1.87,7.06.77a10,10,0,0,0,6.11.64h.18a4.82,4.82,0,0,0,1.32-.56A2.67,2.67,0,0,0,104,33.69a1.43,1.43,0,0,0-.28-1.54A3.16,3.16,0,0,0,104.47,30.48Z"/><path class="cls-2" d="M80.4,61.23a33,33,0,0,1,5.21-1h0a20.93,20.93,0,0,0,12.58,0c.52.06,1.23.12,2.12.23,5.47.64,7.56,1.8,11.49,5.66l-.43,22.12s1.32,25.17,1.22,29.25H75.24V95.76l-12.3,4.49,1.13-6.45s5.5-21.38,6.36-24.26C71.47,66,75.19,62.23,80.4,61.23Z"/><path class="cls-2" d="M68.57,94.16,87,91.54l3.5,6.27-17.13,7.71a7.59,7.59,0,0,1-3,.64h0a7.38,7.38,0,0,1-6.88-4.59l-.56-1.35Z"/><path class="cls-2" d="M106.17,61.91a13.51,13.51,0,0,1,7.38,6.78c1.43,3.26,3.53,19,3.53,19l2.64,5.1a8.71,8.71,0,0,1,1,4v.78A8.62,8.62,0,0,1,118.8,103h0a8.62,8.62,0,0,1-6,3c-2.64.23-5.82.34-6.51-.44a33.13,33.13,0,0,1-3-5.07L111,96.43l-3.34-6.16Z"/><path class="cls-1" d="M74.63,105l.3-.17.88-.43,3.3-1.54L90.4,97.67l-.08.24L88.16,94l-1.34-2.41.16.09L73.47,93l-4,.36-1.08.08H68a1.51,1.51,0,0,1,.37-.07l1.08-.14,4-.46,13.47-1.43H87v.09l1.43,2.45,2.16,3.85.08.16-.16.07-11.33,5-3.34,1.45-.91.38A1.43,1.43,0,0,1,74.63,105Z"/><path class="cls-1" d="M77.89,92.34c-.08,0-.16-3.29-.16-7.35s.08-7.35.16-7.35.18,3.29.18,7.35S78,92.34,77.89,92.34Z"/><path class="cls-1" d="M109.62,97.25a1.71,1.71,0,0,1,.55-.09,5.11,5.11,0,0,1,1.56.1,1.78,1.78,0,0,1,1,.55,2.52,2.52,0,0,1,.51,1.17,2.78,2.78,0,0,1-.12,1.4,2.69,2.69,0,0,1-.93,1.2,7.09,7.09,0,0,1-2.67,1,12.49,12.49,0,0,1-2.28.22,4,4,0,0,1-2.08-.36,10.24,10.24,0,0,0,2.07.12,13.18,13.18,0,0,0,2.24-.34,7.17,7.17,0,0,0,2.54-.91,2.4,2.4,0,0,0,.46-3.29,1.62,1.62,0,0,0-.83-.5,5.67,5.67,0,0,0-1.48-.19A2,2,0,0,1,109.62,97.25Z"/><path class="cls-1" d="M112.64,106.16a4.22,4.22,0,0,1-1.32.15,8.39,8.39,0,0,1-3.21-.52,7.26,7.26,0,0,1-1.58-.84,3.65,3.65,0,0,1-1-1.11,2.8,2.8,0,0,1-.47-1.28s.23.46.64,1.12a4,4,0,0,0,1,1,8,8,0,0,0,1.52.77,9.67,9.67,0,0,0,3.06.6A8.81,8.81,0,0,1,112.64,106.16Z"/><path class="cls-1" d="M116.31,90.2a6.29,6.29,0,0,1-.9,1.09c-.59.64-1.43,1.54-2.36,2.49s-1.8,1.82-2.43,2.43a6,6,0,0,1-1.08.93,6.67,6.67,0,0,1,.93-1.12c.59-.64,1.42-1.53,2.35-2.49A34.33,34.33,0,0,1,116.31,90.2Z"/><path class="cls-1" d="M107.93,86.77a28.05,28.05,0,0,1-.17-4.2,28.05,28.05,0,0,1,.17-4.2,26.79,26.79,0,0,1,.17,4.2A26.79,26.79,0,0,1,107.93,86.77Z"/><path class="cls-15" d="M113,68.74c0,.09-9.43.16-21.06.16s-21.06-.07-21.06-.16,9.43-.17,21.06-.17S113,68.64,113,68.74Z"/><path class="cls-15" d="M114.11,72.09c0,.09-9.94.17-22.19.17s-22.19-.08-22.19-.17,9.94-.17,22.19-.17S114.11,72,114.11,72.09Z"/><path class="cls-15" d="M111.32,65.68c0,.09-8.66.17-19.33.17s-19.33-.08-19.33-.17,8.65-.17,19.33-.17S111.32,65.59,111.32,65.68Z"/><path class="cls-15" d="M113.09,116.29c0,.1-8.47.18-18.92.18s-18.92-.08-18.92-.18,8.47-.16,18.92-.16S113.09,116.2,113.09,116.29Z"/><path class="cls-15" d="M112.82,114.15c0,.09-8.33.16-18.66.16s-18.69-.07-18.69-.16,8.34-.17,18.67-.17S112.82,114,112.82,114.15Z"/><path class="cls-15" d="M112.47,111.36c0,.09-8.34.17-18.6.17s-18.6-.08-18.6-.17,8.34-.17,18.6-.17S112.47,111.29,112.47,111.36Z"/><path class="cls-15" d="M85.31,99.84a3.29,3.29,0,0,1-.94-.88,8.85,8.85,0,0,1-2-5.77,3.51,3.51,0,0,1,.1-1.29,11.34,11.34,0,0,0,2.81,7.94Z"/><path class="cls-15" d="M83.58,100.87a3.4,3.4,0,0,1-1-1,9.73,9.73,0,0,1-2.2-6.33,3.92,3.92,0,0,1,.19-1.4,15.27,15.27,0,0,0,.64,4.65A14.86,14.86,0,0,0,83.58,100.87Z"/><path class="cls-15" d="M81.92,101.71a4.23,4.23,0,0,1-1.15-1A8.89,8.89,0,0,1,78.57,94a3.91,3.91,0,0,1,.35-1.46c.06,0-.08.57-.11,1.48A9.91,9.91,0,0,0,81,100.62C81.53,101.29,82,101.67,81.92,101.71Z"/><path class="cls-15" d="M105.65,103a5.5,5.5,0,0,0,.57.36,4.16,4.16,0,0,0,1.73.42,14.25,14.25,0,0,0,2.69-.17,4.19,4.19,0,0,0,2.83-1.32,4,4,0,0,0,.83-3A4.16,4.16,0,0,0,113.14,97a6.41,6.41,0,0,0-2.07-1.34,1.6,1.6,0,0,1,.64.17,4.52,4.52,0,0,1,1.58,1,4.39,4.39,0,0,1,1.28,2.45,4.21,4.21,0,0,1-.89,3.26,3.58,3.58,0,0,1-1.43,1.06,5.89,5.89,0,0,1-1.6.41,13.31,13.31,0,0,1-2.75.11,3.89,3.89,0,0,1-1.78-.57A1.2,1.2,0,0,1,105.65,103Z"/><path class="cls-15" d="M112.36,94.57h.2a2.27,2.27,0,0,1,.58.1A3.65,3.65,0,0,1,114.88,96a9.19,9.19,0,0,1,1.43,2.87,5.26,5.26,0,0,1,.21,1.93,4.07,4.07,0,0,1-.69,2,5.91,5.91,0,0,1-3.17,2.27,9.42,9.42,0,0,1-3.21.36,17.05,17.05,0,0,1-2.14-.22,4.08,4.08,0,0,1-.77-.17c0-.06,1.12.12,2.92.15a9.47,9.47,0,0,0,3.08-.42,5.79,5.79,0,0,0,3-2.19,3.91,3.91,0,0,0,.64-1.8,5.21,5.21,0,0,0-.18-1.8,9.07,9.07,0,0,0-1.33-2.81,3.88,3.88,0,0,0-1.59-1.33C112.64,94.62,112.36,94.62,112.36,94.57Z"/><path class="cls-13" d="M103.54,88.53l-.39-.3a9.25,9.25,0,0,0-7.25-1.68h0a12.67,12.67,0,0,0-5.64,2.65L87.1,91.8l3.36,6,2.28-3.21s2.13,2.89,2.51,2.57a4.66,4.66,0,0,0,.84-1.22l-1.52-2.12,3.65.76,5.32-2.43-2.26-2.86,2.28.76Z"/><polygon class="cls-1" points="97.92 87.98 86.21 102.16 87.1 103.14 106.12 100.24 115.55 86.05 114.67 85.27 97.92 87.98"/><path class="cls-13" d="M110.35,91.72h0a1.81,1.81,0,0,0-1.69,1.16,3.9,3.9,0,0,1-1.19,1.84,4.1,4.1,0,0,1-3.08.45c-.76-.38-3.84-3.14-4.37-2.83s-1,1-.46,1.61S103,96.41,102.47,97,95.94,94.93,95,95.17s-1.46.81-.92,1.18,4.61,1.92,4.84,2.44c0,0-6.15-1.62-6.38-1.23s-.64,1,0,1.23,5.91,1.61,6.38,1.84a10.82,10.82,0,0,0,2.36.69,23.82,23.82,0,0,1,2.48.79,5.38,5.38,0,0,0,3.85-.11l.64-.25a2.42,2.42,0,0,0,1.51-2.4l-.12-2.1.64-1.72Z"/><path class="cls-16" d="M115.58,86.12a2.37,2.37,0,0,1-.36.09l-1,.18-3.75.63-5.56.85-3.29.5a6.13,6.13,0,0,0-3.2,1.28,21,21,0,0,0-2.33,2.66L94,94.88l-3.55,4.34-2.41,2.94-.64.79a1.48,1.48,0,0,1-.25.25c.06-.1.13-.2.2-.3l.64-.83,2.32-3,3.48-4.42L95.88,92a21.72,21.72,0,0,1,2.36-2.71A6.55,6.55,0,0,1,101.58,88l3.3-.47,5.59-.84,3.77-.49,1-.12A1.94,1.94,0,0,1,115.58,86.12Z"/><path class="cls-17" d="M106.68,89.23a2,2,0,0,0-.53.43.57.57,0,0,0,0,.64.6.6,0,0,0,.79,0,.77.77,0,0,0,.3-.46.5.5,0,0,0-.16-.5.42.42,0,0,0-.52,0"/></g><g id="freepik--Plant--inject-2"><path class="cls-2" d="M35.25,416.32c-1.25,1.79-3.7,1.2-4.84.11a9.1,9.1,0,0,1-2-4.21c-1-3.46-2-7.1-1.27-10.63a5.84,5.84,0,0,1,1.36-2.92,3.1,3.1,0,0,1,2.92-1c1.24.32,2,1.54,2.56,2.68a25.31,25.31,0,0,1,2.5,10.88,8.76,8.76,0,0,1-1.19,5"/><g class="cls-4"><path d="M35.25,416.32c-1.25,1.79-3.7,1.2-4.84.11a9.1,9.1,0,0,1-2-4.21c-1-3.46-2-7.1-1.27-10.63a5.84,5.84,0,0,1,1.36-2.92,3.1,3.1,0,0,1,2.92-1c1.24.32,2,1.54,2.56,2.68a25.31,25.31,0,0,1,2.5,10.88,8.76,8.76,0,0,1-1.19,5"/></g><path class="cls-2" d="M30.54,425.43a10.88,10.88,0,0,0-6.77-.82,5.56,5.56,0,0,0-3.34,1.46,2.35,2.35,0,0,0,0,3.33,3.09,3.09,0,0,0,2.11.54c1.79,0,3.77-.33,5.2.73.82.62,1.36,1.64,2.34,1.94a2.28,2.28,0,0,0,2.53-1.13,3.9,3.9,0,0,0,.28-2.92A4.41,4.41,0,0,0,30.54,425.43Z"/><path class="cls-2" d="M38.71,418.9a6.52,6.52,0,0,1-1-6,11.51,11.51,0,0,1,3.57-5.17A19.17,19.17,0,0,1,47.66,404a6.71,6.71,0,0,1,2.87-.48,3,3,0,0,1,2.41,1.46c.67,1.28,0,2.83-.67,4.1a49,49,0,0,1-4.19,6.38,11.37,11.37,0,0,1-4.61,4c-1.92.73-3.91.65-4.92-.68"/><path class="cls-1" d="M35.34,443.43a3.78,3.78,0,0,1-.12-.82L35,440.42c-.11-.93-.25-2.05-.5-3.27a27.2,27.2,0,0,0-1.19-3.85,14.24,14.24,0,0,0-2-3.49,7.37,7.37,0,0,0-2.52-2.12A7.26,7.26,0,0,0,26.7,427a3.24,3.24,0,0,1-.82-.11,3.84,3.84,0,0,1,.83,0,6.17,6.17,0,0,1,2.19.57,7.25,7.25,0,0,1,2.63,2.09,13.86,13.86,0,0,1,2,3.56,24.21,24.21,0,0,1,1.17,3.92,26.31,26.31,0,0,1,.44,3.31c.07.95.1,1.72.11,2.24A3.72,3.72,0,0,1,35.34,443.43Z"/><path class="cls-1" d="M35.18,441.72a2.41,2.41,0,0,1,0-.38v-5.08c-.08-3.37-.37-8-.93-13.11s-1.31-9.69-2-13c-.16-.83-.32-1.57-.48-2.19s-.27-1.21-.38-1.67l-.26-1.05a2.32,2.32,0,0,1-.06-.38,1.55,1.55,0,0,1,.13.36c.08.27.19.61.31,1s.29,1,.45,1.66.35,1.38.52,2.19a123.9,123.9,0,0,1,2.1,13c.55,5.11.81,9.76.83,13.14,0,1.69,0,3-.06,4,0,.44-.05.8-.06,1.09A1.53,1.53,0,0,1,35.18,441.72Z"/><path class="cls-1" d="M35.16,432.73a7.11,7.11,0,0,1,0-1.13,28.84,28.84,0,0,1,.35-3.07,43.64,43.64,0,0,1,2.86-9.75,28.36,28.36,0,0,1,5.49-8.55,11.25,11.25,0,0,1,1.3-1.19c.19-.17.37-.34.54-.47l.51-.35a7.3,7.3,0,0,1,.95-.61A34.82,34.82,0,0,0,44,410.4a29.31,29.31,0,0,0-5.35,8.52,40.81,40.81,0,0,0-1.89,5.23c-.49,1.65-.81,3.16-1.06,4.43s-.36,2.31-.45,3A5.52,5.52,0,0,1,35.16,432.73Z"/></g><g id="freepik--character-2--inject-7"><path class="cls-16" d="M200.15,375a9.26,9.26,0,0,1,9-7.79c19.57-.27,69.39-.71,72.07,1.41,3.32,2.64,5.07,4,4.77,8.19-.24,3.85-4.21,66.81-4.21,66.81l-93.47.17Z"/><path class="cls-1" d="M271,443.74v-.19a2.53,2.53,0,0,0,0-.55c0-.5-.09-1.21-.16-2.12s-.15-2-.19-3.35-.14-2.8-.14-4.45v-5.39c0-1.94.12-4,.21-6.19.26-4.35.7-9.13,1.4-14.12s1.64-9.7,2.61-14c.52-2.13,1-4.15,1.52-6,.26-.94.49-1.85.8-2.72s.51-1.69.75-2.48c.46-1.59,1-3,1.38-4.25s.8-2.32,1.12-3.19.58-1.52.75-2l.2-.52c.05-.13.07-.17.08-.16s0,.05-.05.17l-.17.54c-.17.47-.4,1.14-.7,2s-.68,1.94-1.08,3.19-.88,2.66-1.33,4.26c-.24.79-.48,1.59-.73,2.49s-.49,1.77-.74,2.71c-.53,1.87-1,3.89-1.5,6-.95,4.26-1.86,9-2.59,13.94s-1.14,9.75-1.41,14.1c-.1,2.17-.22,4.24-.24,6.17V433c0,1.65.06,3.14.09,4.45s.09,2.43.15,3.35.08,1.59.1,2.12v.55A.75.75,0,0,1,271,443.74Z"/><path class="cls-1" d="M218.53,400.66l.15-.06a1.55,1.55,0,0,1,.43,0,2,2,0,0,1,1.36.8,2.23,2.23,0,0,1,.14,2.32,2.91,2.91,0,0,1-.91,1.09,2.82,2.82,0,0,1-1.45.51,2.29,2.29,0,0,1-1.48-.39,1.85,1.85,0,0,1-.79-1.21,2.54,2.54,0,0,1,.7-2.24c1.06-.89,2-.92,2-.83h-.14a2.67,2.67,0,0,0-.4.13,4.28,4.28,0,0,0-1.26.8,2.37,2.37,0,0,0-.6,2,1.63,1.63,0,0,0,.67,1,2.05,2.05,0,0,0,1.3.33,2.62,2.62,0,0,0,1.3-.44,3,3,0,0,0,.84-1,2,2,0,0,0-.07-2.08,1.94,1.94,0,0,0-1.21-.8A4.08,4.08,0,0,1,218.53,400.66Z"/><path class="cls-1" d="M233.19,392.2c0,.06-1-.11-2.5,0a11.48,11.48,0,0,0-9.39,6.58,22.16,22.16,0,0,0-.88,2.35,2.53,2.53,0,0,1,.1-.67,10.07,10.07,0,0,1,.58-1.76,11.16,11.16,0,0,1,9.56-6.71,10.38,10.38,0,0,1,1.85.05A2.69,2.69,0,0,1,233.19,392.2Z"/><path class="cls-1" d="M206.15,409.52a1.46,1.46,0,0,1,.21-.48,7.89,7.89,0,0,1,.8-1.18,8.77,8.77,0,0,1,8.61-2.94,9.12,9.12,0,0,1,1.37.44,1.58,1.58,0,0,1,.46.25c0,.05-.7-.27-1.87-.48a9.08,9.08,0,0,0-8.41,2.87C206.54,408.88,206.2,409.55,206.15,409.52Z"/><path class="cls-1" d="M224.19,411.84a3.47,3.47,0,0,1-1-.7,10.68,10.68,0,0,1-3.06-4.77,3.58,3.58,0,0,1-.23-1.17,20.63,20.63,0,0,0,1.69,3.59A22.18,22.18,0,0,0,224.19,411.84Z"/><path class="cls-1" d="M250.06,401.44a.34.34,0,0,0,.14-.05,1.55,1.55,0,0,1,.43,0,2,2,0,0,1,1.36.79,2.25,2.25,0,0,1,.15,2.33,2.94,2.94,0,0,1-.92,1.09,2.74,2.74,0,0,1-1.44.5,2.31,2.31,0,0,1-1.49-.38,1.9,1.9,0,0,1-.8-1.21,2.55,2.55,0,0,1,.72-2.24c1-.89,2-.92,1.95-.83H250a2,2,0,0,0-.39.13,4.38,4.38,0,0,0-1.28.8,2.37,2.37,0,0,0-.59,2,1.63,1.63,0,0,0,.67,1,2.1,2.1,0,0,0,1.31.33,2.51,2.51,0,0,0,1.29-.45,2.6,2.6,0,0,0,.83-1,2,2,0,0,0-.06-2.07,1.9,1.9,0,0,0-1.21-.8C250.26,401.41,250.06,401.48,250.06,401.44Z"/><path class="cls-1" d="M264.72,393c0,.06-1-.11-2.5,0a11.46,11.46,0,0,0-9.45,6.61c-.33.77-.63,1.56-.88,2.35a2.53,2.53,0,0,1,.1-.67,10.11,10.11,0,0,1,.59-1.76,11.16,11.16,0,0,1,9.56-6.71,9.52,9.52,0,0,1,1.85.05A2.61,2.61,0,0,1,264.72,393Z"/><path class="cls-1" d="M237.64,410.31a1.74,1.74,0,0,1,.22-.48,7.93,7.93,0,0,1,.79-1.19,8.77,8.77,0,0,1,8.6-2.93,8.1,8.1,0,0,1,1.37.44,1.63,1.63,0,0,1,.47.25,11.56,11.56,0,0,0-1.88-.48,9,9,0,0,0-8.4,2.87A17.45,17.45,0,0,0,237.64,410.31Z"/><path class="cls-1" d="M255.68,412.62a3.44,3.44,0,0,1-1-.69,11,11,0,0,1-1.85-2.17,10.8,10.8,0,0,1-1.21-2.6,3.51,3.51,0,0,1-.23-1.15,23.92,23.92,0,0,0,1.68,3.59A20.88,20.88,0,0,0,255.68,412.62Z"/><path class="cls-13" d="M77.34,438.5c-.18,0-1,.86.16,2.15s8,4.77,9.27,2.7S85,439.78,85,439.78Z"/><path class="cls-13" d="M84.88,436.24s7.08-.79,10-.41a10.29,10.29,0,0,0,8.43-3.35,11.27,11.27,0,0,0,2.5-5l4.5-3.19s.49-10.71-6.65-9l-8.35.29s-16.42,2.73-19,4.78c0,0-3.09,3-4,4.17-.34.44-.63,4.86,2.5,6.37,0,0-1.84,2.39-.21,3.7l.79.58s-1,2.39-.06,3,8.88,3.08,11.15,1.52-.36-3.36-1.55-3.52"/><path class="cls-14" d="M76.06,430.52a4.7,4.7,0,0,1,.92.09c.6.08,1.46.19,2.53.27.53,0,1.11.06,1.74.07s1.31,0,2,.05a4.31,4.31,0,0,1,2.17.69,2.38,2.38,0,0,1,1.06,2.19,1.82,1.82,0,0,1-.63,1.11,3.19,3.19,0,0,1-1.08.6,9.87,9.87,0,0,1-2.22.41,19.09,19.09,0,0,1-3.78-.08c-1.07-.11-1.93-.25-2.52-.35a5.66,5.66,0,0,1-.91-.19,5.84,5.84,0,0,1,.93.08c.59.07,1.46.18,2.52.26a21.23,21.23,0,0,0,3.74,0,9.86,9.86,0,0,0,2.15-.42,3.24,3.24,0,0,0,1-.54,1.5,1.5,0,0,0,.53-.95,2.06,2.06,0,0,0-.94-1.9,3.86,3.86,0,0,0-2-.65c-.69-.07-1.37-.05-2-.07s-1.21-.08-1.75-.12c-1.07-.11-1.93-.25-2.52-.36A6,6,0,0,1,76.06,430.52Z"/><path class="cls-14" d="M75.48,425.4a5.63,5.63,0,0,1,.92.1c.6.08,1.45.19,2.52.28s2.32.17,3.73.17a4.9,4.9,0,0,1,2.24.33,1.74,1.74,0,0,1,.85.92,2.17,2.17,0,0,1,.11,1.26,3,3,0,0,1-1.42,2,4.84,4.84,0,0,1-2.15.7A20.77,20.77,0,0,1,78.5,431l-2.5-.31a4.74,4.74,0,0,1-.92-.13,7.22,7.22,0,0,1,.93,0l2.53.16a22,22,0,0,0,3.72.11,4.75,4.75,0,0,0,2-.67,2.74,2.74,0,0,0,1.28-1.73,1.67,1.67,0,0,0-.8-1.87,4.85,4.85,0,0,0-2.1-.32,36.31,36.31,0,0,1-3.76-.23c-1.06-.11-1.91-.26-2.5-.37A6.61,6.61,0,0,1,75.48,425.4Z"/><path class="cls-14" d="M79.13,426a7.79,7.79,0,0,1-.63-1.3,8,8,0,0,1-.69-1.29,2.65,2.65,0,0,1,1,1.15A2.34,2.34,0,0,1,79.13,426Z"/><path class="cls-13" d="M100.8,415.77l-6.7-.88S75.18,411,75,411.53s-1.11.68-.41,2.71,11.62,3.82,12.1,4.47.84,4.4,5.12,6.13,7,1.15,7,1.15"/><path class="cls-14" d="M98.75,426H98.6a1.34,1.34,0,0,0-.43.06,11.92,11.92,0,0,1-1.69,0,14.54,14.54,0,0,1-2.62-.47,13.38,13.38,0,0,1-3.28-1.28,7.47,7.47,0,0,1-3-3,19.06,19.06,0,0,1-.91-2.19,1.15,1.15,0,0,0-.12-.25.63.63,0,0,0-.2-.13,5.71,5.71,0,0,0-.58-.21l-1.22-.33c-1.67-.43-3.43-.85-5.23-1.39-.9-.26-1.81-.55-2.72-.91a11,11,0,0,1-1.33-.66,4,4,0,0,1-.61-.48,1.18,1.18,0,0,1-.23-.35c-.07-.14-.08-.25-.13-.37a2.69,2.69,0,0,1-.09-1.54,2.06,2.06,0,0,1,.41-.68,1.14,1.14,0,0,0,.18-.25v-.07a.28.28,0,0,1,.11-.08h.32c1,.07,1.93.23,2.85.38,1.85.3,3.63.64,5.33.95,3.38.65,6.42,1.26,9,1.79.64.12,1.24.27,1.81.36l1.64.23,2.63.38,1.66.25.43.07h-.44l-1.66-.19-2.64-.33-1.65-.2c-.58-.1-1.18-.24-1.83-.36l-9-1.71c-1.7-.32-3.47-.63-5.33-.94-.91-.14-1.87-.31-2.81-.36H75v-.07h0c.23.08.06,0,.11.05h0A1,1,0,0,1,75,412a1.47,1.47,0,0,0-.35.57,2.37,2.37,0,0,0,.1,1.37,1.25,1.25,0,0,0,.29.6,3.26,3.26,0,0,0,.55.43,10.13,10.13,0,0,0,1.28.63c.89.37,1.8.66,2.69.93,1.79.52,3.55.94,5.22,1.39l1.23.35a4.44,4.44,0,0,1,.61.22.63.63,0,0,1,.3.21,1.59,1.59,0,0,1,.15.29,16,16,0,0,0,.89,2.19,7.39,7.39,0,0,0,2.84,3,14.48,14.48,0,0,0,3.22,1.3,15.33,15.33,0,0,0,2.6.51,11.52,11.52,0,0,0,1.66.06h.44C98.7,426,98.75,426,98.75,426Z"/><path class="cls-14" d="M82.82,435.91a1.65,1.65,0,0,1,.7,0,6.47,6.47,0,0,1,1.82.54,5.8,5.8,0,0,1,1.15.68,2,2,0,0,1,.84,1.31,1.66,1.66,0,0,1-.85,1.5,3.27,3.27,0,0,1-1.79.37,34,34,0,0,1-6.19-.91,18.94,18.94,0,0,1-1.81-.56,2.44,2.44,0,0,1-.64-.28,5.2,5.2,0,0,1,.68.17c.43.12,1,.29,1.82.47a39.8,39.8,0,0,0,6.15.79,3,3,0,0,0,1.63-.32,1.41,1.41,0,0,0,.73-1.23,1.75,1.75,0,0,0-.73-1.15,5.65,5.65,0,0,0-1.07-.67A9.1,9.1,0,0,0,82.82,435.91Z"/><path class="cls-2" d="M133.07,400.17s8.39-13.81,10.28-22.93,11.63-23.57,14.78-27.35,15.71-8.17,15.71-8.17l3.33-3.41,37.22-2.25s23.89,2.52,31.12,9.12,12.89,21.69,12.89,29.23,6.91,69.33,6.91,69.33l-84.14-.18-2-18.43s-10.68-17.4-13.54-23.69-1.25-3.14-1.25-3.14-10,21.32-13.49,23.84S107.23,437,107.23,437l-5.5-21.09Z"/><path class="cls-2" d="M237.56,347.81c-1,.31-13,31.27-13.8,34.09s0,20.55,0,20.55l3.94,7.32s-1.13,5.35-.28,7.89L209.68,421s-4.51-3.1-8.76,0L180,422.81s6.14.07,4.32,9.5c-1.8,9.23-3.19,11.26-3.19,11.26l73.57-1.68s8.17-.4,6.93-16.12-4.78-59.07-4.78-59.07S251.55,343.47,237.56,347.81Z"/><path class="cls-1" d="M223.59,400a2.59,2.59,0,0,1-.17-.38c-.12-.29-.26-.66-.44-1.12s-.43-1.08-.66-1.78-.52-1.5-.79-2.39-.55-1.88-.8-2.95-.49-2.22-.72-3.43a57.59,57.59,0,0,1-.62-16c.15-1.23.26-2.39.46-3.48.1-.54.17-1.06.27-1.6s.2-1,.31-1.43c.17-.92.4-1.73.59-2.44s.36-1.34.53-1.84.27-.85.37-1.13a1.32,1.32,0,0,1,.15-.39,2.6,2.6,0,0,1-.1.4l-.31,1.16c-.15.5-.32,1.11-.48,1.84s-.39,1.52-.55,2.44c-.09.46-.19.94-.28,1.43s-.17,1-.26,1.6c-.18,1.08-.29,2.24-.43,3.46a60.31,60.31,0,0,0,.62,15.93c.22,1.21.43,2.38.69,3.42s.5,2.05.75,2.95.5,1.69.71,2.38.43,1.31.61,1.8l.4,1.14A2.86,2.86,0,0,1,223.59,400Z"/><path class="cls-1" d="M249.19,433.55a1.29,1.29,0,0,1-.19-.21l-.5-.66a11.63,11.63,0,0,0-.79-1c-.33-.37-.67-.84-1.09-1.31s-.87-1-1.4-1.52l-1.68-1.67a43.12,43.12,0,0,0-4.24-3.39,41.2,41.2,0,0,0-4.67-2.76c-.75-.36-1.46-.72-2.15-1l-1.92-.79c-.59-.25-1.13-.4-1.59-.56s-.89-.28-1.23-.37l-.8-.24c-.17-.05-.27-.08-.26-.1a1.37,1.37,0,0,1,.28,0l.79.17c.35.08.8.19,1.25.33s1.05.3,1.6.52,1.25.44,2,.74,1.41.61,2.17,1a37.1,37.1,0,0,1,9,6.2c.6.59,1.18,1.14,1.68,1.7s1,1.07,1.37,1.55.75.95,1.06,1.36l.75,1,.45.68A1,1,0,0,1,249.19,433.55Z"/><path class="cls-1" d="M255.38,429.43a25.12,25.12,0,0,0-1.91-1.71,22.16,22.16,0,0,0-2.28-1.59,18.94,18.94,0,0,0-6.32-2.39,19.64,19.64,0,0,0-2.75-.32c-1.59-.07-2.56.06-2.57,0a2.7,2.7,0,0,1,.69-.12,7.2,7.2,0,0,1,.8-.07,9.73,9.73,0,0,1,1.08,0,18.56,18.56,0,0,1,2.79.26,20.18,20.18,0,0,1,3.32.92,21,21,0,0,1,3.09,1.51,16.68,16.68,0,0,1,2.26,1.67,9.23,9.23,0,0,1,.8.73,5.21,5.21,0,0,1,.56.59A2.43,2.43,0,0,1,255.38,429.43Z"/><path class="cls-1" d="M248.58,419.07c0,.05-.9-.64-2.49-1.42-.4-.19-.83-.4-1.32-.58s-1-.35-1.59-.54a20.51,20.51,0,0,0-3.73-.65,20.9,20.9,0,0,0-3.79.14c-.57.1-1.12.18-1.59.31a13.73,13.73,0,0,0-1.39.4c-1.68.56-2.63,1.13-2.66,1.07a3.8,3.8,0,0,1,.66-.41,6,6,0,0,1,.8-.4c.33-.14.68-.32,1.11-.46a13.51,13.51,0,0,1,1.41-.43c.5-.15,1.05-.23,1.64-.35a19,19,0,0,1,3.84-.16,18.18,18.18,0,0,1,3.79.69c.54.16,1.07.35,1.6.56s.9.4,1.33.63a10.27,10.27,0,0,1,1,.61,7.71,7.71,0,0,1,.75.52A5.73,5.73,0,0,1,248.58,419.07Z"/><path class="cls-1" d="M205.55,442.29a24.08,24.08,0,0,0,.53-3.15,20,20,0,0,0,0-3.46,25.46,25.46,0,0,0-2.15-8.17,21.5,21.5,0,0,0-1.68-3,28.29,28.29,0,0,0-2-2.49,4.42,4.42,0,0,1,.65.57,6.87,6.87,0,0,1,.69.74l.41.49c.14.17.27.37.42.57a19.57,19.57,0,0,1,1.75,3,24.59,24.59,0,0,1,2.18,8.25,18.71,18.71,0,0,1,0,3.51c0,.24-.06.48-.08.71a6.18,6.18,0,0,1-.12.62,8.56,8.56,0,0,1-.24,1A4.17,4.17,0,0,1,205.55,442.29Z"/><path class="cls-1" d="M193.22,421a.43.43,0,0,1,0-.16,4.17,4.17,0,0,0-.08-.49l-.26-1.86c-.24-1.6-.54-4-.89-6.88-.7-5.81-1.53-13.85-2.18-22.75s-1-17-1.14-22.85c-.08-2.92-.12-5.29-.13-6.93v-2.54a.49.49,0,0,1,0,.17v.49c0,.45,0,1.09.06,1.88.06,1.66.13,4,.22,6.93.21,5.85.58,13.92,1.23,22.82s1.45,16.94,2.09,22.76c.34,2.89.6,5.23.8,6.88l.21,1.87a1.35,1.35,0,0,0,0,.49C193.25,421,193.23,421,193.22,421Z"/><path class="cls-1" d="M164.32,398.71a5.49,5.49,0,0,1-.38-.86c-.22-.57-.57-1.38-1-2.39-.85-2-2.13-4.73-3.64-7.69s-2.89-5.57-3.92-7.55c-.49-1-.88-1.76-1.14-2.31a5.59,5.59,0,0,1-.38-.87,6.4,6.4,0,0,1,.48.79l1.23,2.27c1,1.91,2.47,4.56,4,7.52s2.76,5.7,3.57,7.73c.39,1,.7,1.84.9,2.39A4.68,4.68,0,0,1,164.32,398.71Z"/><path class="cls-1" d="M159.8,388.24a2.28,2.28,0,0,1-.51-.09c-.33-.08-.8-.23-1.36-.41a32.15,32.15,0,0,1-4.34-1.78,36.65,36.65,0,0,1-4-2.38c-.5-.35-.89-.63-1.15-.85a2.5,2.5,0,0,1-.39-.34,15.41,15.41,0,0,1,1.65,1c1.31.82,2.67,1.58,4.06,2.27a43.66,43.66,0,0,0,4.27,1.85C158.62,387.73,159.21,388,159.8,388.24Z"/><path class="cls-1" d="M152.2,407.59a3.73,3.73,0,0,1-.6-.37,18.86,18.86,0,0,0-1.64-1,33.38,33.38,0,0,0-11.84-4.43c-.79-.14-1.45-.23-1.91-.29a2.78,2.78,0,0,1-.7-.12,2.81,2.81,0,0,1,.71,0,17.77,17.77,0,0,1,1.93.2A29.63,29.63,0,0,1,150.1,406c.69.44,1.22.83,1.59,1.12A2.52,2.52,0,0,1,152.2,407.59Z"/><path class="cls-1" d="M213.46,336.11v.46c0,.3-.09.8-.15,1.31-.15,1.14-.35,2.8-.7,4.78a62.19,62.19,0,0,1-1.6,7,32.29,32.29,0,0,1-3.56,8.09,25.09,25.09,0,0,1-2.95,3.78l-.12.13-.1-.14a15,15,0,0,0-5.38-4.46,15.76,15.76,0,0,0-2.83-1.05,13.22,13.22,0,0,0-2.58-.34,10.63,10.63,0,0,0-3.67.52c-.8.29-1.26.5-1.27.47a1.3,1.3,0,0,1,.31-.16,7.72,7.72,0,0,1,.93-.41,10.21,10.21,0,0,1,3.71-.61,13.6,13.6,0,0,1,2.62.32,14.75,14.75,0,0,1,2.89,1,15.17,15.17,0,0,1,5.5,4.52h-.22a24.51,24.51,0,0,0,2.91-3.74,33.5,33.5,0,0,0,3.55-8,62.35,62.35,0,0,0,1.64-7c.38-2,.62-3.67.8-4.78.09-.54.16-1,.21-1.31A2.32,2.32,0,0,1,213.46,336.11Z"/><polygon class="cls-2" points="213.94 336.47 205.45 331.64 197.39 334.42 183.28 339.6 213.94 336.47"/><path class="cls-1" d="M188.53,356.76a.86.86,0,0,1-.32,0,6.47,6.47,0,0,1-.88-.15,10.81,10.81,0,0,1-3.05-1.29,6.18,6.18,0,0,0-2.07-.86,6.09,6.09,0,0,0-2.55,0,6,6,0,0,0-4.28,3.71l-.31.8v-1.58c.07-4.46.07-8.51.26-11.43.07-1.47.19-2.64.31-3.46.06-.4.12-.72.16-.93a.9.9,0,0,1,.09-.32s-.06.45-.13,1.27-.17,2-.23,3.45c-.13,2.92-.09,7-.17,11.43v.69h-.28a6.2,6.2,0,0,1,4.5-3.88,6.35,6.35,0,0,1,4.78,1,12.16,12.16,0,0,0,3,1.37A9.67,9.67,0,0,0,188.53,356.76Z"/><path class="cls-1" d="M258.46,376.28v.33a5.36,5.36,0,0,0,.08,1c0,.86.14,2.13.26,3.8l1,14.33c.42,6.18.91,13.65,1.48,22.18.13,2.14.28,4.34.43,6.6.08,1.14.12,2.29.18,3.46a17.22,17.22,0,0,1,0,1.76,17.73,17.73,0,0,1-.1,1.79c-.08.59-.15,1.2-.22,1.8s-.26,1.19-.39,1.79-.37,1.18-.56,1.78a8.29,8.29,0,0,1-.79,1.71,10.3,10.3,0,0,1-5.62,5.12h-73.3l.05-.18q.79-2.87,1.6-5.7l.79-2.81a17.66,17.66,0,0,0,.65-2.79,12,12,0,0,0-.48-5.58,7,7,0,0,0-1.32-2.38,3.93,3.93,0,0,0-2.26-1.33l-1.16-.18,1.16-.09,20.93-1.76h-.06a7.14,7.14,0,0,1,4.5-1.39,9.12,9.12,0,0,1,4.38,1.39h-.1l17.75-3.36-.08.13a7.77,7.77,0,0,1-.31-2.09,19.08,19.08,0,0,1,.05-2,32.84,32.84,0,0,1,.55-3.82v.07l-3.94-7.34h0c-.28-6.53-.37-11.68-.32-15.19,0-1.76.08-3.11.17-4a8.31,8.31,0,0,1,.15-1c.06-.23.08-.34.08-.34a2,2,0,0,1-.05.35,6.67,6.67,0,0,0-.13,1c-.08.9-.14,2.26-.14,4,0,3.51.11,8.65.4,15.18h0l4,7.31h0a32.43,32.43,0,0,0-.52,3.8c0,.67,0,1.33,0,2a6.78,6.78,0,0,0,.3,2v.11h-.11l-17.74,3.4h-.1a8.82,8.82,0,0,0-4.23-1.34,6.86,6.86,0,0,0-4.35,1.35h0L180,423v-.28a4.16,4.16,0,0,1,2.44,1.42,7.45,7.45,0,0,1,1.39,2.49,12.39,12.39,0,0,1,.5,5.7,22.63,22.63,0,0,1-.66,2.82l-.8,2.81-1.59,5.7-.15-.19h73a8.22,8.22,0,0,0,3.18-2,11.76,11.76,0,0,0,2.24-3c.3-.54.52-1.13.8-1.68a9.61,9.61,0,0,0,.55-1.75l.39-1.78c.07-.6.15-1.19.22-1.78s.06-1.18.1-1.77a10.23,10.23,0,0,0,0-1.75c-.05-1.17-.08-2.3-.17-3.44-.15-2.26-.29-4.47-.42-6.6-.55-8.54-1-16-1.41-22.19s-.68-11-.89-14.37l-.23-3.8a5.57,5.57,0,0,0,0-1A1.35,1.35,0,0,1,258.46,376.28Z"/><path class="cls-1" d="M242.42,345.41l-1,.62a24.59,24.59,0,0,0-2.63,1.88A30.86,30.86,0,0,0,232,356a66.19,66.19,0,0,0-4.54,9.64l-1.18,3-.33.8a1.34,1.34,0,0,1-.13.27,1,1,0,0,1,.08-.29c.07-.22.15-.5.27-.84.24-.72.61-1.77,1.09-3a60.61,60.61,0,0,1,4.47-9.72,29.51,29.51,0,0,1,6.91-8.14,20.51,20.51,0,0,1,2.7-1.81c.33-.19.6-.31.79-.41A1.4,1.4,0,0,1,242.42,345.41Z"/><g class="cls-11"><path d="M220.24,367a37.48,37.48,0,0,0-3.18,17c.21,5.77.9,11.54.34,17.27s-2.56,11.6-6.84,15.46a5.6,5.6,0,0,0-1.38,1.53,1.58,1.58,0,0,0,.27,1.9,2.26,2.26,0,0,0,1.78.18c4.09-.71,8.24-1.21,12.34-1.93.88-.15,3.83-.73,3.83-.73a15.85,15.85,0,0,1-.24-3.37c.12-1,.52-4.52.52-4.52a5.41,5.41,0,0,0-.8-1.45,34.19,34.19,0,0,1-3.4-8.72,40,40,0,0,1-2.67-8.42c-1.8-7.42-1.74-14.74-.6-24.14"/></g><g class="cls-11"><path d="M175.33,358.58l1,2.56a1.05,1.05,0,0,0,.49.64c.5.19.91-.43,1.15-.91a6.53,6.53,0,0,1,5-3.53c1.72-.2,3.49.3,5.19-.06a22.92,22.92,0,0,0-4.68-2.32,7.81,7.81,0,0,0-5.14,0,4.73,4.73,0,0,0-3.1,3.87"/></g><g class="cls-11"><path d="M189.34,356.44a28.14,28.14,0,0,1,6,.53,9.39,9.39,0,0,1,5.13,3c1.37,1.68,1.89,3.87,2.44,5.95.1.4.3.88.71.93a1.09,1.09,0,0,0,.68-.28,19.78,19.78,0,0,0,6.85-10.35,45.18,45.18,0,0,0,1.59-12.46c-1.59,2.89-2.32,6.2-3.39,9.33s-2.64,6.3-5.42,8.12a2.8,2.8,0,0,0-.63-2,6,6,0,0,0-1.66-1.36A15.71,15.71,0,0,0,189,356.29"/></g><path class="cls-7" d="M175.21,354.85c0,.11-4.18-.42-9.31-1.18s-9.28-1.48-9.26-1.6,4.18.42,9.31,1.18S175.24,354.73,175.21,354.85Z"/><path class="cls-7" d="M184.17,371.38c0,.11-7.59-1.44-16.91-3.46s-16.85-3.75-16.83-3.86,7.6,1.43,16.92,3.45S184.2,371.26,184.17,371.38Z"/><path class="cls-7" d="M189.42,389.94c0,.11-7.27-1.32-16.19-3.19s-16.14-3.47-16.12-3.58,7.28,1.31,16.2,3.18S189.44,389.83,189.42,389.94Z"/><path class="cls-7" d="M190.38,405.44c0,.11-5.71-.95-12.7-2.39s-12.62-2.68-12.6-2.79,5.71.95,12.69,2.39S190.4,405.34,190.38,405.44Z"/><path class="cls-7" d="M191.62,418.29a14.69,14.69,0,0,1-2.39-.38c-1.46-.28-3.47-.65-5.7-1s-4.26-.61-5.73-.8a13.65,13.65,0,0,1-2.39-.36,11.93,11.93,0,0,1,2.39.08c1.48.1,3.53.32,5.77.67s4.25.8,5.7,1.12A14.66,14.66,0,0,1,191.62,418.29Z"/><path class="cls-7" d="M217.17,387.93a4.24,4.24,0,0,1-1-.21l-2.82-.68c-2.39-.57-5.67-1.29-9.33-1.94s-7-1.09-9.45-1.37l-2.87-.32a4.85,4.85,0,0,1-1-.16,6.25,6.25,0,0,1,1.06,0c.69,0,1.68.09,2.89.19,2.44.21,5.81.61,9.49,1.25s7,1.43,9.33,2.07c1.19.32,2.13.6,2.79.8A4.24,4.24,0,0,1,217.17,387.93Z"/><path class="cls-7" d="M218.85,368.11a7.88,7.88,0,0,1-1.19,0c-.79-.05-1.87-.13-3.23-.26-2.72-.25-6.48-.66-10.61-1.24s-7.87-1.18-10.56-1.68c-1.35-.25-2.43-.46-3.19-.62a7.75,7.75,0,0,1-1.15-.29,5.2,5.2,0,0,1,1.18.13l3.18.49c2.7.42,6.44,1,10.57,1.59s7.87,1,10.59,1.35l3.18.4A6.34,6.34,0,0,1,218.85,368.11Z"/><path class="cls-7" d="M232.87,351.19c0,.12-4.57-.31-10.17-1s-10.14-1.25-10.12-1.36,4.56.31,10.16.95S232.87,351.08,232.87,351.19Z"/><path class="cls-7" d="M223.91,383.9c.05.1-.55.56-1.35,1s-1.49.8-1.55.67.54-.56,1.34-1A4.09,4.09,0,0,1,223.91,383.9Z"/><path class="cls-7" d="M252.92,360.91a11.52,11.52,0,0,1-1.29.44l-1.53.5c-.58.21-1.27.42-2,.72-1.47.55-3.19,1.28-5.08,2.17A60.06,60.06,0,0,0,231.59,372c-1.59,1.3-3,2.55-4.15,3.64-.58.54-1.06,1.06-1.5,1.51s-.8.84-1.12,1.15a6.75,6.75,0,0,1-1,1,8.69,8.69,0,0,1,.84-1.08c.28-.34.63-.76,1.06-1.21s.9-1,1.48-1.59a50.21,50.21,0,0,1,4.11-3.74,54.67,54.67,0,0,1,11.5-7.26q2.52-1.12,5.14-2c.75-.28,1.44-.48,2-.66s1.12-.34,1.55-.44A7.7,7.7,0,0,1,252.92,360.91Z"/><path class="cls-7" d="M257.66,390.58a7.27,7.27,0,0,1-1.32,0h-3.6a72,72,0,0,0-23.25,4.17c-1.43.5-2.58.94-3.37,1.26a9.19,9.19,0,0,1-1.24.45,8.72,8.72,0,0,1,1.18-.6c.79-.36,1.91-.84,3.33-1.39a63.5,63.5,0,0,1,23.38-4.18c1.52,0,2.76.07,3.61.14A9.12,9.12,0,0,1,257.66,390.58Z"/><path class="cls-7" d="M261.36,411.8a7,7,0,0,1-1.29-.27c-.8-.2-2-.47-3.52-.75s-3.28-.54-5.28-.74c-2.17-.18-4.35-.25-6.52-.22a56.57,56.57,0,0,0-6.5.53,53.08,53.08,0,0,0-5.24,1c-1.47.37-2.67.67-3.48.92a7.08,7.08,0,0,1-1.28.33,6.72,6.72,0,0,1,1.22-.48c.8-.3,2-.66,3.47-1.05a47,47,0,0,1,5.25-1.08,55.31,55.31,0,0,1,6.55-.57,53.39,53.39,0,0,1,6.57.26,52.52,52.52,0,0,1,5.3.8c1.49.31,2.69.63,3.5.88A9.27,9.27,0,0,1,261.36,411.8Z"/><path class="cls-7" d="M232.13,441.77c-.08,0-.24-1.39-.75-3.59a40.37,40.37,0,0,0-7.52-15.8c-1.39-1.78-2.39-2.8-2.32-2.84a3.52,3.52,0,0,1,.73.66,24.67,24.67,0,0,1,1.82,2,36.24,36.24,0,0,1,7.58,15.92,26.63,26.63,0,0,1,.41,2.67A4.57,4.57,0,0,1,232.13,441.77Z"/><path class="cls-7" d="M212.61,441.78c-.07,0,.13-1.21.22-3.14a30.4,30.4,0,0,0-3-14.68c-.85-1.74-1.5-2.75-1.43-2.79a3.1,3.1,0,0,1,.51.68,17.48,17.48,0,0,1,1.18,2,27.37,27.37,0,0,1,3,14.81,19.85,19.85,0,0,1-.31,2.3A3.23,3.23,0,0,1,212.61,441.78Z"/><path class="cls-7" d="M194.54,441.78c-.06,0,0-1,0-2.7a35,35,0,0,0-2.27-12.64c-.58-1.54-1-2.48-1-2.51a3,3,0,0,1,.38.62,17.21,17.21,0,0,1,.85,1.79,29.15,29.15,0,0,1,2.29,12.74,19,19,0,0,1-.17,2A2.35,2.35,0,0,1,194.54,441.78Z"/><path class="cls-7" d="M226.09,408.3c0,.11-7.36-.36-16.42-1.05s-16.39-1.35-16.38-1.47,7.36.36,16.41,1.06S226.1,408.19,226.09,408.3Z"/><path class="cls-7" d="M160.67,403c-.07,0-.79-1.27-2.33-3.13a29,29,0,0,0-2.9-3.07,34.58,34.58,0,0,0-4.09-3.13,31.57,31.57,0,0,0-4.58-2.38,29.77,29.77,0,0,0-4-1.33c-2.33-.59-3.83-.7-3.82-.79a5.28,5.28,0,0,1,1.05.05,8.3,8.3,0,0,1,1.22.15c.48.08,1,.15,1.6.3a26.34,26.34,0,0,1,4.08,1.25,28.48,28.48,0,0,1,8.78,5.57,27.2,27.2,0,0,1,2.88,3.19c.38.47.68.93.95,1.33a9.6,9.6,0,0,1,.66,1A5.11,5.11,0,0,1,160.67,403Z"/><path class="cls-7" d="M141.76,423.27c-.09,0-.11-1.37-.54-3.53a25.1,25.1,0,0,0-5.73-11.82,29.31,29.31,0,0,0-2.73-2.73c-1.66-1.44-2.85-2.14-2.8-2.21a4.66,4.66,0,0,1,.85.46c.32.19.64.4.94.62a13.4,13.4,0,0,1,1.2.9,23.29,23.29,0,0,1,2.82,2.71,24.38,24.38,0,0,1,4.78,8.23,23.49,23.49,0,0,1,1,3.79c.11.55.15,1.05.2,1.49a8.47,8.47,0,0,1,.07,1.13A3.88,3.88,0,0,1,141.76,423.27Z"/><path class="cls-7" d="M122.63,431.07c-.08,0-.11-1.3-.4-3.39a36.16,36.16,0,0,0-2.1-7.92,33.65,33.65,0,0,0-1.93-4.07,20.14,20.14,0,0,0-2-3.09,6.17,6.17,0,0,0-1.86-1.59c-.52-.27-.84-.33-.8-.36a1.78,1.78,0,0,1,.9.21,5.81,5.81,0,0,1,2,1.54,18.51,18.51,0,0,1,2.09,3.1,31.61,31.61,0,0,1,4,12.17,23.14,23.14,0,0,1,.16,2.5A4.54,4.54,0,0,1,122.63,431.07Z"/><path class="cls-13" d="M180.53,423.17h-6.94s-15.65-5.66-18.87-5.12c-2.9.49-13.54,7.54-15.59,8.93a1.42,1.42,0,0,0-.51.65h0a2.28,2.28,0,0,0,1.27,2.89l.22.09-.09.31a3.64,3.64,0,0,0-.16,1.27,1.53,1.53,0,0,0,1.65,1.4,1.52,1.52,0,0,0,1.19-.74l-.4.72a1.62,1.62,0,0,0-.22.94v.65a1.75,1.75,0,0,0,1.2,1.59h0a1.77,1.77,0,0,0,1.83-.48c1.34-1.48,4.25-4.45,6.21-4.77a46,46,0,0,1,6.43-.32,2.17,2.17,0,0,1,2,1.38h0c-1.17.09-9.31,4.34-12.18,5.85a3.08,3.08,0,0,0-1.67,2.32c-.11.9.35,1.84,2.12,1.42a78.8,78.8,0,0,0,10.71-4s3.56-1,5.86.6c3.23,2.29,4.71,3.12,7.49,2.2a23.28,23.28,0,0,0,4.83-2.24l5.47-.55S187.6,425.15,180.53,423.17Z"/><path class="cls-14" d="M159.86,425.81a27.38,27.38,0,0,0-3-.41,15.13,15.13,0,0,0-12.64,5.42c-1.19,1.4-1.69,2.44-1.74,2.39a2.89,2.89,0,0,1,.35-.73,12.21,12.21,0,0,1,1.22-1.81,14.69,14.69,0,0,1,12.83-5.47,13.28,13.28,0,0,1,2.17.36A3.8,3.8,0,0,1,159.86,425.81Z"/><path class="cls-14" d="M158.2,422A11.86,11.86,0,0,0,148,423.46a28.89,28.89,0,0,0-5.73,4.85l-1.6,1.68a5.48,5.48,0,0,1-.59.59,3.7,3.7,0,0,1,.51-.67c.35-.42.86-1,1.5-1.74a26.6,26.6,0,0,1,5.74-5,13.14,13.14,0,0,1,7.3-2,8.76,8.76,0,0,1,2.27.43,4.19,4.19,0,0,1,.59.22C158.14,422,158.2,422,158.2,422Z"/><path class="cls-1" d="M83.76,443.5,65.19,396.9a6.08,6.08,0,0,1,3.32-7.9,6.15,6.15,0,0,1,2.32-.46h57.84a6.13,6.13,0,0,1,5.77,4.13l15.94,47,18.63.09c1.51,0,2.73,2.22,2.73,3.74h0l-20.5-.24Z"/><circle class="cls-18" cx="104.4" cy="415.48" r="3.81"/><path class="cls-1" d="M206.33,310.91a91.79,91.79,0,0,0,4-15.47,32.47,32.47,0,0,0-1.26-15.8c-.29-.75-2.7-5.84-3.5-5.76-.57.05.91,4.78.61,5.3-2.77,4.78-3.52,10.5-3.08,16a71.45,71.45,0,0,0,3.19,15.72"/><path class="cls-13" d="M188.66,355.27c8.27-.18,17.66-18.26,17.66-18.26l.54-46.46c.43-13.37-7-24.78-20.38-24.84l-1.23.06A23.93,23.93,0,0,0,162.6,289c-.31,11.6-.51,24.41-.1,30.61.85,12.81,13.78,14.12,13.78,14.12s.07,3,.11,6.75C176.48,349,185.34,355.55,188.66,355.27Z"/><path class="cls-14" d="M176.28,333.75a31,31,0,0,0,16.44-5.84s-3.57,9.56-16.43,9.08Z"/><path class="cls-1" d="M166.67,298.19a1.84,1.84,0,0,0,1.87,1.75,1.75,1.75,0,0,0,1.8-1.7h0v-.05a1.83,1.83,0,0,0-1.86-1.75,1.78,1.78,0,0,0-1.81,1.72Z"/><path class="cls-1" d="M165.63,294.19c.24.23,1.59-.87,3.54-1s3.47.8,3.67.55-.16-.53-.8-1a5.11,5.11,0,0,0-2.95-.73,4.87,4.87,0,0,0-2.8,1.07C165.69,293.65,165.51,294.1,165.63,294.19Z"/><path class="cls-1" d="M185.34,297.33a1.84,1.84,0,0,0,1.87,1.75,1.74,1.74,0,0,0,1.79-1.69h0v-.05a1.84,1.84,0,0,0-1.87-1.75,1.75,1.75,0,0,0-1.8,1.7h0Z"/><path class="cls-1" d="M185,294c.24.23,1.59-.87,3.54-1s3.47.8,3.67.56-.15-.53-.8-1a4.94,4.94,0,0,0-2.95-.74,4.89,4.89,0,0,0-2.8,1.08C185,293.41,184.86,293.86,185,294Z"/><path class="cls-1" d="M178.72,309.48a13.14,13.14,0,0,0-3.24-.41c-.5,0-1-.1-1.09-.43a2.75,2.75,0,0,1,.26-1.52c.41-1.24.83-2.54,1.28-3.91,1.78-5.57,3-10.13,2.81-10.2s-1.85,4.38-3.62,10c-.43,1.37-.83,2.68-1.22,3.92a2.88,2.88,0,0,0-.15,2,1.27,1.27,0,0,0,.86.7,3.65,3.65,0,0,0,.87.07A13.07,13.07,0,0,0,178.72,309.48Z"/><path class="cls-1" d="M184.59,310.53c-.32,0-.21,2.14-2,3.76s-4,1.5-4,1.8c0,.14.53.39,1.5.37a5.41,5.41,0,0,0,3.37-1.39,4.67,4.67,0,0,0,1.51-3.14C185,311,184.74,310.51,184.59,310.53Z"/><path class="cls-1" d="M184.66,286c.22.53,2.17.17,4.5.33s4.23.68,4.51.18c.13-.24-.23-.72-1-1.2a7.74,7.74,0,0,0-6.86-.38C185,285.26,184.55,285.7,184.66,286Z"/><path class="cls-1" d="M166.09,287.6c.37.43,1.7-.11,3.33-.22s3,.14,3.33-.35c.13-.23-.12-.67-.75-1.06a4.8,4.8,0,0,0-5.35.46C166.09,286.91,165.93,287.39,166.09,287.6Z"/><path class="cls-13" d="M206.32,300.1c.21-.1,8.67-3.07,8.86,5.71s-8.66,7.17-8.69,6.91S206.32,300.1,206.32,300.1Z"/><path class="cls-14" d="M209.1,309.33l.42.22a1.6,1.6,0,0,0,1.14,0c.93-.36,1.68-1.85,1.68-3.43a5.12,5.12,0,0,0-.47-2.18,1.74,1.74,0,0,0-1.18-1.15.79.79,0,0,0-.89.44c-.11.25-.06.42-.11.44s-.19-.15-.12-.51a1,1,0,0,1,.33-.56,1.16,1.16,0,0,1,.84-.24,2.15,2.15,0,0,1,1.6,1.33,5.29,5.29,0,0,1,.59,2.44c0,1.77-.9,3.44-2.15,3.84a1.67,1.67,0,0,1-1.41-.2C209.12,309.54,209.07,309.35,209.1,309.33Z"/><path class="cls-1" d="M167.53,275.11c-1.43-.79-1.34-9.3,4.53-9.82,5.34-7.36,15.27-6.78,20.15-5.46,7.25-.48,16.45,6,19.46,11.33s-1.1,14.73-1.24,20.79a10.47,10.47,0,0,1-1.17,5.38c-1.2,2-3.54,3.18-3.4,5.88a3.7,3.7,0,0,1-.88,2.7c-1.59,1.73-3.57.15-4.49-1.45-2-3.42-2.25-7.52-2.47-11.46a26.09,26.09,0,0,1,.45-8.36c.41-1.47,1.09-2.86,1.41-4.35a5.29,5.29,0,0,0-.67-4.38,5.52,5.52,0,0,0-.73-.72,9.14,9.14,0,0,0-9.11-1.59c-4.92,1.81-13.34,4.53-15.57,2.88-3.18-2.39-5.63-2.12-5.63-2.12Z"/><path class="cls-1" d="M192.06,263.43a19.33,19.33,0,0,0-14.84,1,10,10,0,0,0-5.22,5.9c-.69,2.62.46,5.8,3,6.79l.17.1c3.77,1.21,6.2.68,9.92-.66,3.13-1.13,5.9-3.1,9-4.22a18,18,0,0,1,10.45-.44A29.18,29.18,0,0,0,192.06,263.43Z"/><path class="cls-16" d="M203.52,270.64s-.39-.19-1.11-.46a9,9,0,0,0-3.18-.48,12.56,12.56,0,0,0-4.59,1.06,34.94,34.94,0,0,0-5.14,2.87,41.05,41.05,0,0,1-5.21,2.95,13.29,13.29,0,0,1-4.72,1.23,8.84,8.84,0,0,1-3.27-.37,5.53,5.53,0,0,1-.79-.34c-.18-.09-.28-.15-.27-.16a10.39,10.39,0,0,0,4.35.58,13.75,13.75,0,0,0,4.57-1.29,45.72,45.72,0,0,0,5.1-3,31.54,31.54,0,0,1,5.22-2.87,12.3,12.3,0,0,1,4.78-1,8.5,8.5,0,0,1,3.23.64,4.64,4.64,0,0,1,.8.41C203.44,270.56,203.53,270.62,203.52,270.64Z"/><path class="cls-16" d="M199.77,267.8a10.68,10.68,0,0,0-4-.62,12.82,12.82,0,0,0-4.22,1,25,25,0,0,0-4.63,2.72c-1.55,1.11-3,2.23-4.41,3.14a20.72,20.72,0,0,1-3.92,2.08,11.81,11.81,0,0,1-2.92.74,5.24,5.24,0,0,1-.79.05h-.29a15.43,15.43,0,0,0,3.9-1,23.51,23.51,0,0,0,3.83-2.13c1.37-.92,2.81-2,4.38-3.19a23.81,23.81,0,0,1,4.72-2.72,12.54,12.54,0,0,1,4.35-1,8.73,8.73,0,0,1,3,.44l.75.33C199.7,267.74,199.78,267.79,199.77,267.8Z"/><path class="cls-16" d="M209.07,278.88a2.21,2.21,0,0,1-.13.67,12.25,12.25,0,0,1-.59,1.77,18.74,18.74,0,0,1-8,9.17,13,13,0,0,1-1.67.84,2,2,0,0,1-.66.21s.86-.46,2.18-1.3a21.06,21.06,0,0,0,7.87-9C208.72,279.79,209,278.86,209.07,278.88Z"/><path class="cls-16" d="M210.25,285.1a1.72,1.72,0,0,1,0,.64,6.12,6.12,0,0,1-.49,1.68,9.93,9.93,0,0,1-3.79,4.3,20.45,20.45,0,0,1-5.24,2.31,11.55,11.55,0,0,1-2.3.57,15.87,15.87,0,0,1,2.2-.85,24.78,24.78,0,0,0,5.11-2.39,10.63,10.63,0,0,0,3.76-4.06A14.26,14.26,0,0,0,210.25,285.1Z"/><path class="cls-16" d="M179.18,265.29a9.46,9.46,0,0,1-1.26,1.49,16.94,16.94,0,0,0-2.56,3.88,8.59,8.59,0,0,0-.72,4.5,15.08,15.08,0,0,0,.48,1.87,1.9,1.9,0,0,1-.3-.44,5.24,5.24,0,0,1-.47-1.38,8.06,8.06,0,0,1,.63-4.72,14,14,0,0,1,2.73-3.91A7.86,7.86,0,0,1,179.18,265.29Z"/><path class="cls-16" d="M173.06,269.2c.35-1.43-1,4.42,1.85,7.73a3.56,3.56,0,0,1-.93-.8,6.91,6.91,0,0,1-1.38-5.73A2.76,2.76,0,0,1,173.06,269.2Z"/><rect class="cls-19" x="202.47" y="305.63" width="10.32" height="4.46" rx="1.7" transform="matrix(0.68, -0.73, 0.73, 0.68, -159.31, 250.9)"/></g><g id="freepik--character-1--inject-7"><circle class="cls-17" cx="343.67" cy="185.59" r="45.49"/><path class="cls-2" d="M366.27,184.75a15.37,15.37,0,0,0-4.74-3.14l-11.09-2.83-12-.54L326,181.6l.44,18.24,1.08,15.42-3,11.93A47.51,47.51,0,0,0,341,231h4.76a47.32,47.32,0,0,0,13.87-2.79l-2.61-15,2.9-13.21,9.94.3s-1.31-8.55-1.59-10.52A16.7,16.7,0,0,0,366.27,184.75Z"/><g class="cls-11"><path d="M359.11,223a48.36,48.36,0,0,0-5.5-19.34c-1.44-2.74-3.35-5.51-6.25-6.62-3.16-1.22-6.85-.13-9.5,2a24.51,24.51,0,0,0-6,8.07,120.46,120.46,0,0,0-7.86,18.1l1,.8a7.58,7.58,0,0,0,6-2.11,15.38,15.38,0,0,0,3.58-5.45c.85-2,1.5-4.12,2.39-6.13a10.52,10.52,0,0,1,2.93-4.16,4.67,4.67,0,0,1,4.82-.7,5.06,5.06,0,0,1,2.23,2.65,26.86,26.86,0,0,1,1,3.39,21.29,21.29,0,0,0,4.88,8.67,11.28,11.28,0,0,0,3.5,2.67c.77.34,1.8.5,2.35-.13A2.28,2.28,0,0,0,359.11,223Z"/></g><path class="cls-20" d="M318.47,195.42s-.93,11.88-.84,14.86c.1,3.95,0,10.26,1.36,12.53a6.25,6.25,0,0,0,6.9,2.37c1.94-.83,11.42-20.25,11.35-20.67h0l-4.65-3.83-5.87,5.5.18-10Z"/><path class="cls-2" d="M325.9,181.61a10,10,0,0,0-5.76,6.22c-1.43,4.76-2.71,10.16-2.71,10.16l9.43,1.09.59-7.44Z"/><path class="cls-1" d="M337.83,148.14a2.72,2.72,0,0,0-3.68-1.1,2.61,2.61,0,0,0-1.17,1.24,4.57,4.57,0,0,1-.55,1.16c-.73.9-2.43.55-3,1.52s.64,2.42.24,3.59c-.32.93-1.56,1.29-1.89,2.22-.44,1.23,1,2.56.54,3.8-.38,1.06-1.92,1.37-2.22,2.45s1.09,2.27,1,3.51c-.12,1.59-2.59,2.32-2.46,3.9.08.88,1,1.51,1.09,2.39.19,1.62-2.38,2.62-2.17,4.26.09.77.79,1.31,1.39,1.8a2.11,2.11,0,0,1,1,2c-.2.8-1.08,1.16-1.63,1.79-.79,1,.24,3.64,1.35,4.2l4.95-3.25s.54-1,1-.36l7.48-2.89,1.17-6.83Z"/><path class="cls-16" d="M325.36,184.75a.18.18,0,0,1-.1-.07.51.51,0,0,1-.13-.33.88.88,0,0,1,.16-.54,1.11,1.11,0,0,1,.65-.43c.31-.07.63-.13.95-.17a1.38,1.38,0,0,0,.94-.54.68.68,0,0,0,.07-.54,2.59,2.59,0,0,0-.32-.59,1.61,1.61,0,0,1-.26-.7,1.23,1.23,0,0,1,.24-.74c.14-.23.31-.43.45-.66a1.27,1.27,0,0,0,.29-.72,1.16,1.16,0,0,0-.3-.75c-.18-.22-.4-.42-.6-.66a1.09,1.09,0,0,1-.27-.93.87.87,0,0,1,.26-.44,1.94,1.94,0,0,1,.43-.27c.31-.13.63-.21.94-.33a1.87,1.87,0,0,0,.81-.51,1.12,1.12,0,0,0,.2-.92,6.82,6.82,0,0,0-.31-1,4.6,4.6,0,0,1-.28-1.09,2.23,2.23,0,0,1,.25-1.11,13.32,13.32,0,0,0,1.09-2,1.67,1.67,0,0,0-.09-1.08,10.4,10.4,0,0,0-.54-1,2.49,2.49,0,0,1-.35-1.16,1.83,1.83,0,0,1,.47-1.09c.26-.3.55-.54.8-.83a1.81,1.81,0,0,0,.54-.92,1.57,1.57,0,0,0-.19-1c-.15-.33-.35-.64-.51-1a1.76,1.76,0,0,1,.18-2.06c.19-.29.41-.54.57-.83a1.42,1.42,0,0,0,.19-.9c-.11-.62-.54-1.13-.63-1.78a1.19,1.19,0,0,1,.25-.89,4.1,4.1,0,0,1,.63-.62,2.75,2.75,0,0,0,.54-.59,1.49,1.49,0,0,0,.23-.71,14.61,14.61,0,0,0,0-1.48,2.82,2.82,0,0,1,.48-1.25,2.61,2.61,0,0,1,1.76-1.12,2.85,2.85,0,0,1,1.33.11,1.65,1.65,0,0,1,.42.21,2.26,2.26,0,0,0-.43-.17,2.76,2.76,0,0,0-1.31-.08,2.64,2.64,0,0,0-2.13,2.31,12.16,12.16,0,0,0,0,1.48,1.68,1.68,0,0,1-.26.78,3.41,3.41,0,0,1-.58.62,3.72,3.72,0,0,0-.6.59,1,1,0,0,0-.22.8c.07.58.54,1.08.63,1.77a1.52,1.52,0,0,1-.2,1c-.17.3-.38.57-.57.84a1.58,1.58,0,0,0-.16,1.89c.15.32.35.62.51,1a1.86,1.86,0,0,1,.21,1.13,2,2,0,0,1-.54,1c-.26.29-.54.55-.79.83a1.57,1.57,0,0,0-.43,1,2.46,2.46,0,0,0,.32,1.09,11,11,0,0,1,.55,1.08,1.94,1.94,0,0,1,.08,1.19,12.43,12.43,0,0,1-1.08,2,2,2,0,0,0-.24,1,3.88,3.88,0,0,0,.26,1,5.82,5.82,0,0,1,.32,1,1.31,1.31,0,0,1-.23,1.05,2,2,0,0,1-.89.54c-.32.12-.63.21-.93.33a.83.83,0,0,0-.37,1.4c.18.23.41.43.6.67a1.33,1.33,0,0,1,.33.83,1.56,1.56,0,0,1-.32.8c-.15.22-.32.43-.46.65a1.14,1.14,0,0,0-.22.67,1.26,1.26,0,0,0,.24.64,2.77,2.77,0,0,1,.31.62.71.71,0,0,1-.08.65,1.48,1.48,0,0,1-1,.55,6.31,6.31,0,0,0-1,.14,1,1,0,0,0-.62.39.87.87,0,0,0-.17.52A.51.51,0,0,0,325.36,184.75Z"/><path class="cls-20" d="M351.9,154.27a2.13,2.13,0,0,0-1.9-2.17l-11.39-2.75c-3.64-.34-6,4.17-6.2,7.82a65.56,65.56,0,0,0,.21,12.05c1,6.08,5.72,6.8,5.72,6.8s-.06,1.88-.09,4.53a6.41,6.41,0,0,0,6.34,6.47h.21a6.42,6.42,0,0,0,6.26-6.18Z"/><path class="cls-1" d="M334.51,161.86a.78.78,0,0,0,.76.78.74.74,0,0,0,.79-.69h0a.77.77,0,0,0-.76-.77.73.73,0,0,0-.79.68Z"/><path class="cls-1" d="M333.58,159.37c.1.1.69-.34,1.53-.35s1.46.4,1.54.3,0-.23-.32-.42a2.12,2.12,0,0,0-2.45,0C333.62,159.15,333.53,159.33,333.58,159.37Z"/><path class="cls-1" d="M342.6,162.17a.8.8,0,0,0,.78.77.75.75,0,0,0,.8-.68h0a.76.76,0,0,0-.76-.78h0a.74.74,0,0,0-.81.66v0Z"/><path class="cls-1" d="M341.84,159.83c.1.1.69-.35,1.53-.35s1.46.4,1.55.3-.05-.23-.33-.42a2.12,2.12,0,0,0-2.45,0C341.88,159.6,341.8,159.78,341.84,159.83Z"/><path class="cls-1" d="M338.87,166.09a5.86,5.86,0,0,0-1.37-.23c-.21,0-.42-.06-.46-.2a1.2,1.2,0,0,1,.14-.64l.62-1.63a26.77,26.77,0,0,0,1.37-4.29,28.53,28.53,0,0,0-1.71,4.17l-.59,1.63a1.31,1.31,0,0,0-.11.85.58.58,0,0,0,.36.31h.36A5.39,5.39,0,0,0,338.87,166.09Z"/><path class="cls-21" d="M338.26,176a15.49,15.49,0,0,0,8.14-2.28s-2,4.21-8.14,3.71Z"/><path class="cls-1" d="M341.42,157.64c.09.23.92.11,1.91.22s1.79.37,1.92.16-.09-.31-.41-.54a3.16,3.16,0,0,0-1.42-.48,3.3,3.3,0,0,0-1.49.19C341.57,157.36,341.38,157.52,341.42,157.64Z"/><path class="cls-1" d="M333.87,157.33c.15.19.72,0,1.42,0s1.29.11,1.42-.09,0-.29-.29-.47a2,2,0,0,0-1.17-.31,1.94,1.94,0,0,0-1.13.4C333.88,157,333.8,157.24,333.87,157.33Z"/><path class="cls-1" d="M337.08,149.17c-.4.73,1,2.21,1.77,2.52s1.8.23,2.17,1-.62,2.1,1,3.08c.51.3,1.3-.23,1.71.18s-.24,1.34-.26,2.07c0,1.42,2.54,1.68,2.63,3.09,0,.89-1,1.68-.68,2.52s1.72.87,2,1.72c.38,1.09-1.49,1.94-1.33,3.1s2.06,1.25,2.38,2.37-.84,1.91-.54,2.85,2.13,1,2.55,2.08c.5,1.26-1.53,2.57-.93,3.79.2.41.7.58,1,.94a3.82,3.82,0,0,1-.37,4.5h.71a6.55,6.55,0,0,0,5.54-2.71h0l.51,1.41a14.71,14.71,0,0,0,5.09-2.85,3,3,0,0,1,2.8-.44l.41.13a7.29,7.29,0,0,0,4.08-1c-1.39-.36-2.06-1.94-2.33-3.34s-.39-3-1.39-4-3-1.47-3.47-3c-.34-1.17.5-2.44.19-3.61s-1.63-1.85-2.12-3c-.63-1.55.54-3.49-.31-4.94s-3.61-1.51-4.27-3.2c-.37-.94,0-2.17-.64-2.91-.54-.59-1.54-.54-2.12-1.11-.84-.83-.32-2.38-1-3.32-1-1.26-3.19-.33-4.48-1.26-.82-.58-1-1.76-1.84-2.36-1.09-.82-2.62-.22-3.94.15-1,.29-2.07.43-3,.8a3.92,3.92,0,0,0-2.35,2,2.13,2.13,0,0,0,.94,2.72"/><path class="cls-16" d="M353.93,182.61l.17-.06.5-.19a1.82,1.82,0,0,0,.67-.49,1,1,0,0,0,.18-1,.8.8,0,0,0-.49-.41c-.22-.08-.47-.13-.73-.23a.81.81,0,0,1-.34-.24.67.67,0,0,1-.16-.42,1.81,1.81,0,0,1,.36-.84,1.87,1.87,0,0,0,.34-.84,1.72,1.72,0,0,0-.12-.95,1.76,1.76,0,0,0-1.69-1h-.07v-.07a2.56,2.56,0,0,1,.6-1.47,10.85,10.85,0,0,0,1-1.34,2.25,2.25,0,0,0,.24-.8,1.14,1.14,0,0,0-.21-.78,4.17,4.17,0,0,0-1.54-.89,1.47,1.47,0,0,1-.69-.7,1.38,1.38,0,0,1,.05-1,5.5,5.5,0,0,0,.69-1.79,1.35,1.35,0,0,0-.31-.86,3.05,3.05,0,0,0-.72-.67,13.43,13.43,0,0,1-1.74-1.15,1.81,1.81,0,0,1-.63-1.14,2.8,2.8,0,0,1,.19-1.28,9.94,9.94,0,0,0,.4-1.16,1.9,1.9,0,0,0,.09-.58,1.13,1.13,0,0,0-.16-.54,1.71,1.71,0,0,0-.88-.69,7.16,7.16,0,0,1-1.09-.5,1.38,1.38,0,0,1-.63-1,3,3,0,0,1,.13-1.14c.1-.36.21-.72.28-1.06a2.11,2.11,0,0,0,0-1,1.57,1.57,0,0,0-.6-.77,3.59,3.59,0,0,0-.88-.43c-.62-.15-1.24-.33-1.84-.54a2.18,2.18,0,0,1-.77-.5,2.6,2.6,0,0,1-.49-.73c-.23-.54-.35-1.05-.54-1.51a2.85,2.85,0,0,0-.8-1.14,2.62,2.62,0,0,0-2.1-.58,2.8,2.8,0,0,0-1.29.58,4,4,0,0,0-.36.35,1.65,1.65,0,0,1,.33-.37,2.81,2.81,0,0,1,1.31-.63,2.71,2.71,0,0,1,2.17.58,2.82,2.82,0,0,1,.83,1.16c.2.48.32,1,.54,1.51a2.72,2.72,0,0,0,.47.69,2.1,2.1,0,0,0,.74.46c.54.24,1.19.33,1.83.54a4.13,4.13,0,0,1,.92.45,1.82,1.82,0,0,1,.66.84,2.19,2.19,0,0,1,0,1.08c-.06.36-.18.72-.27,1.09a2.84,2.84,0,0,0-.13,1.08,1.24,1.24,0,0,0,.57.88,5.89,5.89,0,0,0,1.05.49,1.77,1.77,0,0,1,1,.76,1.35,1.35,0,0,1,.18.61,2.72,2.72,0,0,1-.08.63c-.11.42-.28.79-.41,1.19a2.69,2.69,0,0,0-.19,1.19,1.66,1.66,0,0,0,.58,1,14,14,0,0,0,1.71,1.13,2.9,2.9,0,0,1,.77.71,1.66,1.66,0,0,1,.35,1,6,6,0,0,1-.7,1.84,1.22,1.22,0,0,0-.06.88,1.19,1.19,0,0,0,.61.6c.26.15.54.25.84.39a1.93,1.93,0,0,1,.75.54,1.37,1.37,0,0,1,.24.9,2.27,2.27,0,0,1-.26.85,8.44,8.44,0,0,1-1,1.37,2.3,2.3,0,0,0-.55,1.39l-.07-.07a1.9,1.9,0,0,1,1.81,1.13,1.93,1.93,0,0,1-.25,1.91,1.84,1.84,0,0,0-.34.77.6.6,0,0,0,.44.54c.23.1.48.15.71.24a1,1,0,0,1,.55.45,1,1,0,0,1,0,.63,1.38,1.38,0,0,1-.25.5,2,2,0,0,1-.71.48A4.25,4.25,0,0,1,353.93,182.61Z"/><path class="cls-16" d="M363.88,180a2.18,2.18,0,0,0,.28-.46,1.93,1.93,0,0,0,0-1.49,1.79,1.79,0,0,0-.72-.82,4,4,0,0,1-.54-.37.9.9,0,0,1-.34-.62c0-.55.34-1,.36-1.49a.81.81,0,0,0-.32-.68,3.55,3.55,0,0,0-.75-.45,3.41,3.41,0,0,1-.79-.5,1.3,1.3,0,0,1-.45-.88,11.26,11.26,0,0,1,.24-2,1.65,1.65,0,0,0-.2-1,1.89,1.89,0,0,0-.83-.65,9.4,9.4,0,0,1-1-.51,1.33,1.33,0,0,1-.67-1,4.26,4.26,0,0,1,.13-1.23,1.45,1.45,0,0,0-.16-1.13,2.38,2.38,0,0,0-1-.65,2,2,0,0,1-1.05-.79,2,2,0,0,1-.16-1.34,7.93,7.93,0,0,1,.4-1.28,3.37,3.37,0,0,0,.25-1.29,1.45,1.45,0,0,0-.6-1.08,3.69,3.69,0,0,0-1.23-.51c-.44-.11-.88-.21-1.31-.36a2.64,2.64,0,0,1-1.15-.73,3.16,3.16,0,0,1-.62-1.19,24.28,24.28,0,0,1-.37-2.54,4.25,4.25,0,0,0-.32-1.16,2.25,2.25,0,0,0-.75-.87,4.23,4.23,0,0,0-2.22-.37,4.76,4.76,0,0,1-1.13-.1,2.33,2.33,0,0,1-1-.48,7.94,7.94,0,0,1-1.19-1.69,4.12,4.12,0,0,0-.57-.75,3.52,3.52,0,0,0-.72-.55,4.39,4.39,0,0,0-3.12-.36,6.34,6.34,0,0,0-2.17,1.09,10,10,0,0,0-1.16,1c-.12.13-.22.22-.28.3l-.1.1a.83.83,0,0,1,.08-.12l.27-.3a8.33,8.33,0,0,1,1.14-1,6.34,6.34,0,0,1,2.17-1.09,4.47,4.47,0,0,1,3.21.35,4,4,0,0,1,.75.54,4.5,4.5,0,0,1,.6.78A6.93,6.93,0,0,0,346,149.9a2,2,0,0,0,.92.45,5.67,5.67,0,0,0,1.09.1h1.15a2.49,2.49,0,0,1,1.16.35,2.31,2.31,0,0,1,.81.94,4.64,4.64,0,0,1,.34,1.21c.13.83.16,1.69.37,2.52a3,3,0,0,0,.58,1.12,2.44,2.44,0,0,0,1.08.67c.43.14.86.26,1.3.36a4.07,4.07,0,0,1,1.29.54,1.7,1.7,0,0,1,.67,1.23,3.33,3.33,0,0,1-.26,1.36,8,8,0,0,0-.39,1.26,1.81,1.81,0,0,0,.13,1.21,2,2,0,0,0,1,.73,2.55,2.55,0,0,1,1.09.71,1.27,1.27,0,0,1,.23.62,2.68,2.68,0,0,1-.05.63,4.69,4.69,0,0,0-.13,1.18,1.16,1.16,0,0,0,.6.89c.33.18.67.35,1,.5a2,2,0,0,1,.89.71,1.72,1.72,0,0,1,.21,1.09,13.48,13.48,0,0,0-.24,2,1.17,1.17,0,0,0,.4.81,3.75,3.75,0,0,0,.76.48,3.38,3.38,0,0,1,.77.47,1,1,0,0,1,.35.78c0,.57-.41,1-.38,1.47a.83.83,0,0,0,.31.54,5.14,5.14,0,0,0,.54.37,1.75,1.75,0,0,1,.73.86,1.94,1.94,0,0,1,0,1.53A1.1,1.1,0,0,1,363.88,180Z"/><path class="cls-21" d="M339.78,168.88a1.16,1.16,0,0,1,.13-1.33,1.14,1.14,0,0,1,1.32-.22,1.81,1.81,0,0,1,.63.66,1.21,1.21,0,0,1,.21.92,1,1,0,0,1-.55.54,1.41,1.41,0,0,1-1.17,0,1.26,1.26,0,0,1-.74-.88"/><path class="cls-1" d="M341.86,167.2c.07,0,.08.22,0,.54a2.15,2.15,0,0,1-2,1.31c-.32,0-.51-.11-.5-.18a8,8,0,0,0,1.4-.62C341.4,167.81,341.71,167.15,341.86,167.2Z"/><rect class="cls-16" x="336.52" y="180.46" width="10.42" height="19.86" rx="1.92" transform="translate(-25.6 55.87) rotate(-9.01)"/><path class="cls-20" d="M343.54,191.69a9.44,9.44,0,0,0-2.23.48l-5.16,1.57,1.27-2.21s4.19-1.45,5.05-1.85a.55.55,0,0,0,.32-.69.94.94,0,0,0-1.09-.64l-5.89,1.08-3.48,4.19.82,5.2-.86,2.17L337,204.7s2.54-1.94,2.72-2.56a2.4,2.4,0,0,0,0-1.13l3.25-1.7a.93.93,0,0,0,.47-1v-.1l-4.43.38,4.64-1.59a.62.62,0,0,0-.24-1.21l-5.64.36,4.34-2.29a20.16,20.16,0,0,0,2.13-1.18C344.71,192.31,344.4,191.69,343.54,191.69Z"/><path class="cls-21" d="M327.47,205.47l-.26.3-.76.76c-.64.64-1.56,1.5-2.48,2.53a16.2,16.2,0,0,0-1.23,1.51,12.5,12.5,0,0,0-.84,1.34c-.43.79-.6,1.34-.63,1.32a2.26,2.26,0,0,1,.11-.37,3.34,3.34,0,0,1,.17-.44c.07-.18.16-.36.25-.54a10,10,0,0,1,.83-1.37,17.78,17.78,0,0,1,1.22-1.53c.94-1,1.86-1.89,2.53-2.5l.78-.73Z"/><path class="cls-15" d="M341.09,182.84a.48.48,0,1,1-.55-.4h0a.47.47,0,0,1,.54.39Z"/><path class="cls-20" d="M352.23,191.22l-3.25-3.6s-6.23-1-7-.76c-.54.2-.5,1-.44,1.41a.67.67,0,0,0,0,.2l.85.39L346,189l2.3,1-1.5-.43h-4.19a1.44,1.44,0,0,0-1.35.87v.27c0,.54,1.82.76,1.82.76l3.21.42,1.39,1.82-4-.55a11.82,11.82,0,0,0-2.3,1.47c-.13.32,1.75.81,1.89.79s3.15.85,3.15.85l-2.75.54-2.89,1,1.31.37,2.38-.07,2.17.66.2,1.84s1.18,1.72,2.06,2,3.52-4.76,3.52-4.76l-.11-2.22.23-2.14-.47-1.2Z"/><path class="cls-20" d="M349,202.72l7.46,19.38a6.37,6.37,0,0,0,6.68,3.26c4.34-.69,4.6-9.09,4.6-9.09l.45-16.13L360,200l-.6,8.47-6.84-10.5Z"/><path class="cls-21" d="M364,219.26a2.73,2.73,0,0,1-.05-.5,2.28,2.28,0,0,0-.05-.58,2.43,2.43,0,0,0-.09-.77,16.44,16.44,0,0,0-1.22-4.29,16.13,16.13,0,0,0-1.16-2.17,15.71,15.71,0,0,0-1.18-1.63c-.18-.22-.35-.41-.51-.58s-.28-.32-.39-.43-.23-.24-.34-.37a3.9,3.9,0,0,1,.38.33,5.44,5.44,0,0,1,.42.41l.54.57a16.08,16.08,0,0,1,1.22,1.63,15.37,15.37,0,0,1,2.38,6.53c0,.28.05.54.07.77a5.81,5.81,0,0,1,0,.59A4,4,0,0,1,364,219.26Z"/><path class="cls-1" d="M389.16,185.59v-.73a19.58,19.58,0,0,0-.1-2.17,46.48,46.48,0,0,0-1.3-8.21,44.29,44.29,0,0,0-1.87-5.71,45.27,45.27,0,0,0-3.16-6.4,46,46,0,0,0-11.54-12.89,45.38,45.38,0,0,0-19.1-8.47,45.91,45.91,0,0,0-17.79.24,47.09,47.09,0,0,0-6.07,1.7,45.43,45.43,0,0,0-24.78,21.78c-.54,1-1,2.12-1.52,3.21a30.62,30.62,0,0,0-1.25,3.35,44.21,44.21,0,0,0-1.74,7,44.71,44.71,0,0,0,0,14.6,43.12,43.12,0,0,0,1.73,7c.36,1.14.81,2.24,1.25,3.35a29.4,29.4,0,0,0,1.52,3.21,44,44,0,0,0,3.7,6,45.39,45.39,0,0,0,21.09,15.81,47.07,47.07,0,0,0,6.06,1.73,46.16,46.16,0,0,0,17.8.23,45.31,45.31,0,0,0,19.11-8.48,46,46,0,0,0,11.54-12.89A45.53,45.53,0,0,0,389,188.52c.09-1,.06-1.68.1-2.17a3.45,3.45,0,0,0,0-.74v.74c0,.49,0,1.21-.07,2.17a44.84,44.84,0,0,1-1.25,8.23,45.9,45.9,0,0,1-1.84,5.72,45.2,45.2,0,0,1-3.16,6.44,46,46,0,0,1-11.55,13A45.39,45.39,0,0,1,352,230.46a46.28,46.28,0,0,1-17.9-.19,47.64,47.64,0,0,1-6.1-1.73,45.67,45.67,0,0,1-25-21.89c-.54-1.05-1-2.14-1.53-3.23a29.06,29.06,0,0,1-1.26-3.37,45.08,45.08,0,0,1-1.74-7.05,45.82,45.82,0,0,1,0-14.69,45.08,45.08,0,0,1,1.74-7.05c.37-1.15.82-2.27,1.26-3.38a29.69,29.69,0,0,1,1.54-3.22,44.09,44.09,0,0,1,3.72-6A45.66,45.66,0,0,1,328,142.77a49.37,49.37,0,0,1,6.1-1.74,46.28,46.28,0,0,1,17.9-.19,45.39,45.39,0,0,1,19.19,8.55,46,46,0,0,1,11.55,13A45.19,45.19,0,0,1,386,168.8a45.9,45.9,0,0,1,1.84,5.72,44.84,44.84,0,0,1,1.25,8.23c.07.95,0,1.68.07,2.17A3.75,3.75,0,0,1,389.16,185.59Z"/></g><path class="cls-22" d="M120.26,325.16h-18.5a5,5,0,0,0-5,5v14.44a5,5,0,0,0,5,5.05h6.8l2.45,5.95,2.45-5.95h6.8a5.06,5.06,0,0,0,5-5.05V330.21A5.06,5.06,0,0,0,120.26,325.16Z"/><path class="cls-23" d="M104,332.43c1.83-2.89,5.25-1.73,7,.56,1.8-2.25,5.25-3.32,7-.38,3,4.95-3.33,9.44-6.3,11.18l-.85.5c-.23-.13-.5-.31-.84-.52C107.14,342,101,337.32,104,332.43Z"/><path class="cls-22" d="M89.06,353.93H76.66a3.38,3.38,0,0,0-3.38,3.39V367a3.38,3.38,0,0,0,3.38,3.38h4.56l1.64,4,1.64-4h4.56A3.38,3.38,0,0,0,92.44,367v-9.68A3.39,3.39,0,0,0,89.06,353.93Z"/><path class="cls-23" d="M78.18,358.81c1.23-1.94,3.53-1.16,4.7.37,1.2-1.5,3.51-2.23,4.7-.26,2,3.33-2.24,6.33-4.23,7.5l-.57.34-.56-.35C80.26,365.19,76.11,362.08,78.18,358.81Z"/><path class="cls-22" d="M315.51,146.48H304.19a3.09,3.09,0,0,0-3.09,3.09v8.84a3.09,3.09,0,0,0,3.09,3.09h4.16l1.5,3.64,1.5-3.64h4.16a3.09,3.09,0,0,0,3.09-3.09v-8.84A3.09,3.09,0,0,0,315.51,146.48Z"/><path class="cls-23" d="M305.58,150.93c1.13-1.77,3.22-1.06,4.29.34,1.1-1.37,3.21-2,4.29-.24,1.82,3-2,5.78-3.86,6.85-.2.13-.38.23-.52.31l-.51-.32C307.48,156.76,303.69,153.92,305.58,150.93Z"/><path class="cls-22" d="M127.2,46.59h-9.33a2.55,2.55,0,0,0-2.55,2.55v7.29A2.55,2.55,0,0,0,117.87,59h3.43l1.24,3,1.23-3h3.43a2.55,2.55,0,0,0,2.55-2.55V49.14A2.55,2.55,0,0,0,127.2,46.59Z"/><path class="cls-23" d="M119,50.26c.92-1.46,2.65-.87,3.53.28.91-1.13,2.65-1.68,3.54-.19,1.5,2.5-1.68,4.76-3.18,5.65l-.43.25-.42-.26C120.58,55.07,117.46,52.73,119,50.26Z"/></svg>