<svg id="Character" xmlns="http://www.w3.org/2000/svg" viewBox="0 0 400 480"><defs><style>.cls-1{fill:#959595;}.cls-2{fill:#e0e0e0;}.cls-3{fill:#263238;}.cls-4{fill:#ffbe9d;}.cls-5{fill:#fff;}.cls-6{fill:#455a64;}.cls-7{fill:#eb996e;}.cls-8{opacity:0.3;}</style></defs><path class="cls-1" d="M72.49,416.78l-.37,20.84S93.18,445,93.49,448.85l-40.43.73-.76-32.49Z"/><path class="cls-2" d="M59.59,436.09A1.65,1.65,0,0,0,58.48,438a1.58,1.58,0,0,0,1.88,1.11,1.74,1.74,0,0,0,1.16-2,1.64,1.64,0,0,0-2.08-.94"/><path class="cls-3" d="M53.06,449.58l0-3.27,38.74.52s1.82.75,1.64,2Z"/><path class="cls-3" d="M72.77,437.4c0,.2-1,.3-1.94,1s-1.47,1.49-1.65,1.41.09-1.22,1.27-2S72.81,437.22,72.77,437.4Z"/><path class="cls-3" d="M77.05,439.08c0,.19-.8.54-1.46,1.38s-.83,1.74-1,1.73-.34-1.12.49-2.15S77,438.89,77.05,439.08Z"/><path class="cls-3" d="M79.55,444.11c-.18,0-.47-.94,0-2s1.41-1.54,1.49-1.37-.47.75-.86,1.65S79.74,444.08,79.55,444.11Z"/><path class="cls-3" d="M72.33,432.64c-.08.18-1-.07-2.1,0s-2,.47-2.09.3.72-.89,2-1S72.42,432.48,72.33,432.64Z"/><path class="cls-1" d="M49,405.66l-14.46,15s10.4,19.74,8,22.77l-30.1-27L34,392.14Z"/><path class="cls-2" d="M26.38,411a1.66,1.66,0,0,0-2.11.64,1.6,1.6,0,0,0,.62,2.1,1.74,1.74,0,0,0,2.23-.69,1.65,1.65,0,0,0-.88-2.11"/><path class="cls-3" d="M12.41,416.44l2.27-2.36,28,26.77s.82,1.79-.18,2.59Z"/><path class="cls-3" d="M35.15,421c-.14.14-.94-.45-2.08-.62s-2.09.09-2.17-.09.89-.83,2.28-.59S35.3,420.85,35.15,421Z"/><path class="cls-3" d="M37.13,425.09c-.09.17-1-.15-2,0s-1.79.7-1.93.56.51-1.05,1.83-1.24S37.25,425,37.13,425.09Z"/><path class="cls-3" d="M35.54,430.48c-.17-.09.29-1,1.39-1.48s2.07-.17,2,0-.86.23-1.75.63S35.69,430.59,35.54,430.48Z"/><path class="cls-3" d="M38.06,417.17c-.18.07-.67-.73-1.55-1.42s-1.77-1-1.73-1.2,1.13-.16,2.15.66S38.24,417.12,38.06,417.17Z"/><path class="cls-4" d="M128.71,190.91l-17.78,11.74.27,4.65,4.63,9.79s2.15,2,8.44-4.34,14.27-19.05,14.27-19.05Z"/><path class="cls-3" d="M158.64,166.45a1.45,1.45,0,0,0-1.16-.86l-8.71-1.17a2.78,2.78,0,0,0-2.12.64l-24.94,21.42,1.13,1.1,9.36,2.25,26.61-23Z"/><path class="cls-5" d="M151.73,168.22a.53.53,0,0,0,.74.05.52.52,0,0,0,.26-.68.54.54,0,0,0-.75-.05A.51.51,0,0,0,151.73,168.22Z"/><path class="cls-6" d="M158.81,166.84a9.87,9.87,0,0,1-1.71-.13l-4.64-.54-3.2-.4a1.84,1.84,0,0,0-1.51.39l-1.42,1.23L140,172.88c-4.53,3.89-8.65,7.38-11.65,9.89l-3.58,2.95a10.69,10.69,0,0,1-1.35,1,11,11,0,0,1,1.22-1.18l3.46-3.07c2.94-2.58,7-6.12,11.56-10L146,167l1.45-1.23a2.31,2.31,0,0,1,1.85-.47l3.2.47,4.62.7A10,10,0,0,1,158.81,166.84Z"/><path class="cls-4" d="M149.76,171.31s-.79-.38-1.89,1.78-4.42,8.3-4.42,8.3l-3.72-3.56-5.68-.82s-1.51.77-.8,1.62,4,2.43,4,2.43l1.52,4.39-6.34-5.59s-2.62-.05-2.32,1.65,3.93,7.75,3.93,7.75l-3.6-1.31-3.62-3.88s-1.36-.31-1.18,1,3.57,6.68,3.57,6.68l4.75,4.21s3.08.61,3.61-.19a10.65,10.65,0,0,0,1-2s1.71,0,2.23-.68a5,5,0,0,0,.66-2s2.39,1.14,3.09-.17a16.59,16.59,0,0,0,1.26-5.28c.05-1.14,4.17-10.76,4.15-11.09S151.52,171.09,149.76,171.31Z"/><path class="cls-7" d="M137.76,195.8a3.11,3.11,0,0,1-1.56,0,10.18,10.18,0,0,1-6.48-3.6c-.6-.76-.85-1.32-.79-1.35s1.47,1.89,4,3.25S137.78,195.62,137.76,195.8Z"/><path class="cls-7" d="M137,193.46c-.12.11-.95-.68-1.75-1.83s-1.26-2.2-1.12-2.27.81.81,1.6,1.94S137.14,193.36,137,193.46Z"/><path class="cls-7" d="M141.24,189.52c-.12.11-1-.66-1.67-1.84s-1-2.27-.89-2.33.69.89,1.39,2S141.37,189.42,141.24,189.52Z"/><path class="cls-7" d="M145.36,186.55a14.82,14.82,0,0,1-1-2.54,15.67,15.67,0,0,1-1-2.51c.12-.1,1,.84,1.59,2.29A4.34,4.34,0,0,1,145.36,186.55Z"/><path class="cls-4" d="M102.39,167.37c-6.76-.23-21-19.82-20.89-26.58L82,100.12C81.82,89.19,88,80,98.94,80.06l1,.06a19.56,19.56,0,0,1,18.24,19.24c.12,9.47.14,19.94-.26,25-.84,10.45-11.41,11.38-11.41,11.38s-.1,2.43-.17,5.5c-.17,6.92,2.54,26.33-4.38,26.09Z"/><path class="cls-7" d="M106.52,135.74a25.36,25.36,0,0,1-13.36-5s2.75,8.09,13.26,7.85Z"/><path class="cls-3" d="M114.65,107.94a1.51,1.51,0,0,1-1.55,1.41,1.44,1.44,0,0,1-1.45-1.45,1.5,1.5,0,0,1,1.54-1.41A1.44,1.44,0,0,1,114.65,107.94Z"/><path class="cls-3" d="M115.65,103.83c-.2.18-1.27-.73-2.88-.83s-2.84.62-3,.41.14-.43.68-.77a4.09,4.09,0,0,1,2.42-.58,4,4,0,0,1,2.27.91C115.6,103.39,115.75,103.75,115.65,103.83Z"/><path class="cls-3" d="M99.93,107.61A1.5,1.5,0,0,1,98.38,109a1.44,1.44,0,0,1-1.45-1.45,1.5,1.5,0,0,1,1.54-1.41A1.44,1.44,0,0,1,99.93,107.61Z"/><path class="cls-3" d="M99.86,103.14c-.2.19-1.28-.73-2.89-.83s-2.84.62-3,.41.13-.43.67-.77a4.13,4.13,0,0,1,2.42-.57,3.91,3.91,0,0,1,2.28.91C99.81,102.7,100,103.06,99.86,103.14Z"/><path class="cls-3" d="M104.8,115.89a10.74,10.74,0,0,1,2.64-.3c.41,0,.81-.07.9-.34a2.15,2.15,0,0,0-.2-1.24c-.31-1-.65-2.09-1-3.21-1.39-4.56-2.36-8.31-2.18-8.36s1.46,3.6,2.85,8.17l1,3.22a2.37,2.37,0,0,1,.1,1.63,1,1,0,0,1-.71.55,2.62,2.62,0,0,1-.71.06A10.83,10.83,0,0,1,104.8,115.89Z"/><path class="cls-3" d="M100.12,97.12c-.25.4-1.78-.14-3.68-.31s-3.5,0-3.66-.41c-.07-.21.27-.56,1-.85a6.37,6.37,0,0,1,5.59.56C100,96.52,100.23,96.93,100.12,97.12Z"/><path class="cls-3" d="M115.52,100.05c-.35.34-1.64-.11-3.22-.21s-2.92.1-3.21-.3c-.12-.19.11-.55.71-.86a5.35,5.35,0,0,1,5.18.4C115.52,99.49,115.68,99.87,115.52,100.05Z"/><path class="cls-4" d="M82.36,107.93c-.17-.09-7-2.61-7.3,4.56s7,5.94,7,5.74S82.36,107.93,82.36,107.93Z"/><path class="cls-7" d="M80,115.43s-.12.09-.34.18a1.24,1.24,0,0,1-.93,0,3.09,3.09,0,0,1-1.34-2.82,4.24,4.24,0,0,1,.42-1.78,1.43,1.43,0,0,1,1-.92.65.65,0,0,1,.73.36c.08.21,0,.35.07.36s.16-.11.11-.41a.81.81,0,0,0-.26-.46,1,1,0,0,0-.69-.2,1.72,1.72,0,0,0-1.34,1.06,4.24,4.24,0,0,0-.51,2c0,1.45.69,2.83,1.72,3.17a1.38,1.38,0,0,0,1.15-.15C80,115.61,80,115.45,80,115.43Z"/><path class="cls-3" d="M100.35,116.64c-.1,0-.17.4,0,1a4,4,0,0,0,1.24,2.14,6.63,6.63,0,0,0,2.06,1.26c.57.22,1,.3,1,.2s-.25-.33-.74-.67a15.52,15.52,0,0,1-1.79-1.35C100.78,118.12,100.58,116.6,100.35,116.64Z"/><path class="cls-3" d="M48.29,241.32l-4.64,28.86L47,294l.14,5.19,3.44,25.44s-1.28,24-1.91,29.18,1.61,78.5,1.61,78.5l23.32-1s8.82-108.74,8.79-109.93S94.55,240,94.55,240Z"/><path class="cls-3" d="M107.24,245.78s-.47,97.67-2.64,103.31-63.45,66.36-63.45,66.36l-19.4-15.12,49.54-66.67,3-93.06Z"/><path class="cls-6" d="M91,271.31c.13,0-2.77,24.68-6.48,55.08s-6.81,55-7,55,2.77-24.68,6.48-55.09S90.84,271.3,91,271.31Z"/><path class="cls-6" d="M50.62,324.66v.24c0,.19,0,.42,0,.71,0,.65-.11,1.56-.19,2.71-.2,2.35-.41,5.75-.67,10-.47,8.41-.87,20.06-.76,32.92s.48,24.51.69,32.94c.1,4.19.18,7.59.24,10,0,1.15,0,2.05,0,2.71,0,.29,0,.52,0,.71a.87.87,0,0,1,0,.24.75.75,0,0,1,0-.24c0-.19,0-.42,0-.71,0-.65-.07-1.56-.12-2.71-.09-2.39-.22-5.79-.39-10-.3-8.42-.76-20.07-.84-32.95s.35-24.53.91-32.94c.3-4.21.57-7.61.82-10,.12-1.14.22-2.05.28-2.7,0-.29.07-.52.09-.7A.68.68,0,0,1,50.62,324.66Z"/><path class="cls-6" d="M74.19,269.25c.06.12-4.18,2.35-9.48,5s-9.64,4.69-9.7,4.57,4.19-2.36,9.49-5S74.13,269.13,74.19,269.25Z"/><path class="cls-1" d="M121.16,193.69l11.71,10.53s-18.33,20-24,24.45,1.81-30.22,1.81-30.22Z"/><path class="cls-1" d="M81.4,131.08l-4.87,6.75-19,7L49,209.28l-5.42,57.55S51.14,256,57,255.85s35.19,8.06,37.18,9.57l3.88-13,3.14,15.08s5.52,1.24,8.4-7l-1.22-28.59s3.88-51.56,3.66-59.33-5.47-29.37-5.47-29.37l-2,6.37L87.49,135Z"/><path class="cls-1" d="M63.05,142.87s-12.45,0-16.47,23S36.76,213.71,39.74,223s14.68,35.91,14.68,35.91l16-5.78-6.58-41.86,7.62-41S72.44,144.56,63.05,142.87Z"/><path class="cls-4" d="M77.37,262.34s-7.64-9-8.23-8.77l-12.7,4.58a52.43,52.43,0,0,0,.09,9.8c.49,4.7,1.3,9.72,1.3,9.72l16.71-8.91a29.71,29.71,0,0,0,1.63,5.43c.93,1.94,4.15-.12,4.15-.12Z"/><path class="cls-3" d="M71.5,170.25s0,.25-.11.74-.21,1.21-.37,2.14c-.34,1.9-.84,4.66-1.48,8.2-1.3,7.12-3.18,17.37-5.48,29.93v-.06c1.89,11.92,4.15,26.2,6.63,41.86l0,.19-.18.06-16,5.79-.21.08L54.2,259l-5.1-11.82c-3.06-7.25-6-14.34-8.61-21.31-.33-.87-.61-1.75-.91-2.63-.14-.44-.23-.9-.35-1.35A7.93,7.93,0,0,1,39,220.5a23.05,23.05,0,0,1-.24-2.73c0-.91-.07-1.81,0-2.71a92.76,92.76,0,0,1,.88-10.45c.88-6.77,2.08-13.15,3.17-19.11s2.15-11.51,3.1-16.58c.43-2.54.93-4.95,1.44-7.23.32-1.12.63-2.2.94-3.26s.75-2,1.11-3a24.9,24.9,0,0,1,5.75-8.75,14.7,14.7,0,0,1,5.66-3.42,9.63,9.63,0,0,1,1.69-.37l.44,0h.15l-.58.08a10.25,10.25,0,0,0-1.67.41,14.92,14.92,0,0,0-5.56,3.46,24.77,24.77,0,0,0-5.63,8.73c-.35,1-.74,1.94-1.09,3s-.6,2.13-.92,3.25c-.49,2.26-1,4.66-1.4,7.21-.93,5.07-2,10.63-3,16.59s-2.25,12.34-3.12,19.1a94.68,94.68,0,0,0-.87,10.4,26.67,26.67,0,0,0,0,2.68,21.86,21.86,0,0,0,.23,2.68,8.31,8.31,0,0,0,.25,1.32c.11.44.19.88.33,1.32.3.86.59,1.74.91,2.61,2.57,6.95,5.55,14,8.62,21.28l5.09,11.82-.3-.13,16-5.78-.15.26c-2.44-15.66-4.67-29.95-6.53-41.88v-.06c2.37-12.55,4.3-22.78,5.64-29.9.68-3.53,1.21-6.29,1.57-8.18l.42-2.13C71.43,170.5,71.5,170.25,71.5,170.25Z"/><path class="cls-3" d="M104.56,149.54a4.58,4.58,0,0,1-.38.85L103,152.72c-1.06,2.06-2.5,4.85-4.19,8.1l-.16.32-.21-.29c-1.49-2-3.2-4.26-5.08-6.51a130,130,0,0,0-10.09-10.8c-1.36-1.31-2.49-2.34-3.27-3.06a10.07,10.07,0,0,1-1.19-1.14,11.07,11.07,0,0,1,1.31,1c.82.68,2,1.67,3.39,3A110.15,110.15,0,0,1,93.75,154c1.88,2.27,3.59,4.5,5.07,6.56l-.38,0,4.34-8c.52-.93,1-1.68,1.28-2.28A3.43,3.43,0,0,1,104.56,149.54Z"/><path class="cls-3" d="M108.75,153c.17-.05,1,2.87.4,6.78l-.1.68-.34-.63c-.18-.33-.36-.69-.53-1.05-.91-2-1.39-4-1.89-5.3s-.88-2.13-.81-2.17a7.2,7.2,0,0,1,1.13,2.05c.58,1.32,1.13,3.24,2,5.22.16.35.33.7.5,1l-.44.06a21.24,21.24,0,0,0,.23-4.73C108.87,153.69,108.71,153,108.75,153Z"/><path class="cls-3" d="M105.37,152.86a.76.76,0,0,1,0,.26c0,.2,0,.45,0,.76,0,.66,0,1.64,0,2.9,0,2.53-.14,6.19-.39,10.7-.48,9-1.58,21.45-2.71,35.19l-3,35.16c-.41,4.47-.74,8.1-1,10.65-.12,1.23-.22,2.2-.29,2.9,0,.31-.06.55-.08.75a1.18,1.18,0,0,1,0,.25.78.78,0,0,1,0-.25c0-.2,0-.45,0-.76,0-.7.11-1.67.19-2.9.2-2.56.48-6.19.82-10.67.73-9,1.75-21.45,2.87-35.17s2.28-26.16,2.84-35.17c.29-4.51.45-8.16.55-10.68,0-1.23.07-2.21.1-2.91,0-.31,0-.55,0-.75A1.83,1.83,0,0,1,105.37,152.86Z"/><path class="cls-3" d="M112.09,175.27c.14,0-.58,12.75-1.6,28.46s-1.95,28.43-2.08,28.42.59-12.75,1.6-28.46S112,175.26,112.09,175.27Z"/><path class="cls-3" d="M74.61,159.85c-.09,0-.09-1.15-.54-2.92a14.38,14.38,0,0,0-9.24-10.05c-1.72-.6-2.87-.7-2.86-.79a2.52,2.52,0,0,1,.81,0,11.56,11.56,0,0,1,2.16.45,13.71,13.71,0,0,1,9.46,10.29,11.25,11.25,0,0,1,.26,2.2A2.29,2.29,0,0,1,74.61,159.85Z"/><g class="cls-8"><path d="M109.07,228.28a52.22,52.22,0,0,0,1.76-29.83c-.63,10-1.16,20-1.79,30.06"/></g><g class="cls-8"><path d="M70.83,173.82c-4.11,21.35-7.44,41.6-7,38.8l6.61,40.47,3.9,5.78C71,231.71,68.16,200.87,70.83,173.82Z"/></g><path class="cls-3" d="M125.06,87.13c-.06-1.39-.34-2.66-1.54-3.33a6.75,6.75,0,0,0,0-1.2A5.33,5.33,0,0,0,118.57,78a5.29,5.29,0,0,0-3.38-4.15c-1.77-.64-4.06-1.16-5.44.11-1.67-1.69-4-2.64-6.15-1.75-.28.11-1.47.81-1.43,1-.59-1.11-1.84-1.2-3.09-1.33-.42,0-2.87.33-3.66,1.16a6.72,6.72,0,0,0-8.17,2.84A5.29,5.29,0,0,0,82,79.25c-1.51,0-3,2.16-3.78,3.48a4.39,4.39,0,0,0,0,4.34s-2.21.68-2.21,4c0,1.34,1.78,3.69,1.71,3.53l2.84,14.77c-.07.07.78,1.83,1.67,1.53a4.73,4.73,0,0,0,2-1.92,10.44,10.44,0,0,0,1.7-2.74,2.49,2.49,0,0,0-.79-2.89,3.73,3.73,0,0,0,2.48-2.8,10.87,10.87,0,0,0,0-3.9c-.2-1.92-.41-3.84-.61-5.76a7.19,7.19,0,0,0,6.47-3.64,4.12,4.12,0,0,0,6.07-1A5.36,5.36,0,0,0,105.92,90c-.39,1.46,2.18,3,3.62,3.52a5.23,5.23,0,0,0,3.33-.41,8.4,8.4,0,0,0,2.83,1.25h0l.16,0a4.93,4.93,0,0,0,4.87-2.57,5.83,5.83,0,0,0,2.59-.87A4.34,4.34,0,0,0,125.06,87.13Z"/><path class="cls-5" d="M67.25,194.56c0,.07-1.35-.54-3.51-1.43a78.66,78.66,0,0,0-8.59-2.95,77.61,77.61,0,0,0-8.9-1.89c-2.31-.35-3.74-.49-3.74-.57a3.71,3.71,0,0,1,1,0c.66,0,1.6.1,2.77.23a57.31,57.31,0,0,1,9,1.75,58.83,58.83,0,0,1,8.61,3.11c1.07.49,1.91.92,2.49,1.23A4.58,4.58,0,0,1,67.25,194.56Z"/><path class="cls-5" d="M58.11,257.13a1.23,1.23,0,0,1-.12-.27q-.14-.3-.33-.78c-.29-.73-.69-1.74-1.19-3-1-2.64-2.49-6.46-4.11-11.26a124.65,124.65,0,0,1-4.61-17.18,80.1,80.1,0,0,1-1.28-10.44,74.17,74.17,0,0,1,.31-11.29,165.09,165.09,0,0,1,4-21.41c1.55-6.51,3.07-12.34,4.42-17.22s2.51-8.8,3.34-11.5c.42-1.33.74-2.37,1-3.11l.27-.81c.06-.18.1-.27.11-.26a1,1,0,0,1-.06.28l-.22.82c-.21.75-.51,1.8-.89,3.13-.77,2.72-1.88,6.66-3.18,11.55s-2.78,10.72-4.3,17.23a167.55,167.55,0,0,0-4,21.36A74.41,74.41,0,0,0,47,214.15a81.46,81.46,0,0,0,1.24,10.38,128.18,128.18,0,0,0,4.49,17.14c1.57,4.81,3,8.65,3.95,11.31.46,1.3.83,2.33,1.1,3.06.11.33.2.6.28.81A1.28,1.28,0,0,1,58.11,257.13Z"/><path class="cls-5" d="M65.62,227.05a3.07,3.07,0,0,1-.79.4c-.52.23-1.29.53-2.26.87a57,57,0,0,1-15.63,3.1c-1,.05-1.85.07-2.42.06a3.77,3.77,0,0,1-.89-.07,28.35,28.35,0,0,1,3.28-.36c2-.19,4.81-.54,7.85-1.14s5.75-1.35,7.7-1.94A26.65,26.65,0,0,1,65.62,227.05Z"/><path class="cls-5" d="M74.13,163.66c-.08.05-.89-1.2-2.54-2.92A25.36,25.36,0,0,0,68.44,158a29.4,29.4,0,0,0-4.39-2.6,27.72,27.72,0,0,0-4.83-1.66,25.72,25.72,0,0,0-4.13-.63c-2.38-.15-3.86.05-3.87,0a3.79,3.79,0,0,1,1-.19,9.49,9.49,0,0,1,1.23-.11,14.53,14.53,0,0,1,1.63,0,22,22,0,0,1,4.22.52,25.79,25.79,0,0,1,4.93,1.66,26.2,26.2,0,0,1,4.47,2.69,22.42,22.42,0,0,1,3.12,2.88,14.53,14.53,0,0,1,1.05,1.25,9.68,9.68,0,0,1,.71,1A3.58,3.58,0,0,1,74.13,163.66Z"/><path class="cls-5" d="M82.7,260.67a1.34,1.34,0,0,1,0-.32v-1c0-.86,0-2.08,0-3.63,0-3.2.11-7.75.18-13.37.21-11.32.49-26.9.81-44.11.15-8.61.27-16.82,0-24.27-.13-3.73-.37-7.26-.69-10.56a55.21,55.21,0,0,0-1.49-9.07,24.32,24.32,0,0,0-3-6.93,17.75,17.75,0,0,0-3.77-4.25,14.58,14.58,0,0,0-3.06-1.9c-.75-.35-1.17-.48-1.16-.51a7.56,7.56,0,0,1,1.2.41,13.83,13.83,0,0,1,3.14,1.84,17.8,17.8,0,0,1,3.9,4.25,24.1,24.1,0,0,1,3.08,7,55,55,0,0,1,1.57,9.12c.34,3.31.6,6.86.74,10.59.3,7.47.19,15.69,0,24.3-.37,17.21-.71,32.78-1,44.1-.14,5.62-.26,10.18-.35,13.37,0,1.55-.09,2.77-.12,3.63,0,.4,0,.71,0,1A2.72,2.72,0,0,1,82.7,260.67Z"/><path class="cls-5" d="M98.84,239.36a6.22,6.22,0,0,1-1.27-.13c-.8-.11-2-.3-3.41-.54-2.88-.49-6.84-1.23-11.2-2.13s-8.29-1.8-11.13-2.49c-1.42-.34-2.56-.63-3.35-.85a6.07,6.07,0,0,1-1.21-.38,5.55,5.55,0,0,1,1.26.18l3.38.69,11.16,2.34,11.16,2.27,3.38.71A5.58,5.58,0,0,1,98.84,239.36Z"/><path class="cls-5" d="M101.55,203.5c0,.14-8-.34-17.93-1.08S65.71,201,65.73,200.81s8,.34,17.93,1.09S101.56,203.35,101.55,203.5Z"/><path class="cls-5" d="M104.17,171.93a5.75,5.75,0,0,1-1.29.16c-.83.08-2,.15-3.53.23-3,.15-7.1.27-11.66.24S79,172.37,76,172.18c-1.49-.09-2.69-.18-3.52-.27a5.7,5.7,0,0,1-1.29-.18,6.88,6.88,0,0,1,1.3,0l3.53.1c3,.1,7.1.21,11.65.23s8.67,0,11.65-.09l3.53-.06A6.58,6.58,0,0,1,104.17,171.93Z"/><path class="cls-5" d="M82.88,142.46a14.94,14.94,0,0,1-2.39.56,58.3,58.3,0,0,0-5.69,1.5,55.87,55.87,0,0,0-5.5,2.1,15.2,15.2,0,0,1-2.26.94,9.24,9.24,0,0,1,2.11-1.28A38.86,38.86,0,0,1,74.64,144a37.51,37.51,0,0,1,5.78-1.37A9.25,9.25,0,0,1,82.88,142.46Z"/><path class="cls-5" d="M102.91,153.76A5.57,5.57,0,0,1,102,153l-2.39-2.26c-2-1.91-4.84-4.53-8-7.34s-6.14-5.26-8.3-7l-2.54-2.09a6.47,6.47,0,0,1-.9-.81,5.24,5.24,0,0,1,1,.65c.64.45,1.55,1.12,2.65,2,2.22,1.69,5.22,4.11,8.41,6.92s6,5.48,7.93,7.46c1,1,1.76,1.81,2.29,2.39A5.75,5.75,0,0,1,102.91,153.76Z"/><path class="cls-5" d="M96.35,143a21.93,21.93,0,0,1-3,3.72,22,22,0,0,1-3.43,3.37,22.38,22.38,0,0,1,3-3.72A22.56,22.56,0,0,1,96.35,143Z"/><path class="cls-5" d="M112.07,172.51a20.94,20.94,0,0,1-3.68-.11,21.63,21.63,0,0,1-3.67-.21,9.55,9.55,0,0,1,3.7-.31A9.51,9.51,0,0,1,112.07,172.51Z"/><path class="cls-5" d="M109.71,205.87a13.53,13.53,0,0,1-3.74.18,13.74,13.74,0,0,1-3.73-.35,13.32,13.32,0,0,1,3.74-.17A13.53,13.53,0,0,1,109.71,205.87Z"/><path class="cls-5" d="M109.05,160.43a1.39,1.39,0,0,1,0,.27l0,.8c0,.75,0,1.78,0,3.08s0,3,0,4.88-.06,4.06-.14,6.45c-.27,9.56-1.09,22.75-2.12,37.3s-1.91,27.73-2.28,37.28q-.17,3.58-.22,6.44c-.06,1.9-.11,3.53-.11,4.87s0,2.33-.06,3.08c0,.32,0,.59,0,.8a.94.94,0,0,1,0,.27.94.94,0,0,1,0-.27c0-.21,0-.48,0-.8,0-.75,0-1.78,0-3.08s0-3,0-4.87.06-4.07.14-6.46c.28-9.56,1.11-22.74,2.13-37.3s1.91-27.72,2.27-37.27c.11-2.39.18-4.55.22-6.45s.1-3.53.11-4.87,0-2.33,0-3.07l0-.81A.94.94,0,0,1,109.05,160.43Z"/><path class="cls-5" d="M108.55,239.22a22.88,22.88,0,0,1-4.72,1.13A23.14,23.14,0,0,1,99,241a22.88,22.88,0,0,1,4.72-1.13A22.35,22.35,0,0,1,108.55,239.22Z"/><path class="cls-5" d="M127.38,199.73a21,21,0,0,1-2.62,1.71c-1.64,1-3.89,2.46-6.31,4.13s-4.55,3.29-6.08,4.46a21.7,21.7,0,0,1-2.52,1.86,16,16,0,0,1,2.29-2.14c1.48-1.26,3.59-2.92,6-4.6s4.72-3.08,6.41-4A16.53,16.53,0,0,1,127.38,199.73Z"/><path class="cls-5" d="M124.19,213.15a15,15,0,0,1-1.39-2.3c-.82-1.43-2-3.4-3.29-5.54s-2.61-4-3.54-5.39a16.09,16.09,0,0,1-1.45-2.25,11.58,11.58,0,0,1,1.75,2c1,1.31,2.34,3.18,3.68,5.33s2.44,4.16,3.17,5.64A12.4,12.4,0,0,1,124.19,213.15Z"/></svg>