<svg id="Plant" xmlns="http://www.w3.org/2000/svg" viewBox="0 0 400 480"><defs><style>.cls-1{fill:#959595;}.cls-2{fill:#263238;}.cls-3{opacity:0.3;}.cls-4{fill:#455a64;}</style></defs><path class="cls-1" d="M329.21,388.35c-17-9.21-36.19-26-43.64-45,18.42,9.51,33.94,25.52,43.64,45"/><path class="cls-1" d="M328.1,359.79c-17-9.21-36.19-26-43.65-45,18.43,9.5,33.95,25.52,43.65,45"/><path class="cls-1" d="M325.56,331.87c-17.05-9.21-36.2-26-43.65-45,18.42,9.5,33.95,25.51,43.65,45"/><path class="cls-1" d="M321.83,302.54C306,291,289,271.71,283.87,251.79c17.15,12,30.65,30,38,50.75"/><path class="cls-1" d="M317,279.91c-10.69-17.12-19.83-41.94-17.73-62.51A112.59,112.59,0,0,1,317,279.91"/><path class="cls-1" d="M319.45,290.68c4.5-21.35,15.46-47.7,31.24-62.54a132.44,132.44,0,0,1-31.24,62.54"/><path class="cls-1" d="M323,314.83c6.44-21.84,20-48.33,37.68-62.41A137.49,137.49,0,0,1,323,314.83"/><path class="cls-1" d="M326.83,344.25c6.45-21.85,20-48.33,37.69-62.42a137.6,137.6,0,0,1-37.69,62.42"/><path class="cls-1" d="M328.78,380.09c6.45-21.84,20-48.33,37.69-62.41a137.51,137.51,0,0,1-37.69,62.41"/><path class="cls-2" d="M316.6,275.6a2.24,2.24,0,0,1,.1.35q.1.41.24,1l.87,4c.75,3.45,1.74,8.45,2.85,14.66s2.32,13.62,3.49,21.87,2.22,17.36,3.11,26.94,1.46,18.74,1.85,27.07.54,15.84.56,22.14,0,11.41-.13,14.93c-.05,1.72-.09,3.08-.12,4.06,0,.43,0,.78-.06,1.06s0,.35,0,.35a1.65,1.65,0,0,1,0-.36c0-.27,0-.62,0-1.05,0-1,0-2.34,0-4.06,0-3.52,0-8.62-.09-14.92s-.32-13.8-.71-22.12-1-17.46-1.9-27-2-18.67-3.06-26.92-2.26-15.67-3.33-21.88-2-11.23-2.63-14.69c-.32-1.69-.56-3-.74-4l-.18-1C316.6,275.73,316.58,275.6,316.6,275.6Z"/><g class="cls-3"><path d="M329.21,388.35c-17-9.21-36.19-26-43.64-45,18.42,9.51,33.94,25.52,43.64,45"/></g><g class="cls-3"><path d="M328.1,359.79c-17-9.21-36.19-26-43.65-45,18.43,9.5,33.95,25.52,43.65,45"/></g><g class="cls-3"><path d="M325.56,331.87c-17.05-9.21-36.2-26-43.65-45,18.42,9.5,33.95,25.51,43.65,45"/></g><g class="cls-3"><path d="M321.83,302.54C306,291,289,271.71,283.87,251.79c17.15,12,30.65,30,38,50.75"/></g><g class="cls-3"><path d="M317,279.91c-10.69-17.12-19.83-41.94-17.73-62.51A112.59,112.59,0,0,1,317,279.91"/></g><g class="cls-3"><path d="M319.45,290.68c4.5-21.35,15.46-47.7,31.24-62.54a132.44,132.44,0,0,1-31.24,62.54"/></g><g class="cls-3"><path d="M323,314.83c6.44-21.84,20-48.33,37.68-62.41A137.49,137.49,0,0,1,323,314.83"/></g><g class="cls-3"><path d="M326.83,344.25c6.45-21.85,20-48.33,37.69-62.42a137.6,137.6,0,0,1-37.69,62.42"/></g><g class="cls-3"><path d="M328.78,380.09c6.45-21.84,20-48.33,37.69-62.41a137.51,137.51,0,0,1-37.69,62.41"/></g><path class="cls-1" d="M330.34,395.19c-10.95-13.23-21.49-33.05-22.11-50.43a96.2,96.2,0,0,1,22.11,50.43"/><path class="cls-1" d="M337.39,372.72c-11-13.22-21.49-33-22.12-50.42a96.26,96.26,0,0,1,22.12,50.42"/><path class="cls-1" d="M343.12,350.24c-11-13.22-21.49-33-22.12-50.42a96.26,96.26,0,0,1,22.12,50.42"/><path class="cls-1" d="M348.3,326.25c-9.34-14.57-17.47-35.58-16-52.82a96.94,96.94,0,0,1,16,52.82"/><path class="cls-1" d="M350.77,307.05c-3.73-17.06-4.08-39.51,3.28-54.65a94.68,94.68,0,0,1-3.28,54.65"/><path class="cls-1" d="M349.7,316.24c9.5-14.88,25.5-31.31,42.13-37.11a96.69,96.69,0,0,1-42.13,37.11"/><path class="cls-1" d="M345.79,336.15C357,321.59,375.08,306,393,301.45a100.64,100.64,0,0,1-47.19,34.7"/><path class="cls-1" d="M340.69,360.26c11.18-14.56,29.3-30.15,47.2-34.7a100.62,100.62,0,0,1-47.2,34.7"/><path class="cls-1" d="M332.29,388.65c11.18-14.56,29.29-30.15,47.2-34.7a100.62,100.62,0,0,1-47.2,34.7"/><path class="cls-2" d="M351.63,303.56a1,1,0,0,1,0,.3c0,.24-.05.52-.09.87-.1.82-.23,1.93-.4,3.34-.35,2.9-.95,7.08-1.78,12.23-1.64,10.31-4.35,24.49-8.26,39.93-2,7.72-4,15-6,21.63s-4,12.5-5.74,17.41-3.21,8.88-4.28,11.59c-.53,1.32-.94,2.36-1.25,3.12-.13.33-.25.59-.34.81a1.53,1.53,0,0,1-.13.27.84.84,0,0,1,.07-.29l.28-.83,1.13-3.17c1-2.73,2.41-6.71,4.09-11.65s3.59-10.84,5.59-17.44,4-13.9,6-21.61c3.91-15.42,6.68-29.57,8.44-39.84.88-5.14,1.55-9.31,2-12.2.22-1.39.39-2.5.52-3.31l.15-.86A1.1,1.1,0,0,1,351.63,303.56Z"/><polygon class="cls-4" points="349.78 449.88 313.34 449.88 306.54 399.65 356.77 399.65 349.78 449.88"/><rect class="cls-4" x="302.03" y="399.14" width="59.26" height="7.81"/><path class="cls-2" d="M361.28,407.08c0,.15-13.11.26-29.28.26s-29.29-.11-29.29-.26,13.11-.26,29.29-.26S361.28,406.94,361.28,407.08Z"/></svg>