<svg xmlns="http://www.w3.org/2000/svg" viewBox="0 0 400 480"><defs><style>.cls-1{opacity:0.8;}.cls-2{fill:#f5f5f5;}.cls-3{fill:#455a64;}.cls-4{fill:#263238;}.cls-5{fill:#fafafa;}.cls-6{fill:#e0e0e0;}.cls-7{fill:#ebebeb;}.cls-8{fill:#959595;}.cls-10,.cls-9{fill:#fff;}.cls-10{fill-rule:evenodd;}</style></defs><g id="Background_Simple" data-name="Background Simple" class="cls-1"><path class="cls-2" d="M372.55,55.08l-2.3-3.79C350.88,19.36,315.85.11,278.91,2.45a96.53,96.53,0,0,0-14.14,1.94C231.19,11.58,202,37,189.86,69.5c-7.12,19.12-9.11,41.15-22.63,56.33-17.59,19.76-47.46,20.38-73.72,19.56s-56.14-.12-73.65,19.72C8.9,177.53,5.41,195.2,6.3,211.83c2.34,44,33,83.44,72.07,103s85,21.33,127.71,12.71c59.85-12.06,116.77-45.19,151-96.36S399.92,110.31,372.55,55.08Z"/></g><g id="Device"><rect class="cls-3" x="103.6" y="32.1" width="210.64" height="417.11" rx="25.34"/><rect class="cls-4" x="3.68" y="138.66" width="410.48" height="204" rx="22.23" transform="translate(449.58 31.74) rotate(90)"/><path class="cls-3" d="M193.79,48.57a2.35,2.35,0,0,1,0-4.69h30.13a2.35,2.35,0,0,1,0,4.69Z"/><path class="cls-3" d="M177.64,48.57A2.35,2.35,0,1,1,180,46.23,2.34,2.34,0,0,1,177.64,48.57Z"/><path class="cls-3" d="M186.26,48.57a2.35,2.35,0,1,1,2.34-2.34A2.34,2.34,0,0,1,186.26,48.57Z"/><path class="cls-3" d="M240.2,48.57a2.35,2.35,0,1,1,2.34-2.34A2.34,2.34,0,0,1,240.2,48.57Z"/><path class="cls-3" d="M231.58,48.57a2.35,2.35,0,1,1,2.34-2.34A2.35,2.35,0,0,1,231.58,48.57Z"/><path class="cls-5" d="M291.7,38.24H255.24a6.16,6.16,0,0,0-5.94,4.46l-2.32,8a6.93,6.93,0,0,1-6.65,5H177.51a6.93,6.93,0,0,1-6.65-5l-2.32-8a6.18,6.18,0,0,0-5.94-4.46H134.24a22.58,22.58,0,0,0-22.58,22.58V425.11a15.27,15.27,0,0,0,15.27,15.26H292.77A13.4,13.4,0,0,0,306.17,427V52.71A14.47,14.47,0,0,0,291.7,38.24Z"/><path class="cls-2" d="M299.66,45a22.51,22.51,0,0,0-16.07-6.72h-33l-5.06,17.44H172.31l-5.07-17.44H126.42A14.75,14.75,0,0,0,111.66,53V316.76l.58.06c19,2.06,37.41-9.86,47.81-25.83S174.14,255.6,176,236.62s2.06-38.23,6.52-56.77a128.48,128.48,0,0,1,54-76.66c13.22-8.65,28-14.81,40.65-24.34C288.25,70.47,297.8,58.48,299.66,45Z"/><path class="cls-2" d="M306.17,431.22V314.51a97,97,0,0,0-73,47.23c-13.57,23.52-16.26,52.94-7.59,78.63H297A9.15,9.15,0,0,0,306.17,431.22Z"/><path class="cls-3" d="M315.3,122.76h.31a0,0,0,0,1,0,0V170.7a0,0,0,0,1,0,0h-.31a1.07,1.07,0,0,1-1.07-1.07V123.83A1.07,1.07,0,0,1,315.3,122.76Z" transform="translate(629.85 293.47) rotate(180)"/><path class="cls-3" d="M103.23,152.31h.37a0,0,0,0,1,0,0v30.35a0,0,0,0,1,0,0h-.37a1.07,1.07,0,0,1-1.07-1.07V153.37A1.07,1.07,0,0,1,103.23,152.31Z"/><path class="cls-3" d="M103.23,112.66h.37a0,0,0,0,1,0,0V143a0,0,0,0,1,0,0h-.37a1.07,1.07,0,0,1-1.07-1.07V113.72A1.07,1.07,0,0,1,103.23,112.66Z"/><path class="cls-3" d="M103.31,82.89h.29a0,0,0,0,1,0,0V97a0,0,0,0,1,0,0h-.29a.95.95,0,0,1-.95-.95V83.84A.95.95,0,0,1,103.31,82.89Z"/><rect class="cls-4" x="258.95" y="51.81" width="1.45" height="2.03"/><rect class="cls-4" x="261.31" y="50.91" width="1.45" height="2.93"/><rect class="cls-4" x="263.66" y="50.23" width="1.45" height="3.61"/><rect class="cls-4" x="266.02" y="48.92" width="1.45" height="4.92"/><path class="cls-4" d="M288.82,53.94h-7.26a.52.52,0,0,1-.52-.52V49.81a.52.52,0,0,1,.52-.52h7.26a.13.13,0,0,1,.1,0,.15.15,0,0,1,0,.09v1.19h.77a.13.13,0,0,1,.14.13v1.74a.14.14,0,0,1-.14.14H289v1.19A.13.13,0,0,1,288.82,53.94Zm-.13-4.39h-7.13a.26.26,0,0,0-.25.26v3.61a.25.25,0,0,0,.25.25h7.13V52.48a.13.13,0,0,1,.13-.13h.78V50.88h-.78a.13.13,0,0,1-.13-.14Z"/><polygon class="cls-4" points="281.9 53.08 281.9 50.15 288.1 50.15 288.1 51.47 288.1 51.76 288.1 53.08 281.9 53.08"/><path class="cls-4" d="M274.39,53.66a.53.53,0,0,0-.53-.53.53.53,0,0,0,0,1.06A.53.53,0,0,0,274.39,53.66Z"/><path class="cls-4" d="M272.05,52.38l.67.68a1.62,1.62,0,0,1,1.14-.47,1.6,1.6,0,0,1,1.13.47l.68-.68a2.59,2.59,0,0,0-1.81-.75A2.55,2.55,0,0,0,272.05,52.38Z"/><path class="cls-4" d="M273.86,50.12A4.1,4.1,0,0,0,271,51.31l.68.68a3.11,3.11,0,0,1,4.4,0l.67-.68A4.06,4.06,0,0,0,273.86,50.12Z"/><path class="cls-4" d="M269.88,50.21l.68.68a4.66,4.66,0,0,1,6.6,0l.68-.68a5.63,5.63,0,0,0-8,0Z"/><circle class="cls-2" cx="230.9" cy="195.23" r="25.69" transform="translate(-36.94 335.56) rotate(-67.87)"/><path class="cls-4" d="M140.18,143.8c0-6.53,3.42-10.42,8.17-10.42s8.2,3.89,8.2,10.42-3.46,10.43-8.2,10.43S140.18,150.33,140.18,143.8Zm14.2,0c0-5.47-2.46-8.49-6-8.49s-6,3-6,8.49,2.45,8.49,6,8.49S154.38,149.28,154.38,143.8Z"/><path class="cls-4" d="M174.35,143.63c0,7-3.81,10.6-9.37,10.6a9.4,9.4,0,0,1-4.86-1.12l.85-1.7a7.11,7.11,0,0,0,4,1c4.42,0,7.26-2.84,7.26-8.4,0-.47,0-1.06-.09-1.67-1,2.25-3.42,3.51-6.26,3.51-4.07,0-6.91-2.4-6.91-6.15s3-6.29,7-6.29C171.39,133.38,174.35,137.15,174.35,143.63Zm-2.9-4.08c0-2.25-1.87-4.39-5.42-4.39-2.95,0-5,1.73-5,4.45s2,4.43,5.15,4.43S171.45,142.1,171.45,139.55Z"/><path class="cls-4" d="M177.42,140.11a1.55,1.55,0,0,1,1.56-1.58,1.57,1.57,0,0,1,1.58,1.58,1.6,1.6,0,0,1-1.58,1.61A1.58,1.58,0,0,1,177.42,140.11Zm0,12.48A1.56,1.56,0,0,1,179,151a1.58,1.58,0,0,1,1.58,1.59A1.6,1.6,0,0,1,179,154.2,1.59,1.59,0,0,1,177.42,152.59Z"/><path class="cls-4" d="M183.6,143.8c0-6.53,3.43-10.42,8.17-10.42s8.2,3.89,8.2,10.42-3.45,10.43-8.2,10.43S183.6,150.33,183.6,143.8Zm14.21,0c0-5.47-2.46-8.49-6-8.49s-6,3-6,8.49,2.46,8.49,6,8.49S197.81,149.28,197.81,143.8Z"/><path class="cls-4" d="M203,143.8c0-6.53,3.42-10.42,8.17-10.42s8.2,3.89,8.2,10.42-3.46,10.43-8.2,10.43S203,150.33,203,143.8Zm14.2,0c0-5.47-2.46-8.49-6-8.49s-6,3-6,8.49,2.46,8.49,6,8.49S217.19,149.28,217.19,143.8Z"/><path class="cls-6" d="M277,109.83H145A13.12,13.12,0,0,1,131.89,96.7h0A13.11,13.11,0,0,1,145,83.58H277A13.12,13.12,0,0,1,290.14,96.7h0A13.13,13.13,0,0,1,277,109.83Z"/><path class="cls-4" d="M273.59,101.71a5,5,0,1,1,5-5A5,5,0,0,1,273.59,101.71Zm0-9a4,4,0,1,0,4,4A4,4,0,0,0,273.59,92.7Z"/><path class="cls-4" d="M280.31,103a.5.5,0,0,1-.33-.12L276.69,100a.51.51,0,0,1-.05-.71.49.49,0,0,1,.7,0l3.3,2.88a.5.5,0,0,1,0,.71A.48.48,0,0,1,280.31,103Z"/><path class="cls-4" d="M272.82,152a8.42,8.42,0,0,0,1.06,0,5.52,5.52,0,0,0,2.71-1.19,5.33,5.33,0,0,0,1.36-1.61,5.58,5.58,0,0,0,.45-1.12,5.24,5.24,0,0,0-.06-2.64,6.32,6.32,0,0,0-.58-1.34,5.28,5.28,0,0,0-2.28-2.1l-.06,0v-.06a3.91,3.91,0,0,0-2.09-3.54,3.87,3.87,0,0,0-4.36.73l-.13.13,0-.18a7.28,7.28,0,0,0-4.47-5.11,7.19,7.19,0,0,0-1.81-.46,3.55,3.55,0,0,0-.46,0h-.46a7,7,0,0,0-.91.1,6.82,6.82,0,0,0-3.18,1.54,7.82,7.82,0,0,0-2,2.7,6.88,6.88,0,0,0-.59,3.12V141l-.11,0a5.21,5.21,0,0,0-3.52.41,6.52,6.52,0,0,0-1.39.94,6.41,6.41,0,0,0-1,1.23,5.44,5.44,0,0,0-.55,1.39,4.67,4.67,0,0,0-.1,1.38,5.29,5.29,0,0,0,.73,2.34,5.58,5.58,0,0,0,2.52,2.33,7.54,7.54,0,0,0,1.18.39h-.08l-.24-.05a2.85,2.85,0,0,1-.38-.09c-.15-.06-.32-.1-.51-.19a5.63,5.63,0,0,1-2.58-2.33,5.44,5.44,0,0,1-.76-2.38,4.59,4.59,0,0,1,.09-1.42,4.94,4.94,0,0,1,.56-1.43,6.05,6.05,0,0,1,1-1.27,6.54,6.54,0,0,1,1.43-1,5.4,5.4,0,0,1,3.63-.44l-.11.09a7,7,0,0,1,.61-3.21,7.94,7.94,0,0,1,2.08-2.77,7.1,7.1,0,0,1,3.27-1.58,5.75,5.75,0,0,1,.93-.1h.48a2.42,2.42,0,0,1,.47,0,7,7,0,0,1,1.86.46A7.48,7.48,0,0,1,269,139l-.16-.05a3.94,3.94,0,0,1,6.75,3l0-.08a5.39,5.39,0,0,1,2.35,2.17,6.17,6.17,0,0,1,.59,1.38,5.24,5.24,0,0,1,0,2.72,5.25,5.25,0,0,1-.47,1.14,5.39,5.39,0,0,1-1.4,1.63,5.48,5.48,0,0,1-2.76,1.16,4.56,4.56,0,0,1-.8,0A1.87,1.87,0,0,1,272.82,152Z"/><path class="cls-4" d="M273.33,152.52H273l-.29,0a.5.5,0,0,1-.4-.34.51.51,0,0,1,.13-.52.58.58,0,0,1,.46-.14,4.29,4.29,0,0,0,.88,0,5,5,0,0,0,2.45-1.07,4.82,4.82,0,0,0,1.24-1.47,4.44,4.44,0,0,0,.41-1,4.83,4.83,0,0,0,.12-1.13,5,5,0,0,0-.18-1.24,6,6,0,0,0-.53-1.22,4.74,4.74,0,0,0-2.06-1.89.59.59,0,0,1-.35-.51,3.26,3.26,0,0,0-5.59-2.48l-.12.12a.51.51,0,0,1-.5.13.5.5,0,0,1-.35-.38l0-.17a6.86,6.86,0,0,0-5.84-5.18l-.42,0h-.44l-.23,0a3.83,3.83,0,0,0-.58.07,6.35,6.35,0,0,0-3,1.43,7.4,7.4,0,0,0-1.9,2.52,6.44,6.44,0,0,0-.55,2.89v.12a.47.47,0,0,1-.18.41.49.49,0,0,1-.44.1l-.11,0a4.72,4.72,0,0,0-3.18.38,5.79,5.79,0,0,0-1.28.87,5.57,5.57,0,0,0-.91,1.12,4.64,4.64,0,0,0-.49,1.23,3.84,3.84,0,0,0-.09,1.23,4.91,4.91,0,0,0,.66,2.13,5.18,5.18,0,0,0,2.29,2.13,6.28,6.28,0,0,0,1,.32.58.58,0,0,1,.42.25.54.54,0,0,1,.06.39.59.59,0,0,1-.65.36l-.24-.05a2,2,0,0,1-.46-.11l-.12,0a2.2,2.2,0,0,1-.44-.17,6.12,6.12,0,0,1-2.79-2.52,6,6,0,0,1-.83-2.6,5.06,5.06,0,0,1,.1-1.56,5.55,5.55,0,0,1,.61-1.57,6.38,6.38,0,0,1,1.12-1.39,6.76,6.76,0,0,1,1.55-1.06,5.87,5.87,0,0,1,3.24-.6,7.73,7.73,0,0,1,.65-2.71,8.58,8.58,0,0,1,2.21-2.95,7.53,7.53,0,0,1,3.51-1.69,4.4,4.4,0,0,1,.75-.09l.23,0h.53a3.29,3.29,0,0,1,.54.05,6.91,6.91,0,0,1,2,.49,8.12,8.12,0,0,1,4.65,4.73,4.44,4.44,0,0,1,6.85,3.54,6.05,6.05,0,0,1,2.24,2.2,6.54,6.54,0,0,1,.63,1.49,6.21,6.21,0,0,1,.22,1.53,6,6,0,0,1-.18,1.44,5.11,5.11,0,0,1-.52,1.28,5.86,5.86,0,0,1-1.52,1.78,5.94,5.94,0,0,1-3,1.25A4.55,4.55,0,0,1,273.33,152.52Z"/><path class="cls-4" d="M261,148.4a19,19,0,0,1-1.39,2.5,21,21,0,0,1-1.55,2.4,19.64,19.64,0,0,1,1.38-2.5A22.49,22.49,0,0,1,261,148.4Z"/><path class="cls-4" d="M258.05,153.84a.55.55,0,0,1-.29-.11c-.48-.29-.47-.38,1.22-3.19,1.52-2.54,1.64-2.57,1.86-2.62a.49.49,0,0,1,.37.06h0a.52.52,0,0,1,.23.31c.05.21.08.33-1.45,2.87C258.71,153.32,258.36,153.84,258.05,153.84Z"/><path class="cls-4" d="M265.57,148.4a19,19,0,0,1-1.39,2.5,21,21,0,0,1-1.55,2.4,19.64,19.64,0,0,1,1.38-2.5A22.49,22.49,0,0,1,265.57,148.4Z"/><path class="cls-4" d="M262.63,153.8a.48.48,0,0,1-.26-.07c-.48-.29-.47-.38,1.22-3.19,1.52-2.54,1.64-2.57,1.86-2.62a.5.5,0,0,1,.38.06h0c.47.28.47.37-1.22,3.18-1.53,2.54-1.64,2.57-1.86,2.63Z"/><path class="cls-4" d="M270.18,148.4a19,19,0,0,1-1.39,2.5,19.5,19.5,0,0,1-1.55,2.4,19,19,0,0,1,1.39-2.5A23.46,23.46,0,0,1,270.18,148.4Z"/><path class="cls-4" d="M267.27,153.84a.55.55,0,0,1-.29-.11c-.48-.29-.47-.38,1.22-3.19,1.53-2.54,1.64-2.57,1.86-2.62a.51.51,0,0,1,.38.06h0a.52.52,0,0,1,.23.31c.05.21.08.33-1.45,2.87C267.93,153.32,267.58,153.84,267.27,153.84Z"/><path class="cls-4" d="M255.62,155.27a19.64,19.64,0,0,1-1.38,2.5,21.3,21.3,0,0,1-1.56,2.4,19,19,0,0,1,1.39-2.5A22.16,22.16,0,0,1,255.62,155.27Z"/><path class="cls-4" d="M252.68,160.67a.59.59,0,0,1-.26-.07.52.52,0,0,1-.23-.31c-.05-.22-.08-.33,1.45-2.88,1.68-2.8,1.76-2.85,2.24-2.57h0c.48.29.47.38-1.22,3.19-1.53,2.54-1.64,2.57-1.86,2.62Z"/><path class="cls-4" d="M260.23,155.27a19.64,19.64,0,0,1-1.38,2.5,21.3,21.3,0,0,1-1.56,2.4,19,19,0,0,1,1.39-2.5A22.16,22.16,0,0,1,260.23,155.27Z"/><path class="cls-4" d="M257.29,160.67a.59.59,0,0,1-.26-.07.56.56,0,0,1-.23-.31c-.05-.22-.08-.33,1.45-2.88,1.69-2.81,1.76-2.85,2.24-2.57h0c.46.29.46.37-1.23,3.18-1.52,2.54-1.64,2.57-1.86,2.62Z"/><path class="cls-4" d="M264.84,155.27a19.64,19.64,0,0,1-1.38,2.5,21.3,21.3,0,0,1-1.56,2.4,19,19,0,0,1,1.39-2.5A22.16,22.16,0,0,1,264.84,155.27Z"/><path class="cls-4" d="M261.9,160.67a.59.59,0,0,1-.26-.07.56.56,0,0,1-.23-.31c-.05-.22-.08-.33,1.45-2.88,1.68-2.8,1.76-2.85,2.24-2.57h0c.48.29.47.38-1.21,3.19-1.53,2.54-1.65,2.57-1.87,2.62Z"/><path class="cls-4" d="M269.66,155.38a42,42,0,0,1-2.94,4.89,21.34,21.34,0,0,1,1.38-2.5A20.57,20.57,0,0,1,269.66,155.38Z"/><path class="cls-4" d="M266.75,160.82a.58.58,0,0,1-.29-.12c-.48-.29-.47-.37,1.21-3.18,1.53-2.55,1.65-2.58,1.87-2.63a.49.49,0,0,1,.37.06h0a.56.56,0,0,1,.23.31c.05.21.08.33-1.45,2.87C267.4,160.29,267.06,160.82,266.75,160.82Z"/><circle class="cls-7" cx="190.49" cy="360.06" r="4.24"/><circle class="cls-6" cx="204.65" cy="360.06" r="4.24"/><circle class="cls-6" cx="218.82" cy="360.06" r="4.24"/><circle class="cls-6" cx="232.99" cy="360.06" r="4.24"/><rect class="cls-8" x="130.08" y="381.15" width="34.15" height="34.15" rx="9.07"/><rect class="cls-6" x="172.65" y="380.83" width="34.15" height="34.15" rx="9.61"/><rect class="cls-3" x="215.22" y="380.51" width="34.15" height="34.15" rx="10.16"/><rect class="cls-4" x="257.79" y="381.15" width="34.15" height="34.15" rx="10.28"/><rect class="cls-3" x="130.08" y="307.21" width="34.15" height="34.15" rx="8.99"/><rect class="cls-4" x="172.65" y="306.9" width="34.15" height="34.15" rx="10.54"/><rect class="cls-6" x="215.22" y="306.58" width="34.15" height="34.15" rx="9.33"/><rect class="cls-8" x="257.79" y="306.26" width="34.15" height="34.15" rx="10.2"/><path class="cls-9" d="M143.49,318.21a6.91,6.91,0,0,1,1.72-.75l.35-1.71,2.89-.05.41,1.69a7.09,7.09,0,0,1,1.75.69l1.46-.95,2.07,2-.9,1.49a6.91,6.91,0,0,1,.75,1.72l1.7.36.05,2.88-1.69.41a6.94,6.94,0,0,1-.69,1.75l1,1.46-2,2.07-1.49-.9a7.14,7.14,0,0,1-1.73.75l-.35,1.71-2.88.05-.42-1.7a6.83,6.83,0,0,1-1.75-.68l-1.46.95-2.07-2,.9-1.49a7.25,7.25,0,0,1-.75-1.72l-1.7-.36-.05-2.88,1.69-.42a7.24,7.24,0,0,1,.69-1.75l-1-1.45,2-2.08,1.49.91Zm1,3.47a3.76,3.76,0,1,0,5.32-.09A3.75,3.75,0,0,0,144.45,321.68Z"/><path class="cls-9" d="M224.33,405.87l1.25-4.64a8.55,8.55,0,0,1,7.49-12.71,8.57,8.57,0,1,1-4.07,16.1Zm4.9-3,.3.18a7,7,0,1,0-2.39-2.37l.18.3-.69,2.59Z"/><path class="cls-10" d="M236.16,398.33a1.43,1.43,0,0,0-1.22-.27c-.32.13-.53.62-.73.88a.32.32,0,0,1-.4.09,5.56,5.56,0,0,1-2.77-2.38.35.35,0,0,1,0-.47,1.81,1.81,0,0,0,.5-.81,1.73,1.73,0,0,0-.22-1c-.17-.36-.36-.88-.72-1.08a1,1,0,0,0-1.06.16,2.14,2.14,0,0,0-.75,1.71,2.42,2.42,0,0,0,.07.54,4.41,4.41,0,0,0,.52,1.2c.17.29.35.56.54.83a8.35,8.35,0,0,0,2.36,2.19,7.34,7.34,0,0,0,1.47.7,3.28,3.28,0,0,0,1.72.27,2.08,2.08,0,0,0,1.55-1.15,1.1,1.1,0,0,0,.07-.59C237,398.77,236.49,398.53,236.16,398.33Z"/><path class="cls-10" d="M153.19,400.27a2.76,2.76,0,0,0-2.34-.52c-.6.25-1,1.19-1.38,1.68a.57.57,0,0,1-.75.16,10.49,10.49,0,0,1-5.27-4.51.65.65,0,0,1,.08-.89,3.59,3.59,0,0,0,1-1.55,3.42,3.42,0,0,0-.43-1.84,4.39,4.39,0,0,0-1.36-2.05,1.88,1.88,0,0,0-2,.3,4.09,4.09,0,0,0-1.42,3.25,4.55,4.55,0,0,0,.12,1,8.86,8.86,0,0,0,1,2.28c.32.54.67,1.06,1,1.57a15.87,15.87,0,0,0,4.48,4.16,14.29,14.29,0,0,0,2.79,1.33,6.19,6.19,0,0,0,3.26.51,4,4,0,0,0,2.95-2.19,2,2,0,0,0,.13-1.12C154.85,401.11,153.81,400.65,153.19,400.27Z"/><path class="cls-9" d="M280.21,392.75a1,1,0,1,0,1,1A1,1,0,0,0,280.21,392.75Z"/><path class="cls-9" d="M275.77,393.74a4.2,4.2,0,1,0,4.19,4.19A4.2,4.2,0,0,0,275.77,393.74Zm0,6.88a2.69,2.69,0,1,1,2.69-2.69A2.69,2.69,0,0,1,275.77,400.62Z"/><path class="cls-9" d="M279.1,406.73h-6.79a5.12,5.12,0,0,1-5.12-5.11v-6.8a5.12,5.12,0,0,1,5.12-5.11h6.79a5.11,5.11,0,0,1,5.11,5.11v6.8A5.11,5.11,0,0,1,279.1,406.73Zm-6.79-15.42a3.51,3.51,0,0,0-3.51,3.51v6.8a3.51,3.51,0,0,0,3.51,3.51h6.79a3.51,3.51,0,0,0,3.51-3.51v-6.8a3.51,3.51,0,0,0-3.51-3.51Z"/><path class="cls-9" d="M182.17,406.22a.79.79,0,0,1-.54-.22.77.77,0,0,1,0-1.07l4.06-4.06a7,7,0,0,1,.51-9.25,6.94,6.94,0,1,1,.56,10.32l-4,4.06A.79.79,0,0,1,182.17,406.22Zm8.93-15.12a5.41,5.41,0,1,0,3.84,1.59A5.4,5.4,0,0,0,191.1,391.1Z"/><path class="cls-4" d="M213.31,163.94c0,.14-16,.26-35.78.26s-35.78-.12-35.78-.26,16-.26,35.78-.26S213.31,163.8,213.31,163.94Z"/><path class="cls-9" d="M191.21,323.8a4.23,4.23,0,0,0,2.5-3.89,3.94,3.94,0,1,0-7.87,0,4.21,4.21,0,0,0,2.51,3.92c-6.06.91-5.78,7.49-5.78,7.49l14.31.06S197.21,324.7,191.21,323.8Z"/><path class="cls-9" d="M243.5,329.14a4.79,4.79,0,0,0-.95-5.1,5.35,5.35,0,0,0-5.23-1.7,5.85,5.85,0,0,0-8.82-3.95,5.93,5.93,0,0,0-2.78,4.71,4.42,4.42,0,0,0-3.1,2.17,4.48,4.48,0,0,0-.25,3.77Z"/><path class="cls-9" d="M277.81,329.25a1.4,1.4,0,1,1-1.39-1.4A1.39,1.39,0,0,1,277.81,329.25Z"/><path class="cls-9" d="M273.63,327.46a3.86,3.86,0,0,1,5.59-.08.78.78,0,0,0,1.11-1.1,5.45,5.45,0,0,0-7.8.06c-.69.73.41,1.85,1.1,1.12Z"/><path class="cls-9" d="M268.9,321a11.39,11.39,0,0,1,7.48-3,11.06,11.06,0,0,1,7.62,2.92c.74.68,1.85-.42,1.12-1.11a12.72,12.72,0,0,0-8.73-3.38,13.13,13.13,0,0,0-8.59,3.44c-.76.66.34,1.77,1.1,1.12Z"/><path class="cls-9" d="M270.77,324.57a7.65,7.65,0,0,1,11.26-.16c.7.72,1.81-.38,1.11-1.1a9.21,9.21,0,0,0-13.47.15c-.68.73.41,1.85,1.1,1.11Z"/></g><g id="Floor"><path class="cls-4" d="M387.47,449.11c0,.19-84,.34-187.64.34s-187.66-.15-187.66-.34,84-.34,187.66-.34S387.47,448.92,387.47,449.11Z"/></g></svg>