<svg id="Layer_1" data-name="Layer 1" xmlns="http://www.w3.org/2000/svg" viewBox="0 0 800 400"><defs><style>.cls-1{opacity:0.9;}.cls-2{fill:#fff;stroke:#959595;stroke-miterlimit:10;stroke-width:0.2px;opacity:0.5;isolation:isolate;}</style></defs><g id="freepik--background-complete--inject-2" class="cls-1"><path class="cls-2" d="M317,362.3c.36-2.91-3.72-5.36-6.9-5.63a18.55,18.55,0,0,1-4.45-.37c-3.09-1.09-4.27-5-7.27-6.26-2.27-.91-4.81-.1-7,1s-4.27,2.46-6.72,2.64c-2.09.18-4.36-.64-6.18.36-1.36.73-2.09,2.36-3.36,3.27a7.34,7.34,0,0,1-4.36,1.18,12.75,12.75,0,0,0-4.54.73,3.63,3.63,0,0,0-2.27,3.63Z"/><path class="cls-2" d="M743.15,102.17c.64-4.81-6.18-8.81-11.26-9.26-2.45-.18-5,.18-7.27-.64-5-1.72-7-8.26-11.9-10.26-3.63-1.54-7.9-.18-11.44,1.64s-7.08,4-11.08,4.26c-3.45.19-7.18-1.09-10.26.64-2.27,1.27-3.45,3.81-5.54,5.36s-4.73,1.82-7.18,2-5.08.18-7.45,1.18-4.17,3.45-3.72,6Z"/><path class="cls-2" d="M378.49,96.54c1-7.35-9.45-13.44-17.26-14.07-3.72-.28-7.63.27-11.17-1-7.72-2.64-10.72-12.63-18.26-15.72-5.63-2.36-12.08-.27-17.52,2.46s-10.81,6.17-16.9,6.53c-5.27.37-11.08-1.63-15.62,1-3.45,1.91-5.27,5.91-8.45,8.18s-7.17,2.81-11,3-7.81.27-11.35,1.81-6.36,5.27-5.72,9.08Z"/><path class="cls-2" d="M550.24,376.19c.63-4.63-5.9-8.44-10.81-8.9-2.36-.18-4.81.18-7-.63-4.82-1.64-6.72-7.91-11.45-9.9-3.54-1.46-7.54-.19-11,1.54s-6.81,3.91-10.53,4.09c-3.27.18-6.91-1-9.81.63-2.18,1.18-3.27,3.73-5.27,5.18s-4.45,1.73-6.9,1.91a18.75,18.75,0,0,0-7.09,1.18c-2.18,1-4,3.36-3.54,5.72Z"/><path class="cls-2" d="M537.25,60c.64-4.81-6.18-8.81-11.35-9.26-2.45-.18-5,.18-7.27-.64-5-1.72-7-8.26-11.9-10.35-3.63-1.55-7.9-.18-11.44,1.63s-7.08,4.09-11,4.27c-3.45.27-7.18-1.09-10.26.64-2.27,1.27-3.45,3.9-5.54,5.36a13.13,13.13,0,0,1-7.18,1.9,20.63,20.63,0,0,0-7.45,1.18c-2.36,1-4.17,3.45-3.72,6Z"/></g></svg>