<svg id="Layer_1" data-name="Layer 1" xmlns="http://www.w3.org/2000/svg" viewBox="0 0 800 400"><defs><style>.cls-1,.cls-21{fill:#fff;}.cls-1{stroke:#959595;opacity:0.7;}.cls-1,.cls-10,.cls-13,.cls-14,.cls-9{stroke-miterlimit:10;}.cls-1,.cls-10{stroke-width:0.2px;}.cls-1,.cls-2{isolation:isolate;}.cls-14,.cls-2,.cls-6{fill:#337f81;}.cls-2{opacity:0.5;}.cls-3{fill:#ffbe9d;}.cls-4{fill:#455a64;}.cls-5{fill:#e0e0e0;}.cls-7{fill:#263238;}.cls-8{fill:#d1d1d1;}.cls-10,.cls-11,.cls-9{fill:#6a7e89;}.cls-10,.cls-9{stroke:#455a64;}.cls-9{stroke-width:0.3px;}.cls-12{fill:#f5f5f5;}.cls-13{fill:#ffcf53;stroke:#337f81;stroke-width:0.5px;}.cls-14{stroke:#e0e0e0;stroke-width:0.1px;}.cls-15{fill:#364048;}.cls-16{fill:#5a6f79;}.cls-17{fill:#fafafa;}.cls-18{opacity:0.4;}.cls-19{fill:#eb996e;}.cls-20{fill:#4aa47e;}</style></defs><g id="freepik--Character--inject-2"><path class="cls-1" d="M500.18,227.42c-10-9.26-27.7-8.17-36.51,2.27-3.45,4.09-5.81,9.45-10.53,12-7.27,3.82-16.17-1-24.35-.27-9.62.82-17.52,10.62-16.34,20.16.54,4.36,2.63,8.9.54,12.81-2.63,4.9-10.08,5.08-13.26,9.72-2.82,4.08-.64,10.26,3.54,13.07s9.45,3.18,14.44,3,10.09-.91,15,.18c5.36,1.18,10,4.54,15.17,6.54,12.35,4.91,26.79,2.18,38.14-4.63s20.26-17.17,28-28"/><path class="cls-2" d="M497.82,241.05c-8.17-8-23.25-6.91-30.06,2.27-4.18,5.54-6.63,14-13.53,15-4.64.64-9.09-2.9-13.81-2.54-6.27.45-10.08,8.08-8.45,14.17s6.91,10.44,12.54,13.26c19.43,9.81,45.32,4.63,59.4-12"/><polyline class="cls-3" points="682.83 261.3 672.3 246.4 686.01 236.69 695.55 256.21 683.47 261.21"/><path class="cls-4" d="M695,253.49l7.45,13.44s16.17-3.09,17.71-.73l-25.52,15.35L682.2,261.12Z"/><path class="cls-5" d="M693.82,270.56a1.16,1.16,0,0,0,1.64,1.64,1.28,1.28,0,0,0,0-1.73,1.25,1.25,0,0,0-1.64.09"/><path class="cls-6" d="M694.64,281.55l-1.18-2.09,24.88-13.89s1.46-.18,1.82.73Z"/><path class="cls-7" d="M702.72,266.57c.09.09-.54.54-.91,1.36s-.36,1.45-.54,1.54-.36-.81.09-1.72S702.72,266.39,702.72,266.57Z"/><path class="cls-7" d="M706.08,266c.09.09-.27.64-.45,1.46a6.44,6.44,0,0,0,0,1.45,1.47,1.47,0,0,1-.46-1.55C705.36,266.39,706,265.93,706.08,266Z"/><path class="cls-7" d="M709.53,268.29c-.09.09-.63-.45-.72-1.27s.36-1.54.45-1.45a12.85,12.85,0,0,1,.09,1.36C709.35,267.66,709.63,268.2,709.53,268.29Z"/><path class="cls-7" d="M700.72,263.66c0,.18-.63.27-1.36.82s-1.09,1-1.18.91.09-.82.91-1.37A1.86,1.86,0,0,1,700.72,263.66Z"/><path class="cls-7" d="M699.18,261a2.59,2.59,0,0,1-1.27.72,5.94,5.94,0,0,1-2.54.46,1.16,1.16,0,0,1-.55-.09.69.69,0,0,1-.45-.64.91.91,0,0,1,.36-.63,1.17,1.17,0,0,1,.54-.19,3.34,3.34,0,0,1,.91-.18,5,5,0,0,1,1.64.09,2.41,2.41,0,0,1,1.36.64c0,.09-.54-.18-1.45-.27a4.48,4.48,0,0,0-1.55,0c-.27.09-.63.09-.91.18s-.54.27-.54.36,0,.09.09.09h1.36a9.32,9.32,0,0,0,1.55-.27C698.18,261.21,698.64,261.12,699.18,261Z"/><path class="cls-7" d="M699.09,261.3a3.41,3.41,0,0,1-1.09-1,5.11,5.11,0,0,1-.64-1.45c-.09-.37-.09-.64-.18-1a1.24,1.24,0,0,1,.46-1.18.55.55,0,0,1,.72,0c.18.09.28.27.46.36l.54.82a5.16,5.16,0,0,1,.27,1.63,1.88,1.88,0,0,1-.54,1.37,7.15,7.15,0,0,0,.18-1.37A4.13,4.13,0,0,0,699,258a1.9,1.9,0,0,0-.46-.73c-.18-.27-.45-.36-.54-.27a.71.71,0,0,0-.18.73,3.16,3.16,0,0,0,.09.91,4.86,4.86,0,0,0,.54,1.45C698.73,260.85,699.18,261.21,699.09,261.3Z"/><polyline class="cls-7" points="643.87 208.35 676.57 259.67 694.37 247.49 664.3 185.73"/><path class="cls-4" d="M646.5,197.09c.09.09-.82,2.18-1.27,4.9s-.27,5.09-.45,5.09a14.7,14.7,0,0,1,1.72-10Z"/><path class="cls-4" d="M643.23,197.27c.18,0,0,2.27.37,5s1.09,4.82.9,4.91a16.23,16.23,0,0,1-1.27-9.9Z"/><path class="cls-4" d="M516.62,208.17l-22.34-6.91c-27,34.43-25.25,72.21,18.26,94.55l24.15-27.06Z"/><path class="cls-8" d="M518.8,202.72c-14.35,8.35-21.43,26-19.71,43.23,1.91,18.89,14.44,37.33,37.33,42.42l154-30.79a46.76,46.76,0,0,0,36.69-55,29.14,29.14,0,0,0-1-3.91h0a46.75,46.75,0,0,0-55.85-32.42Z"/><path class="cls-4" d="M518.8,202.72l1.46-.37,4.17-1,16.17-4,59.58-14.44,41.14-10,23-5.54,5.91-1.46,3.09-.54,1.54-.27,1.54-.09,3.09-.28h3.18c1.09,0,2.09.09,3.18.18l1.63.19.82.09.82.18,3.18.63c1.09.28,2.09.64,3.09.91.54.18,1.09.27,1.54.46l1.54.63,1.55.64c.54.18,1,.45,1.54.63l2.91,1.55a28.71,28.71,0,0,1,2.81,1.81l1.37.91,1.36,1,1.36,1,.64.55.63.54a46.88,46.88,0,0,1-5.08,73.93,45.73,45.73,0,0,1-11.18,5.54,92.53,92.53,0,0,1-12,2.82l-23.62,4.72-45,9.08-79.2,15.81h-.09a54.55,54.55,0,0,1-11.71-4.18,45.48,45.48,0,0,1-17.17-15,50.7,50.7,0,0,1-5-9.26c-.36-.82-.54-1.64-.9-2.36s-.55-1.55-.82-2.36a23.13,23.13,0,0,1-.64-2.37l-.45-2.36a19.74,19.74,0,0,1-.46-2.36c-.09-.72-.18-1.54-.27-2.27s-.09-1.54-.18-2.27a17.66,17.66,0,0,1-.09-2.18A48.53,48.53,0,0,1,501,225.88a44.87,44.87,0,0,1,5.45-11.54,37.94,37.94,0,0,1,6.09-7.08,13.17,13.17,0,0,1,1.36-1.18l1.27-.91,1.09-.82.91-.54,1.63-1.09-1.72,1.18-.91.63-1.09.82-1.18.91c-.46.36-.82.82-1.36,1.18a34.75,34.75,0,0,0-6,7.18,44.65,44.65,0,0,0-5.45,11.53,51.08,51.08,0,0,0-2.18,15.71A17.58,17.58,0,0,0,499,244c.09.73.09,1.46.18,2.27s.19,1.55.28,2.27a9.14,9.14,0,0,0,.45,2.27,18.45,18.45,0,0,1,.45,2.37c.19.81.46,1.54.64,2.36a11.62,11.62,0,0,0,.82,2.36,22.87,22.87,0,0,0,.91,2.36,52.33,52.33,0,0,0,5,9.17,45.76,45.76,0,0,0,17.08,14.9,53.53,53.53,0,0,0,11.62,4.09h-.09l79.11-15.9,45.14-9,23.61-4.72a87.68,87.68,0,0,0,11.9-2.82,44.2,44.2,0,0,0,11-5.45,47.12,47.12,0,0,0,17.71-22.52,46.59,46.59,0,0,0-12.62-50.77l-.64-.55-.63-.45-1.27-1-1.37-1a11.94,11.94,0,0,0-1.36-.91,29.42,29.42,0,0,0-2.82-1.72l-2.9-1.55a10.61,10.61,0,0,0-1.45-.63l-1.55-.64-1.54-.64a10.06,10.06,0,0,0-1.55-.45c-1-.27-2.09-.64-3.08-.91l-3.18-.63L688,166l-.82-.09-1.54-.18c-1.09-.18-2.09-.18-3.18-.27h-3.18l-3.09.27-1.54.09-1.55.28-3,.54-6,1.36-23,5.54L600,183.46l-59.58,14.26-16.26,3.91-4.18,1Z"/><path class="cls-9" d="M536.42,288.37,516.08,334.5s95.82-9.26,91.73-60.48Z"/><path class="cls-9" d="M591.28,185.28s-46-44.69-104.63-25.89l32.15,43.33Z"/><path class="cls-10" d="M675.38,165.57c19.8,14.53,31.88,71.39,22.35,89.37,56-16.35,67.75-64.48,67.75-64.48C725.07,152.76,675.38,165.57,675.38,165.57Z"/><path class="cls-4" d="M507.54,267.29c.09.09-3,3.73-6.9,8.27s-7.18,8-7.27,7.9,3-3.72,6.9-8.26S507.45,267.2,507.54,267.29Z"/><path class="cls-4" d="M765.48,190.46s-.09.18-.36.63L764,192.82l-1.73,2.9-1.09,1.82-1.36,2c-1,1.45-2.09,3-3.27,4.63l-4.27,5.27c-.81.91-1.63,1.82-2.54,2.81s-1.73,2-2.72,2.91a83.72,83.72,0,0,1-6.54,5.9,85,85,0,0,1-16.81,11.08,87.48,87.48,0,0,1-10.35,4.46l-5.54,1.9c-1.91.64-3.91,1.09-5.9,1.55-15.9,3.54-33.43,7.08-51.78,10.9-36.78,7.62-70,14.35-94.18,19.25l-28.52,5.72-7.72,1.55-2,.36a4.08,4.08,0,0,1-.72.09l.72-.18,2-.46,7.72-1.63,28.52-5.9L650,250.4c18.35-3.81,35.88-7.45,51.77-10.9,2-.36,3.91-.91,5.82-1.45,1.9-.73,3.72-1.27,5.54-1.91a67.83,67.83,0,0,0,10.26-4.36,85.4,85.4,0,0,0,16.71-11c2.45-1.91,4.45-4,6.54-5.9,1-.91,1.91-2,2.82-2.91s1.72-1.91,2.54-2.81l4.27-5.27c1.27-1.73,2.36-3.27,3.36-4.63l1.36-2,1.09-1.82,1.82-2.81c.45-.73.82-1.37,1.09-1.73A1.56,1.56,0,0,1,765.48,190.46Z"/><path class="cls-4" d="M619.71,271.84l-.18-.19-.46-.54-1.63-2.18-1.18-1.55c-.46-.63-.82-1.27-1.27-2-.91-1.46-2.09-3-3.09-4.91l-1.73-2.9c-.54-1-1.09-2.09-1.63-3.27-1.18-2.18-2.18-4.73-3.36-7.27a109.47,109.47,0,0,1-8-35.69c-.09-2.82-.18-5.54-.09-8,.09-1.27,0-2.45.09-3.63s.19-2.27.28-3.36a46.83,46.83,0,0,1,.72-5.72c.09-.82.28-1.64.37-2.36a9.77,9.77,0,0,1,.45-1.91c.27-1.18.45-2,.55-2.73.09-.27.09-.54.18-.72a.7.7,0,0,0,.09-.27v.27c0,.27-.09.45-.09.72l-.46,2.73c-.09.54-.27,1.27-.36,1.91s-.18,1.45-.36,2.36c-.19,1.72-.55,3.54-.64,5.72-.09,1.09-.18,2.18-.27,3.36s-.09,2.36-.09,3.63c-.09,2.55,0,5.18.09,8a108.82,108.82,0,0,0,7.9,35.6c1.09,2.54,2.09,5.09,3.27,7.27l1.63,3.26,1.64,2.91c1,1.91,2.09,3.45,3,4.91.45.72.9,1.36,1.27,2s.82,1.09,1.18,1.64c.73.91,1.18,1.72,1.63,2.27l.37.54C619.62,271.65,619.71,271.74,619.71,271.84Z"/><path class="cls-11" d="M576.48,224.15l-96.55,20s-.36,9.45,1.91,9.54c2,.09,73.75-12.9,97.09-17.07a6.4,6.4,0,0,0,5.08-7.27c-.09-.36-.18-.64-.27-1h0A6.43,6.43,0,0,0,576.48,224.15Z"/><ellipse class="cls-12" cx="650.6" cy="215.09" rx="21.43" ry="23.07" transform="translate(434.6 865.39) rotate(-89.92)"/><path class="cls-6" d="M673.48,215.25v-.36c0-.27-.09-.64-.09-1.09a2.55,2.55,0,0,0-.09-.82c-.1-.27-.1-.54-.19-.91s-.09-.72-.18-1.09a6.11,6.11,0,0,0-.36-1.18c-.27-.91-.64-1.81-1-2.72a22.88,22.88,0,0,0-7.63-9,23.88,23.88,0,0,0-9.45-3.82,14.1,14.1,0,0,0-2.81-.27c-.46,0-1-.09-1.45-.09l-1.46.09h-.72l-.73.09-1.45.18-1.46.36-.72.19-.73.27a23.11,23.11,0,0,0-10.63,7.17,20,20,0,0,0,0,25.71A22,22,0,0,0,643,235.14l.73.27.72.19,1.46.36,1.45.18.73.09h.72l1.46.09h1.45a14.78,14.78,0,0,0,2.81-.27,23.33,23.33,0,0,0,9.36-3.72,20.56,20.56,0,0,0,8.72-11.72c.09-.45.27-.82.36-1.18a4.6,4.6,0,0,0,.18-1.09c.09-.36.09-.64.19-.91s0-.54.09-.82c0-.45.09-.81.09-1.09v1.91a3.26,3.26,0,0,1-.18.91c-.1.27-.1.73-.19,1.09s-.18.82-.27,1.18a16.69,16.69,0,0,1-1,2.82,21.64,21.64,0,0,1-7.72,9.17,24.59,24.59,0,0,1-9.63,3.9,14,14,0,0,1-2.81.28c-.46,0-1,.09-1.45.09l-1.46-.09h-.72l-.73-.09-1.54-.28-1.55-.36-.73-.18-.72-.27A23,23,0,0,1,632,228.24,20.44,20.44,0,0,1,632,202a23.49,23.49,0,0,1,10.9-7.27l.73-.27.72-.18,1.55-.36,1.54-.18.73-.09h.72l1.46-.1c.45,0,1,.1,1.45.1.91,0,1.91.18,2.82.27a23,23,0,0,1,15.53,9.9,20,20,0,0,1,2.63,5.9,7.44,7.44,0,0,1,.27,1.18c.09.37.09.73.18,1.09a2.72,2.72,0,0,0,.19.91v1.91A1,1,0,0,1,673.48,215.25Z"/><path class="cls-13" d="M646.82,201.36l6.36,7.51c.08.07.08.07.16.07l9.76-1a.21.21,0,0,1,.26.22c0,.09,0,.09-.07.17l-5.21,8.3,0,.24,3.93,9c.1.15,0,.24-.13.33l-.16,0-9.54-2.41a.32.32,0,0,0-.24.1l-7.33,6.5a.2.2,0,0,1-.33-.05c0-.08-.09-.08-.09-.16l-.73-9.77a.28.28,0,0,0-.1-.24l-8.43-5c-.09-.08-.19-.23-.11-.32s.07-.09.15-.1l9.12-3.7a.17.17,0,0,0,.15-.17l2.07-9.6c.07-.16.15-.17.32-.18Z"/><path class="cls-1" d="M377.39,291.73c-2.64,1.18-5.72,1-8.63.72s-5.81-.82-8.72-.27c-4.45.91-8.36,4.18-12.81,4-6.26-.37-10-7.09-15.53-10-6.72-3.63-15.71-1.36-21.16-8.08a13,13,0,0,1-1.27-14.35c3.9-7.08,13-8.26,20.07-5.72,6.09,2.18,11.08,6.63,15.8,11,1.64,1.54,3.27,3,4.91,4.45a25.93,25.93,0,0,0,19.53,6.18h0a13,13,0,0,1,9.44,2.72,5.6,5.6,0,0,1,1.64,2.18h0a5.28,5.28,0,0,1,.45,2.63C381.11,289.55,379.57,290.82,377.39,291.73Z"/><path class="cls-1" d="M274.66,288.73c-1.81-3.18-7.26-3.18-10.53-1.64s-5.54,4.64-7.72,7.54-4.72,5.81-8.18,7c-3.72,1.27-7.72.27-11.62.27s-8.45,1.9-9.08,5.72a7.31,7.31,0,0,0,1.9,6.18,17.66,17.66,0,0,0,5.36,3.45,43.67,43.67,0,0,0,16.35,3.18A23.53,23.53,0,0,0,269.58,311c4.27-5.81,9.9-15.89,4.9-22.34"/><path class="cls-14" d="M572.21,160c-7.45-.36-11.08,5.27-15.26,6.36s-8.72,1.36-12.72-.27c-5.17-2.09-8.72-6.91-13.26-10.18-9.08-6.54-22.61-6.17-31.24.91-.18,4.91,4,8.9,8.17,11.63s15.44,6.81,16.9,11.53c1.09,3.54-6.54,6.54-4.64,9.72s8.27,2.82,11.81,2.27c22.16-3.81,14.44,3,21.25,2.36,0,0,14.35-3.63,25.62-5.54"/><polyline class="cls-3" points="646.96 290.64 639.78 273.92 655.13 267.2 660.49 288.18 647.59 290.64"/><path class="cls-4" d="M660.49,285.46,665,300.08s16.44.37,17.53,3L654.4,312.8l-8-22.53Z"/><path class="cls-5" d="M655.86,302a1.27,1.27,0,0,0-.37,1.63A1.17,1.17,0,0,0,657,304a1.2,1.2,0,0,0,.36-1.64,1,1,0,0,0-1.54-.36"/><path class="cls-6" d="M654.4,312.89l-.72-2.27,27.24-8.45s1.46.09,1.64,1Z"/><path class="cls-7" d="M665.39,299.9c0,.18-.63.45-1.18,1.09a12.21,12.21,0,0,0-.81,1.36c-.19,0-.19-.91.45-1.72S665.39,299.72,665.39,299.9Z"/><path class="cls-7" d="M668.75,300.08c.09.09-.45.55-.72,1.27s-.18,1.37-.37,1.46-.54-.73-.18-1.64S668.75,299.9,668.75,300.08Z"/><path class="cls-7" d="M671.66,303c-.09.09-.54-.55-.45-1.45s.63-1.37.72-1.28-.18.64-.18,1.37S671.84,303,671.66,303Z"/><path class="cls-7" d="M664,296.63c0,.18-.73.18-1.45.45s-1.27.82-1.36.73.27-.82,1.18-1.18A1.8,1.8,0,0,1,664,296.63Z"/><path class="cls-7" d="M663,293.72a2.68,2.68,0,0,1-1.45.46,6,6,0,0,1-2.54-.09,1.28,1.28,0,0,1-.55-.18.62.62,0,0,1-.27-.73.85.85,0,0,1,.54-.55,1.18,1.18,0,0,1,.55-.09h1a10.63,10.63,0,0,1,1.63.37c.91.36,1.27.81,1.18.9a11.13,11.13,0,0,0-1.36-.54,4.26,4.26,0,0,0-1.54-.27h-.91c-.37,0-.55.09-.64.27s0,.09.09.18a.57.57,0,0,0,.37.09,3.2,3.2,0,0,0,.9.18,4.48,4.48,0,0,0,1.55,0A7.79,7.79,0,0,1,663,293.72Z"/><path class="cls-7" d="M662.94,293.91a3.9,3.9,0,0,1-.91-1.18,5.38,5.38,0,0,1-.36-1.64,3.77,3.77,0,0,1,.09-1,1.11,1.11,0,0,1,.64-1,.7.7,0,0,1,.72.18c.09.19.28.28.37.46a3.17,3.17,0,0,1,.27,2.54,2.35,2.35,0,0,1-.82,1.27c.18-.45.36-.91.55-1.36a3.93,3.93,0,0,0,0-1.45l-.28-.82c-.18-.27-.36-.45-.45-.45a1.45,1.45,0,0,0-.36.63,3.13,3.13,0,0,0-.09.91,7.1,7.1,0,0,0,.18,1.45A4.83,4.83,0,0,0,662.94,293.91Z"/><path class="cls-15" d="M573.48,160.57s-13.35,26.43-4.36,32.61,50.77,37.6,50.77,37.6l21.34,57,20-8.17-16.63-66.67-42.05-37.78Z"/><path class="cls-5" d="M624.7,220.06a49.28,49.28,0,0,0-2.4,4.81c-1,2.78-1.34,5.19-1.54,5.19A15.7,15.7,0,0,1,624.7,220.06Z"/><path class="cls-5" d="M621.43,219.79c.1,0-.45,2.18-.63,4.91s0,5-.09,5a13.19,13.19,0,0,1-.37-5A11.5,11.5,0,0,1,621.43,219.79Z"/><path class="cls-5" d="M643.23,286.91a.33.33,0,0,1-.09-.27c-.09-.18-.18-.45-.36-.82-.27-.82-.73-1.9-1.27-3.27-1.09-2.9-2.73-7.08-4.64-12.26s-4.17-11.44-6.63-18.53c-.63-1.72-1.18-3.54-1.81-5.45s-1.09-3.81-1.91-5.72c-1.54-3.81-3.36-7.63-5.36-11.53l.09.09c-2.27-1.91-4.63-3.91-7.08-5.91-1.91-1.54-3.82-3.08-5.72-4.54l-5.63-4.27c-3.73-2.81-7.27-5.54-10.72-8s-6.9-4.63-10-6.81a58,58,0,0,1-8.27-6.63,21.17,21.17,0,0,1-2.9-3.54,14.09,14.09,0,0,1-1.64-3.82,16,16,0,0,1-.09-6.54,20.34,20.34,0,0,1,1.18-4c.18-.46.36-.82.45-1a.77.77,0,0,1,.19-.37c0,.1-.09.28-.09.37a3.91,3.91,0,0,0-.37,1,28.93,28.93,0,0,0-1.09,4,15.55,15.55,0,0,0,.18,6.45,15.36,15.36,0,0,0,1.64,3.73,21.74,21.74,0,0,0,2.91,3.54,58.08,58.08,0,0,0,8.26,6.54c3.09,2.09,6.54,4.27,10,6.72s7.09,5.18,10.72,8l5.63,4.27c1.91,1.45,3.81,3,5.72,4.54,2.45,2,4.82,4,7.09,5.9h0v.1c2,3.9,3.81,7.72,5.35,11.53.73,1.91,1.37,3.81,1.91,5.72s1.18,3.73,1.73,5.45c2.36,7.09,4.63,13.35,6.45,18.53l4.45,12.26c.54,1.45.9,2.54,1.18,3.36l.27.91C643.14,286.64,643.14,286.73,643.23,286.91Z"/><polygon class="cls-7" points="589.83 169.02 615.62 172.65 628.79 176.01 610.72 182.55 589.83 169.02"/><path class="cls-7" d="M558.31,167.2a3.62,3.62,0,0,1-.54.64,21.32,21.32,0,0,1-1.64,1.45,25.63,25.63,0,0,1-13.35,5.54,15.91,15.91,0,0,1-2.18.1,2.31,2.31,0,0,1-.82-.1c0-.09,1.18-.09,3-.36a29.66,29.66,0,0,0,6.9-1.91A30,30,0,0,0,556,169C557.4,167.93,558.31,167.11,558.31,167.2Z"/><path class="cls-4" d="M576.84,129.42l-5,37.33s16.53-1.09,28.16,2.82,18.8,3.72,18.8,3.72L616.35,150,625.07,131l3.81,22.34,17.89,18.35L658.4,169l-12.08-20.16L638,107.71h0A15,15,0,0,0,632.7,99l-.37-.28L614.8,88.91l-5.9.09a90.61,90.61,0,0,0-14.8,1.55,15,15,0,0,0-8,4.27h0a18.84,18.84,0,0,0-4.08,7.63Z"/><path class="cls-7" d="M632.51,113.8a4.59,4.59,0,0,1-.45,1.18l-1.36,3.18c-1.18,2.72-2.73,6.45-4.54,10.54l-4.63,10.44c-.55,1.27-1.09,2.36-1.46,3.18-.18.36-.36.73-.54,1.18a4.53,4.53,0,0,1,.36-1.18c.27-.82.73-1.82,1.27-3.18,1.09-2.72,2.73-6.45,4.54-10.54s3.45-7.81,4.73-10.44l1.45-3.18A4.92,4.92,0,0,1,632.51,113.8Z"/><path class="cls-16" d="M582.92,107.35c3.46,9.54,10,31.25,13.17,39.6a15.38,15.38,0,0,0,4.73,6.45l35.42,25.07,8.17-10.63L618,142.23,603.63,99.81c-2-5.63-10.35-8.72-15.53-5.72h0C584.11,96.45,581.47,103,582.92,107.35Z"/><path class="cls-7" d="M604.36,101.63s.09.27.27.73l.73,2.18c.63,1.9,1.63,4.72,2.81,8.17l10,29.43-.09-.09,26.62,25.61.18.18-.09.18-5.91,7.63c-.81,1-1.54,2.09-2.27,3l-.18.18-.18-.09-27.16-19.62L603,154.76l-1.46-1.09a17.67,17.67,0,0,1-1.45-1.09,16.55,16.55,0,0,1-2.27-2.72,13.37,13.37,0,0,1-1.45-3.09l-1.18-3c-.73-2-1.46-3.9-2.09-5.72-2.64-7.27-4.54-13.17-5.82-17.35-.63-2.09-1.09-3.63-1.45-4.72-.18-.55-.27-.91-.36-1.27a.83.83,0,0,1-.09-.46,4.54,4.54,0,0,1,.18.46c.09.27.27.72.45,1.18.37,1.09.91,2.63,1.55,4.72,1.36,4.09,3.27,10,6,17.26.64,1.81,1.36,3.72,2.18,5.72.36,1,.82,2,1.18,3a22.16,22.16,0,0,0,1.45,3,16,16,0,0,0,2.18,2.64l1.37,1.09,1.45,1.09,6.09,4.45,27.24,19.53h-.36l2.27-3,5.9-7.63V168L618,142.41h0c-4.08-12.26-7.44-22.43-9.9-29.52l-2.72-8.26-.73-2.18A2.15,2.15,0,0,1,604.36,101.63Z"/><path class="cls-7" d="M600.91,96.45c-.09.09-.64-.54-1.82-1.27A10.21,10.21,0,0,0,589,94.73a15.23,15.23,0,0,1-1.91,1.09,5.08,5.08,0,0,1,1.73-1.37,10.06,10.06,0,0,1,10.44.46A3.89,3.89,0,0,1,600.91,96.45Z"/><path class="cls-7" d="M647.14,149.49c0,.19-1.73,0-3.64.46a32.42,32.42,0,0,0-3.45,1.27,6.7,6.7,0,0,1,3.36-1.73A5.32,5.32,0,0,1,647.14,149.49Z"/><path class="cls-17" d="M587.65,121.61c-.09,0-.28.09-.37.09-.36.09-.63.09-1,.18a9.18,9.18,0,0,1-7.08-2.18l-.27-.27a12.07,12.07,0,0,0,4.09,2A11.48,11.48,0,0,0,587.65,121.61Z"/><path class="cls-17" d="M590.37,129.79a10,10,0,0,0-1.72-1,13.38,13.38,0,0,0-4.54-1.18,25.78,25.78,0,0,0-4.73.09l-1.45.18h-.55a1.2,1.2,0,0,1,.55-.09c.36-.09.82-.09,1.45-.18a26.75,26.75,0,0,1,4.73-.19,13.61,13.61,0,0,1,4.54,1.18,5.85,5.85,0,0,1,1.18.73C590.1,129.51,590.28,129.6,590.37,129.79Z"/><g class="cls-18"><path d="M585.83,116s.91,14.17,2,20.8,3.18,13.26,7.81,18,11.44,6.81,18.07,8.18L607.45,158c-2.64-2.18-6.45-4.36-8.63-7-4.09-5.18-5-11.72-7.09-17.89-1.9-5.91-4-11.36-5.9-17.17"/></g><path class="cls-17" d="M610.44,121.52a1.81,1.81,0,0,1-.72.36,6.47,6.47,0,0,1-2.27.37c-1.91,0-4.54-.91-7.45-.64a16.23,16.23,0,0,0-7.08,2.27,12.55,12.55,0,0,0-1.82,1.27l-.46.37c-.09.09-.18.18-.18.09a12.46,12.46,0,0,1,2.46-1.91,15.59,15.59,0,0,1,7.17-2.36c3-.27,5.54.72,7.54.72a6.32,6.32,0,0,0,2.27-.27A1,1,0,0,0,610.44,121.52Z"/><path class="cls-17" d="M607.81,114.71c-.09,0-.09.09-.18.09l-.55.27a13.31,13.31,0,0,1-2,1,36.39,36.39,0,0,1-14.17,3.36h0a37.41,37.41,0,0,0,7.17-1,38.26,38.26,0,0,0,6.9-2.36c.82-.36,1.55-.73,2-.91l.55-.27C607.81,114.71,607.81,114.62,607.81,114.71Z"/><path class="cls-17" d="M628,122.16l-.27-.1c-.27-.09-.45-.18-.73-.27a7.22,7.22,0,0,1-2.18-1.45c-1.72-1.45-3.36-4.27-6-6.36a20.62,20.62,0,0,0-10.35-4.27l-.73-.09h-.27a16.12,16.12,0,0,1,3.63.46,18.9,18.9,0,0,1,7.81,3.81,20.32,20.32,0,0,1,3.36,3.45,26.59,26.59,0,0,0,2.64,2.91,9.3,9.3,0,0,0,2.18,1.54C627.61,122.06,628,122.06,628,122.16Z"/><path class="cls-17" d="M626.88,126.42c-.27-.09-.54-.09-.72-.18a7.21,7.21,0,0,1-1.82-1.09,16.62,16.62,0,0,1-2.18-2.27,19.42,19.42,0,0,0-2.72-2.72,7,7,0,0,0-3.55-1.55,12.36,12.36,0,0,0-3.17-.09,20.35,20.35,0,0,0-2.09.28l-.55.09h-.27c.09,0,.09,0,.18-.09l.55-.1c.45-.09,1.27-.18,2.08-.27a18.76,18.76,0,0,1,3.18,0,7.6,7.6,0,0,1,3.64,1.55,19.55,19.55,0,0,1,2.72,2.81,16.62,16.62,0,0,0,2.18,2.27,11.83,11.83,0,0,0,1.82,1.18A6.61,6.61,0,0,1,626.88,126.42Z"/><path class="cls-17" d="M640.78,123.52a5,5,0,0,0-2-.18,9.51,9.51,0,0,0-2.18.45,19.59,19.59,0,0,0-2.54,1.09,14.64,14.64,0,0,1-2.54.91,6.35,6.35,0,0,1-2.27.09,4,4,0,0,1-1.46-.45c-.18-.1-.27-.19-.45-.28a4.61,4.61,0,0,0,1.91.64,5.92,5.92,0,0,0,2.17-.18,12.27,12.27,0,0,0,2.55-.91c.91-.36,1.72-.82,2.54-1.09a10,10,0,0,1,2.18-.46,4.26,4.26,0,0,1,1.54.19C640.51,123.43,640.69,123.43,640.78,123.52Z"/><path class="cls-17" d="M642.23,128.42a4.35,4.35,0,0,0-2.54-.91,7.49,7.49,0,0,0-2.82.55,12.7,12.7,0,0,0-3.08,1.82,21.92,21.92,0,0,1-3.09,1.9,6.43,6.43,0,0,1-2.82.73,7.7,7.7,0,0,1-2-.27,1.37,1.37,0,0,1-.63-.37,6.39,6.39,0,0,0,2.63.55,7.63,7.63,0,0,0,2.82-.82,16.45,16.45,0,0,0,3-1.91,13.57,13.57,0,0,1,3.17-1.81,6.26,6.26,0,0,1,2.91-.46,4.68,4.68,0,0,1,1.91.55C641.87,128.15,642.05,128.24,642.23,128.42Z"/><g class="cls-18"><path d="M627.16,143.14c1.81-7.45,2.18-15.53,2.45-23.16-.64,2.72-2.27,5-3.27,7.53-.46,1.19-1.27,3.46-1.27,3.46l2,11.89"/></g><path class="cls-7" d="M615.17,55.58a3.75,3.75,0,0,1-2.55,3c-.72.27-1.54.27-2.27.54a1.68,1.68,0,0,0-1.27,1.73c.09.54.64.91,1.09,1.36s.82,1,.55,1.55-1.09.63-1.55,1.09a1.64,1.64,0,0,0,.09,1.9A5.56,5.56,0,0,0,610.9,68a3.06,3.06,0,0,1,1.27,1.55"/><path class="cls-7" d="M642.05,67.39c2-4.27.55-9.45-2.54-13s-7.63-5.45-12.08-6.72c-.64-.18-1.45-.36-1.91.18a1.39,1.39,0,0,0,.09,1.64,3.37,3.37,0,0,0,1.55.9,16.55,16.55,0,0,0-5.82-1.63,3.42,3.42,0,0,0-2.09.45,1.8,1.8,0,0,0-.81,1.82,1.13,1.13,0,0,0,1.36.73h0a.64.64,0,0,0,.36-.19,9.15,9.15,0,0,0-5.54,1.28c-1.18.72-2.27,2-1.9,3.36.27.72.63,1.45,1,2.18.46,1.36-.18,2.9-.72,4.27a13.41,13.41,0,0,0-.91,6.81,7.7,7.7,0,0,0,3.63,5.63"/><path class="cls-3" d="M614.26,103a9.22,9.22,0,0,1-6.54-11.35l.09-.27,8.36-28.25a13.36,13.36,0,0,1,16.34-9.45h0l.37.09.63.28a13.47,13.47,0,0,1,8.36,16.16c-1.73,6.27-3.72,13.17-4.9,16.44-2.55,6.72-9.72,5.36-9.72,5.36l-1.73,5.09A9.46,9.46,0,0,1,614.26,103Z"/><path class="cls-19" d="M627.25,91.91a16.67,16.67,0,0,1-7.9-5.72s.36,5.63,7.26,7.45Z"/><path class="cls-7" d="M626,57.94c-.55-1.18-1.28-3.9-2.18-4.81s-2.46-.64-3.73-.27a4.15,4.15,0,0,0-2.9,2.72c-1.82,4.91-2,9.54-3.37,14.26a1.82,1.82,0,0,0-.09,1c.28.82,1.18,1.09,2,1.27,2.09.27,3.18-1.18,4.09-3.09a23.75,23.75,0,0,0,.73-3.36A9.28,9.28,0,0,1,625.7,58Z"/><path class="cls-3" d="M617.26,67c-.09-.09-4.18-3.08-5.73,1.64s3.55,5.27,3.55,5.09S617.26,67,617.26,67Z"/><path class="cls-19" d="M614.26,71.57a.33.33,0,0,0-.27.09,1.67,1.67,0,0,1-.64-.18,2,2,0,0,1-.36-2.09,2.6,2.6,0,0,1,.63-1.09,1,1,0,0,1,.82-.46.59.59,0,0,1,.45.37v.18s.1,0,.19-.28a.54.54,0,0,0-.09-.36.52.52,0,0,0-.46-.27,1.23,1.23,0,0,0-1.09.45,3.3,3.3,0,0,0-.72,1.18,2.25,2.25,0,0,0,.54,2.46.89.89,0,0,0,.82.09A.31.31,0,0,0,614.26,71.57Z"/><path class="cls-7" d="M624.16,58.94a5.76,5.76,0,0,1,6.27.09c1.54.91,2.9,2.27,4.54,3.09s3.72,1.18,5.17,0a5,5,0,0,0,1.64-3.63,10.09,10.09,0,0,0-2.36-7.27c-.46-.54-1.18-1-1.73-.73-.72.37-.63,1.46-.36,2.28,0,0-7.9-2.91-12.72-1.28S624.16,58.94,624.16,58.94Z"/><path class="cls-4" d="M627.07,47.59a4,4,0,0,0,.36.91,8.86,8.86,0,0,0,1.45,2.09,11.31,11.31,0,0,0,3.18,2.18,8.86,8.86,0,0,0,2.18.72c.73.18,1.64.27,2.45.55A5.32,5.32,0,0,1,639,55.22a4.64,4.64,0,0,1,1.37,1.91,4.4,4.4,0,0,1,.27,2.17A3.87,3.87,0,0,1,640,61a4.37,4.37,0,0,1-2.18,1.64,2,2,0,0,1-.72.09h-.28a1.67,1.67,0,0,0,.91-.28,3.67,3.67,0,0,0,1.91-1.63,2.75,2.75,0,0,0,.54-1.64,3.39,3.39,0,0,0-.27-1.9,4.28,4.28,0,0,0-1.27-1.82,6.64,6.64,0,0,0-2.09-1.09l-2.45-.54a16.38,16.38,0,0,1-2.18-.73,10.11,10.11,0,0,1-3.18-2.36,6.5,6.5,0,0,1-1.45-2.27,2.23,2.23,0,0,1-.18-.73Z"/><path class="cls-4" d="M621.89,49a5.13,5.13,0,0,0,.36.91A7.53,7.53,0,0,0,623.89,52a10.2,10.2,0,0,0,3.45,2,28.68,28.68,0,0,0,4.81,1.09A18.19,18.19,0,0,1,637,56.58a3.57,3.57,0,0,1,1.63,1.63,3.06,3.06,0,0,1,.09,2A3.76,3.76,0,0,1,637,62.39a2.5,2.5,0,0,1-.64.37c-.09,0-.18.09-.27.09l.81-.55a3.59,3.59,0,0,0,1.46-2.18,2.82,2.82,0,0,0-.09-1.72,3.27,3.27,0,0,0-1.46-1.46,21.6,21.6,0,0,0-4.72-1.36,31.15,31.15,0,0,1-4.9-1.18,9.79,9.79,0,0,1-3.55-2.09A7.66,7.66,0,0,1,622.07,50a2.12,2.12,0,0,1-.18-.73Z"/><path class="cls-7" d="M637.24,73.47a1.13,1.13,0,0,1-1.36.73,1.18,1.18,0,0,1-.82-1.27h0a1.13,1.13,0,0,1,1.36-.73,1,1,0,0,1,.82,1.27Z"/><path class="cls-7" d="M639.24,72.84c-.19.09-.82-.73-1.91-1.18s-2.18-.09-2.27-.28.18-.27.63-.45A2.88,2.88,0,0,1,639,72.11C639.33,72.57,639.33,72.84,639.24,72.84Z"/><path class="cls-7" d="M626.07,70.2a1.14,1.14,0,0,1-1.37.73,1,1,0,0,1-.72-1.27h0a1.12,1.12,0,0,1,1.36-.73,1.07,1.07,0,0,1,.73,1.27Z"/><path class="cls-7" d="M628.06,69.2c-.18.1-.72-.72-1.9-1.18s-2.18-.09-2.27-.27.18-.27.63-.45a2.52,2.52,0,0,1,1.82.09,2.48,2.48,0,0,1,1.45,1.09C628.06,68.84,628.16,69.11,628.06,69.2Z"/><path class="cls-7" d="M629.25,79.1a7.59,7.59,0,0,1,2,.28c.28.09.64.09.73-.09a1.6,1.6,0,0,0,.09-.91c0-.82-.09-1.64-.09-2.55a38.49,38.49,0,0,1,.09-6.44,50.58,50.58,0,0,1,.45,6.44v2.55a1.35,1.35,0,0,1-.27,1.18.82.82,0,0,1-.63.27,1.16,1.16,0,0,1-.55-.09A13,13,0,0,1,629.25,79.1Z"/><path class="cls-7" d="M625.61,78.65c.18,0-.27,1.27.55,2.54s2.09,1.55,2.09,1.73-.37.18-.91,0a3.29,3.29,0,0,1-1.73-1.36,2.85,2.85,0,0,1-.36-2.09C625.34,78.92,625.52,78.65,625.61,78.65Z"/><path class="cls-7" d="M629.88,64.85c-.27.27-1.27-.28-2.72-.55s-2.55-.27-2.64-.64c0-.18.27-.36.82-.54a4.75,4.75,0,0,1,4.09.91C629.79,64.39,630,64.75,629.88,64.85Z"/><path class="cls-7" d="M640.05,69.39c-.27.18-1-.37-1.9-.73s-1.82-.45-1.91-.73.18-.36.63-.54A3,3,0,0,1,640,68.57C640.14,69,640.14,69.3,640.05,69.39Z"/><path class="cls-6" d="M618.62,170.2a4.47,4.47,0,0,1,2.91,5.09l-6.18,2.45-1.36-5.9Z"/><path class="cls-6" d="M567,170.2s12.26-1.27,20,1.46,17.35,4.72,21.53,3.81a11,11,0,0,0,5.81-3.63s-12.26-1.46-18-3.36c-3.91-1.28-11.54-10-25.71-7.81Z"/><path class="cls-6" d="M616.35,174.65a8.24,8.24,0,0,0-2-3l.09.18a27.73,27.73,0,0,0-3.81.54,6.15,6.15,0,0,0-3.18,2,1.7,1.7,0,0,0-.46,1.18,2.08,2.08,0,0,0,1,1.36,10.43,10.43,0,0,0,3.91,2.27A3.81,3.81,0,0,0,616,178.1,4.15,4.15,0,0,0,616.35,174.65Z"/><path class="cls-7" d="M607.36,174.2a1.85,1.85,0,0,1,.36-.73,4.21,4.21,0,0,1,1.82-1.18,6.38,6.38,0,0,1,3.17-.27,4.7,4.7,0,0,1,3.27,2.09,3.81,3.81,0,0,1,.55,2,2.84,2.84,0,0,1-.73,1.81,2.87,2.87,0,0,1-1.36,1,4.27,4.27,0,0,1-1.54.18,7.83,7.83,0,0,1-2.09-.54,1.53,1.53,0,0,1-.55-.27c-.09,0-.09-.1-.18-.1l.18.1.55.18a5.4,5.4,0,0,0,2.09.45,3.07,3.07,0,0,0,2.72-1.18,3.13,3.13,0,0,0,.18-3.63,4.83,4.83,0,0,0-3.18-2.09,6.37,6.37,0,0,0-3.17.27,3.77,3.77,0,0,0-1.82,1.09A1.13,1.13,0,0,1,607.36,174.2Z"/><path class="cls-17" d="M610,174.38c-.27-.18-.45-.45-.73-.64a4.2,4.2,0,0,0-.9-.45,2.94,2.94,0,0,1,1.63,1.09Z"/><path class="cls-17" d="M612,174.47l-.64-.63a3,3,0,0,0-.72-.55,3.65,3.65,0,0,1,.81.45C611.63,174,611.81,174.2,612,174.47Z"/><path class="cls-17" d="M612.81,178.74a1.4,1.4,0,0,0-.19-.55,4.9,4.9,0,0,0-.54-1.18,5.08,5.08,0,0,0-.91-1,3.25,3.25,0,0,1-.45-.36,2,2,0,0,1,.45.27,4.07,4.07,0,0,1,1.45,2.18A2.17,2.17,0,0,1,612.81,178.74Z"/><path class="cls-17" d="M614.8,177.2v-.55a6,6,0,0,0-.09-1.27,11.24,11.24,0,0,0-.54-1.64l.09.1c.09.09.09.27.18.36a5.24,5.24,0,0,1,.36,1.27,6,6,0,0,1,.09,1.27v.36Z"/><path class="cls-7" d="M614.8,173.38a10.42,10.42,0,0,0-5,3.54,2.13,2.13,0,0,1,.54-.81,7.87,7.87,0,0,1,3.64-2.55A2.63,2.63,0,0,1,614.8,173.38Z"/><path class="cls-7" d="M611.81,172.38a8.75,8.75,0,0,0-1.73,1.91,5.82,5.82,0,0,0-.63,2.45.92.92,0,0,1,0-.73,5.49,5.49,0,0,1,.54-1.72,5.78,5.78,0,0,1,1.18-1.45A1,1,0,0,1,611.81,172.38Z"/><path class="cls-7" d="M615.17,178.74a2.28,2.28,0,0,0-.28-.73,4.27,4.27,0,0,0-1.09-1.45,19.42,19.42,0,0,0-2.17-1.45c.27.09.45.18.72.27a14.41,14.41,0,0,1,1.64,1,6.26,6.26,0,0,1,1.09,1.54A2.55,2.55,0,0,1,615.17,178.74Z"/><path class="cls-7" d="M589.28,172.29a2.53,2.53,0,0,1-1.18-.27c-.82-.18-1.91-.46-3.27-.73a74.78,74.78,0,0,0-10.9-1.27,22.44,22.44,0,0,0-6,.45,13.33,13.33,0,0,0-4.36,2.18,17.75,17.75,0,0,0-3.09,3.27,6.57,6.57,0,0,1,.64-1.09,12.38,12.38,0,0,1,6.72-4.81,22.45,22.45,0,0,1,6.08-.54,63.37,63.37,0,0,1,11,1.45c1.36.27,2.45.63,3.27.82Z"/><path class="cls-7" d="M499,159.94a1.78,1.78,0,0,1,.64-.46,8.81,8.81,0,0,1,2-1.09,13,13,0,0,1,8.26-.63,11.88,11.88,0,0,1,5.09,2.63,29,29,0,0,1,4.36,5,67.69,67.69,0,0,0,4.36,5.81,50.92,50.92,0,0,0,5.45,5.54,36.19,36.19,0,0,0,12.71,7.72,19.45,19.45,0,0,0,6.45,1,9.76,9.76,0,0,0,5.45-1.36,12.53,12.53,0,0,0,3.36-3.18c.82-1.09,1.54-2.09,2.09-2.91l1.27-1.9c.18-.19.27-.46.45-.64-.09.27-.27.45-.36.73l-1.18,1.9c-.54.82-1.18,1.82-2,3a13.62,13.62,0,0,1-3.45,3.36,10,10,0,0,1-5.54,1.45,22.56,22.56,0,0,1-6.54-1A37.88,37.88,0,0,1,529,177.1a54.55,54.55,0,0,1-5.54-5.63,71.91,71.91,0,0,1-4.36-5.9,28,28,0,0,0-4.17-5,11.55,11.55,0,0,0-5-2.63,13,13,0,0,0-8.08.45C500.73,158.94,499.91,159.39,499,159.94Z"/><path class="cls-17" d="M521.62,151.86H521c-.45,0-1,.09-1.72.09A22.77,22.77,0,0,0,508.63,156c-.55.46-1.09.82-1.36,1.09l-.46.37a15,15,0,0,1,1.82-1.55,21.52,21.52,0,0,1,10.63-4.08Z"/><path class="cls-17" d="M536.24,160.67l-.64.09c-.45.09-1.09.18-1.81.27A24.89,24.89,0,0,0,523,166.21c-.55.45-1.09.9-1.36,1.18l-.46.45a15.57,15.57,0,0,1,1.82-1.72,22.42,22.42,0,0,1,5.09-3.27,20.94,20.94,0,0,1,5.72-1.91Z"/><path class="cls-17" d="M535.79,181.37a2,2,0,0,1-.09-.72,12.23,12.23,0,0,1-.1-1.91,14.91,14.91,0,0,1,1.82-6.09,35.09,35.09,0,0,1,3.72-5.08,20.68,20.68,0,0,1,1.82-1.91l-.45.55-1.27,1.45a28.7,28.7,0,0,0-3.73,5.09,14.16,14.16,0,0,0-1.91,6,6.79,6.79,0,0,0,0,1.91,1,1,0,0,0,.1.54Z"/><path class="cls-17" d="M551.77,172.2a5.78,5.78,0,0,1-.27-.73,9.38,9.38,0,0,1-.09-3.54c.09-.27.09-.45.18-.73a7.33,7.33,0,0,0-.18.73,9.38,9.38,0,0,0,.09,3.54C551.68,171.93,551.77,172.2,551.77,172.2Z"/><path class="cls-17" d="M554.59,183.28c-.55-.36-1-.73-1.46-1.09a14.27,14.27,0,0,1-4.54-7.36,6.3,6.3,0,0,1-.27-1.81.67.67,0,0,0,.09.45c.09.27.09.73.27,1.27a14.64,14.64,0,0,0,4.54,7.36c.37.27.64.55,1,.82A1.15,1.15,0,0,0,554.59,183.28Z"/><path class="cls-17" d="M566.85,170.75a7.62,7.62,0,0,1-1.18-.64,25.71,25.71,0,0,1-2.64-1.82,18.39,18.39,0,0,1-2.36-2.17c-.54-.64-.91-1-.91-1l.28.27.63.73c.73.72,1.55,1.45,2.36,2.17a25.71,25.71,0,0,0,2.64,1.82l.82.55Z"/><path class="cls-17" d="M575.57,169.57V168.2a18,18,0,0,0-.27-3.17c-.19-1.28-.37-2.37-.55-3.18l-.18-.91a1.42,1.42,0,0,1-.09-.37c0,.1.09.28.09.37.09.27.18.63.27.91a20.38,20.38,0,0,1,.55,3.18,19.67,19.67,0,0,1,.27,3.17v1C575.57,169.29,575.57,169.38,575.57,169.57Z"/><path class="cls-17" d="M586.83,163.3v.27c0,.27-.09.55-.09.82a16.8,16.8,0,0,1-.46,2.63c-.27,1-.45,1.91-.63,2.64l-.27.81-.09.28a.36.36,0,0,1,.09-.28,2.63,2.63,0,0,0,.18-.81,23.18,23.18,0,0,0,.63-2.64c.19-1.09.37-1.9.46-2.63,0-.27.09-.55.09-.82Z"/><path class="cls-17" d="M594.55,170.84c.09-.46.18-1,.27-1.46a7.92,7.92,0,0,1,.37-1.45c-.1.46-.19,1-.28,1.45A8.64,8.64,0,0,1,594.55,170.84Z"/><path class="cls-17" d="M607.27,175a1.78,1.78,0,0,1,.09-.64,7.85,7.85,0,0,0,.09-1.45v-2.09c0,.18.09.45.09.63v1.46c0,.45-.09,1-.09,1.45C607.36,174.65,607.36,174.83,607.27,175Z"/><path class="cls-6" d="M609.72,178c-1-4-5-6.45-9.08-7.17s-8.09.18-12.18.72-8.35.64-12-1.27a14.43,14.43,0,0,0-1.64,7h2.09c.45,3.08,3.27,5.45,6.27,6.08s5,.73,7.81-.54c3-1.27,6.81-3.27,9.81-4.27S607,177,609.9,178"/><path class="cls-7" d="M578.66,171.29a3.71,3.71,0,0,1-.37.82,14.25,14.25,0,0,0-.72,2.09,16.93,16.93,0,0,0-.46,2.18,3.16,3.16,0,0,1-.09.91,1.57,1.57,0,0,1,0-.91,18.34,18.34,0,0,1,.36-2.18,8.83,8.83,0,0,1,.82-2.09A3.39,3.39,0,0,1,578.66,171.29Z"/><path class="cls-7" d="M577.11,175.56a4.5,4.5,0,0,1-1.09-.09,4.68,4.68,0,0,1-1.09-.18,2.61,2.61,0,0,1,1.18,0A2.35,2.35,0,0,1,577.11,175.56Z"/><path class="cls-7" d="M577.57,173.11a3.82,3.82,0,0,0-1-.46c-.55-.18-1-.18-1-.27A2.32,2.32,0,0,1,577.57,173.11Z"/><path class="cls-20" d="M581.83,171.84h2.46a32.53,32.53,0,0,0,6.63-.73,26.21,26.21,0,0,1,10-.27,13.87,13.87,0,0,1,5.54,2.18,10.55,10.55,0,0,1,3.81,5.08l.09.19-.18-.1a7.18,7.18,0,0,0-2.72-.72,16.91,16.91,0,0,0-6.72,1.18c-2,.73-4,1.54-6,2.45-.91.46-1.81.91-2.72,1.27a21.21,21.21,0,0,1-2.64,1,13.32,13.32,0,0,1-5.08.18,10.07,10.07,0,0,1-3.91-1.45,7.51,7.51,0,0,1-3-4.09,6.61,6.61,0,0,0-.18-.72,7.72,7.72,0,0,0,3.18,4.72,9.57,9.57,0,0,0,3.91,1.45,11.56,11.56,0,0,0,5-.27,12.72,12.72,0,0,0,2.64-1c.9-.36,1.81-.82,2.72-1.27a57.43,57.43,0,0,1,6-2.45,17.34,17.34,0,0,1,6.81-1.18,9.93,9.93,0,0,1,2.81.72l-.09.09a9.76,9.76,0,0,0-3.72-5,13,13,0,0,0-5.45-2.18,27.71,27.71,0,0,0-9.9.27,32.38,32.38,0,0,1-6.63.64Z"/><path class="cls-17" d="M581.65,182.83c-.09-.09-.09-.28-.18-.46a4.45,4.45,0,0,1-.27-1.18,14.28,14.28,0,0,1,.54-7.81,5.64,5.64,0,0,1,.46-1.09c.09-.18.09-.27.18-.36a9.52,9.52,0,0,0-.55,1.54,16.41,16.41,0,0,0-.54,7.81A12.8,12.8,0,0,0,581.65,182.83Z"/><path class="cls-17" d="M589.55,177.56c.1.27.1.54.19.73.09.45.18,1.09.36,1.81.36,1.46.73,2.55.73,2.55a1.83,1.83,0,0,1-.28-.73c-.18-.64-.36-1.18-.54-1.82a12.88,12.88,0,0,1-.36-1.81A.72.72,0,0,1,589.55,177.56Z"/><path class="cls-17" d="M588.37,174.47a7.9,7.9,0,0,1,.09,1.45c.1.82.19,1.46.19,1.46A5.23,5.23,0,0,1,588.37,174.47Z"/><path class="cls-17" d="M590.28,171.29a7.18,7.18,0,0,1-.36,1.36c-.18.73-.09,1.37-.18,1.37a4,4,0,0,1,0-1.46A3.26,3.26,0,0,1,590.28,171.29Z"/><path class="cls-17" d="M596.55,173a2.57,2.57,0,0,1-.55-2.27c.09,0,0,.54.18,1.18S596.64,173,596.55,173Z"/><path class="cls-17" d="M601.45,178.1a5,5,0,0,1-.54-.72,17.5,17.5,0,0,1-1-1.91,17.89,17.89,0,0,1-.73-2c-.09-.27-.09-.63-.18-.91l.27.82c.18.55.46,1.27.73,2a12.77,12.77,0,0,0,.91,1.91A1.43,1.43,0,0,1,601.45,178.1Z"/><path class="cls-17" d="M602.82,171.56a1.35,1.35,0,0,1-.28.37,1.55,1.55,0,0,0-.27.36,1.07,1.07,0,0,1,.18-.54C602.63,171.47,602.82,171.47,602.82,171.56Z"/><path class="cls-17" d="M610.08,178.29l-.27-.28a7.89,7.89,0,0,0-4.18-1.81,13.29,13.29,0,0,0-5.36.54,53.34,53.34,0,0,0-6.17,2.54,19.56,19.56,0,0,1-6.36,1.82,16,16,0,0,1-5.45-.45,12.56,12.56,0,0,1-3.45-1.37,3.05,3.05,0,0,1-.82-.54l-.27-.18.27.18a7.55,7.55,0,0,0,.91.45,15.58,15.58,0,0,0,8.81,1.82,19.56,19.56,0,0,0,6.36-1.82,51.63,51.63,0,0,1,6.17-2.54,11.88,11.88,0,0,1,5.36-.54,8.33,8.33,0,0,1,3.45,1.27A5.11,5.11,0,0,0,610.08,178.29Z"/><path class="cls-17" d="M594.91,174a5.35,5.35,0,0,0-.63.27c-.37.18-1,.36-1.82.64a18.14,18.14,0,0,1-6.18,1,24,24,0,0,1-6.17-1c-1.55-.46-2.45-.82-2.45-.82l.72.18,1.82.54a23.55,23.55,0,0,0,6.18,1,20.33,20.33,0,0,0,6.17-1c.73-.27,1.36-.45,1.82-.63Z"/><path class="cls-17" d="M604.09,173.11l-.28-.18c-.18-.09-.45-.28-.63-.37a9.17,9.17,0,0,0-2.64-.9,15.11,15.11,0,0,0-4.08-.19c-1.55.19-3.18.46-5,.82a25.22,25.22,0,0,1-9.08.27c-2.36-.36-3.72-.72-3.72-.72l1,.18c.64.09,1.55.27,2.73.45a25.22,25.22,0,0,0,9.08-.27c1.73-.36,3.45-.64,5-.82a12.45,12.45,0,0,1,4.08.18,9.5,9.5,0,0,1,2.64.91A2.43,2.43,0,0,1,604.09,173.11Z"/><path class="cls-7" d="M609.81,177.83a14.5,14.5,0,0,0-2.54-2.72,10.89,10.89,0,0,0-3.55-1.91,10.68,10.68,0,0,0-4.81-.27,13.27,13.27,0,0,0-4.54,1.81,35.42,35.42,0,0,1-3.54,2,8.89,8.89,0,0,1-2.64.91,2,2,0,0,1-.72.09h-.28a12.28,12.28,0,0,0,3.45-1.27c1-.55,2.18-1.27,3.46-2.09a14.73,14.73,0,0,1,4.63-1.91,10.29,10.29,0,0,1,10.44,4.45A2.38,2.38,0,0,1,609.81,177.83Z"/><path class="cls-7" d="M597.18,173.2a16.29,16.29,0,0,1-5.54,1.27A14.82,14.82,0,0,1,586,174c0-.09,2.55.18,5.63,0A46.76,46.76,0,0,0,597.18,173.2Z"/><path class="cls-17" d="M592.73,170.38l-1-.45c-.72-.27-1.63-.73-3-1.18a37.87,37.87,0,0,0-11.45-2.36,26.36,26.36,0,0,0-8,1,18.68,18.68,0,0,0-7.9,4.63c-2.36,2.27-4.36,5.08-7.09,7.45A11.62,11.62,0,0,1,549.5,182a10.58,10.58,0,0,1-5.54-.36,16.21,16.21,0,0,1-4.9-2.73,22.16,22.16,0,0,1-3.73-4c-2.18-2.82-3.9-5.82-5.9-8.45a40.43,40.43,0,0,0-6.27-6.81,29.5,29.5,0,0,0-6.81-4.27,19,19,0,0,0-11.44-1.18,16,16,0,0,0-3,1l-1,.45,1-.54a12.59,12.59,0,0,1,3-1,19.26,19.26,0,0,1,11.53,1.09,23.85,23.85,0,0,1,6.9,4.26,37.79,37.79,0,0,1,6.36,6.82c2,2.63,3.72,5.54,5.9,8.44a25.12,25.12,0,0,0,3.73,3.91,16.75,16.75,0,0,0,4.81,2.72,10.1,10.1,0,0,0,5.45.37,12,12,0,0,0,4.72-2.55c2.73-2.36,4.73-5.17,7.09-7.44a18.74,18.74,0,0,1,8-4.64,23.84,23.84,0,0,1,8-1,38.13,38.13,0,0,1,11.45,2.36C591.37,169.75,592.73,170.38,592.73,170.38Z"/><path class="cls-17" d="M548.14,173.11a7.8,7.8,0,0,1-1.45-.09,8.93,8.93,0,0,1-3.64-1.46,17.57,17.57,0,0,1-4-4.17,68.93,68.93,0,0,0-4.18-5.73,34.55,34.55,0,0,0-10.08-8,31.12,31.12,0,0,0-3.55-1.63l-1.27-.55s.46.18,1.37.46a26.29,26.29,0,0,1,3.63,1.63,34.55,34.55,0,0,1,10.08,8,51.78,51.78,0,0,1,4.18,5.73,17.57,17.57,0,0,0,4,4.17,10.14,10.14,0,0,0,3.55,1.55,4.42,4.42,0,0,0,1.09.09Z"/><path class="cls-17" d="M590,165.39l-.27-.18c-.19-.09-.46-.28-.82-.46-1-.54-2-1-3-1.45a26.44,26.44,0,0,0-21.34.64,17.72,17.72,0,0,0-2.91,1.63,2.52,2.52,0,0,0-.73.55l-.27.18,1-.73a17.72,17.72,0,0,1,2.91-1.63A25.94,25.94,0,0,1,586,163.3c1,.45,2,.91,3,1.45A9.67,9.67,0,0,0,590,165.39Z"/><path class="cls-17" d="M571.48,169.48a1.42,1.42,0,0,0-.09-.37,7.1,7.1,0,0,1-.27-1,33,33,0,0,0-1.27-3.08,31,31,0,0,0-1.73-2.91,7.68,7.68,0,0,1-.55-.82l-.18-.27c.28.36.64.73.91,1.09a19.71,19.71,0,0,1,3,6A7.15,7.15,0,0,0,571.48,169.48Z"/><path class="cls-17" d="M581.11,161a9.13,9.13,0,0,1,.09,1.36c0,1.09-.09,2.09-.18,3.18a17.19,17.19,0,0,1-.73,3.09c-.27.82-.45,1.27-.45,1.27a.54.54,0,0,1,.09-.36c.09-.19.18-.64.27-.91a20,20,0,0,0,.64-3.09,19,19,0,0,0,.27-3.18Z"/><path class="cls-17" d="M560.22,176.38c-.37-.18-.73-.46-1.09-.64a15.24,15.24,0,0,1-2.27-2,22.86,22.86,0,0,1-2-2.27,7.2,7.2,0,0,1-.64-1.09,1.24,1.24,0,0,1,.19.28,3,3,0,0,0,.54.72,22,22,0,0,0,1.91,2.27,21.64,21.64,0,0,0,2.27,2l.72.55Z"/><path class="cls-17" d="M546.23,173.56a3.2,3.2,0,0,1-.18-.91,10,10,0,0,1,.27-4.63,3.63,3.63,0,0,1,.37-.91.33.33,0,0,1-.1.28,5.74,5.74,0,0,0-.18.63,10,10,0,0,0-.36,2.27,20.6,20.6,0,0,0,.09,2.36c0,.28.09.55.09.73Z"/><path class="cls-17" d="M546.14,185.37a11.45,11.45,0,0,1-.64-1.45,26.75,26.75,0,0,1-1.09-3.73,27.19,27.19,0,0,1-.45-3.9v0a28.76,28.76,0,0,0,.45,3.9,26.75,26.75,0,0,0,1.09,3.73c.19.45.37.81.46,1.09Z"/><path class="cls-17" d="M556.86,166.48c.09.27.09.45.18.72a6,6,0,0,0,.36.64,1.58,1.58,0,0,1-.45-.64A1,1,0,0,1,556.86,166.48Z"/><path class="cls-17" d="M539.15,163l-.55.36c-.36.18-.91.55-1.63.91a31.79,31.79,0,0,0-9,8.08,17.06,17.06,0,0,1-1.09,1.46,1.5,1.5,0,0,0-.37.54c.46-.73.91-1.45,1.36-2.09a30.66,30.66,0,0,1,9-8.08A16.2,16.2,0,0,1,539.15,163Z"/><path class="cls-17" d="M528.16,153.94l-.55.1c-.36.09-.91.18-1.54.36a33.13,33.13,0,0,0-9.45,4.36l-1.27.91-.45.36a17.67,17.67,0,0,1,1.72-1.27,33.65,33.65,0,0,1,4.54-2.64,33.18,33.18,0,0,1,5-1.81C527.34,154,528.16,153.94,528.16,153.94Z"/><path class="cls-17" d="M602.27,169.93a1.14,1.14,0,0,1-.09.54,1.28,1.28,0,0,1-.18.55,1.2,1.2,0,0,1,.09-.55C602.18,170.29,602.18,170.11,602.27,169.93Z"/><path class="cls-3" d="M643.5,169.57s4.09.81,5.82,1.27c.54.09,1.18,0,1.72.09a21.2,21.2,0,0,0,7.54-.09c1.73-.64,1.82,1.54-.09,2.54a9,9,0,0,1-3,1.09L660,178.1a1.26,1.26,0,0,1,.46.73l1.18,8a1.28,1.28,0,0,1-.91,1.55.63.63,0,0,1-.91-.28h0l.09,1.09a1.42,1.42,0,1,1-2.81.46v-.09l-1.64.91s-1.09,1.09-2.18-.46c-.9-1.27-3.72-6.26-3.72-6.26s-12-5.09-11.81-7.09Z"/><path class="cls-19" d="M657.31,189.55a14.25,14.25,0,0,1-.36-1.91c-.18-1.18-.55-2.82-.73-4.63-.18-.91-.36-1.73-.54-2.45a1.29,1.29,0,0,0-.64-.73l-.82-.55a16.67,16.67,0,0,1-1.63-1.18,6.89,6.89,0,0,1,1.81.82l.91.46a1.57,1.57,0,0,1,.82.9c.27.82.45,1.73.64,2.55.27,1.81.54,3.45.63,4.72A5,5,0,0,1,657.31,189.55Z"/><path class="cls-19" d="M659.94,188c-.18,0-.45-2.9-1.18-6.35a6.63,6.63,0,0,0-.72-2.27,10.53,10.53,0,0,0-1.46-1.37l-1.09-.81c-.27-.19-.45-.19-.45-.28s.18-.09.54.09a4.92,4.92,0,0,1,1.28.73,10.88,10.88,0,0,1,1.63,1.36,5.81,5.81,0,0,1,.91,2.46,38.39,38.39,0,0,1,.73,4.54A12.23,12.23,0,0,0,659.94,188Z"/><path class="cls-19" d="M650.13,180.47a8.16,8.16,0,0,1,1.55.72l.73.46a3.23,3.23,0,0,1,.9.63,2,2,0,0,1,.55,1.09c.09.37.27.73.36,1.18a38.43,38.43,0,0,1,1.55,5.72,39,39,0,0,1-2-5.54l-.37-1.18a1.71,1.71,0,0,0-.45-.9,1.35,1.35,0,0,0-.73-.55l-.72-.45A8.13,8.13,0,0,0,650.13,180.47Z"/><path class="cls-19" d="M650.5,171.84c.09-.18,1.72.45,3.63,1.54a11.21,11.21,0,0,1,3.18,2.36c-1.18-.63-2.36-1.27-3.45-2l-2.45-1.36C651.13,172.2,650.77,172,650.5,171.84Z"/><path class="cls-21" d="M525.53,237.56l5.12,3.55,3.56-5.12.31.84-3.66,5.33-5.33-3.66Z"/><path class="cls-21" d="M536.3,241.11l-1-5.33,9.62,2.51-.83-4.18.41-.11,1,5.34-9.62-2.51.84,4.18Z"/><path class="cls-21" d="M557.11,232.12l.94,4.92-9.2,1.77-1.05-5.33,9.2-1.78Zm.41,4.18-.73-3.76-8.47,1.57.73,3.76Z"/><path class="cls-21" d="M567.14,230.24l.94,4.91-9.2,1.68-1-5.33,9.2-1.68Zm.42,4.18-.73-3.76-8.47,1.57.73,3.76Z"/><path class="cls-21" d="M568.92,234.11l8.68-1.67-.32-1.57-8.88,1.67-.53-3,9.2-1.78,1,5.33-9.1,1.68Zm8.26-4-.21-1.26-8.47,1.57.21,1.25Z"/></g></svg>