<svg id="Layer_1" data-name="Layer 1" xmlns="http://www.w3.org/2000/svg" viewBox="0 0 300 100"><defs><style>.cls-1{fill:#364850;}</style></defs><path class="cls-1" d="M109.25,50.34V22.75l83.95,21.3V22.6h4.28V50.31L113.53,29V50.34Z"/><path class="cls-1" d="M205.89,34h60.82V38.9H205.89v6.47H287.7v4.94H201.61V22.57H287.7v4.95H205.89Z"/><path class="cls-1" d="M15.61,46.78a3.2,3.2,0,0,1,1,2.32,3.1,3.1,0,0,1-1,2.29,3.21,3.21,0,0,1-4.64,0,3.1,3.1,0,0,1-1-2.29,3.15,3.15,0,0,1,.26-1.25,3.31,3.31,0,0,1,.7-1.07,3.28,3.28,0,0,1,4.64,0Z"/><path class="cls-1" d="M36.08,89.55V68H25.25V66.31H49.57V68H38.75v21.6Z"/><path class="cls-1" d="M54.08,89.55V65.39h2.67v9.18A26.09,26.09,0,0,1,61,73.05a19.63,19.63,0,0,1,5.09-.66,10.21,10.21,0,0,1,4.22.76,5.73,5.73,0,0,1,2.53,2A4.89,4.89,0,0,1,73.7,78V89.55H71V78.12a3.34,3.34,0,0,0-.69-2.06,4.76,4.76,0,0,0-1.93-1.46,7.66,7.66,0,0,0-3-.53,20.17,20.17,0,0,0-3.16.22,18.85,18.85,0,0,0-2.69.61c-.86.27-1.78.58-2.77.94V89.55Z"/><path class="cls-1" d="M81.53,69.51q-.69,0-.69-.48V66.78c0-.31.23-.47.69-.47h1.8a.65.65,0,0,1,.46.13.44.44,0,0,1,.14.34V69q0,.48-.6.48Zm-.46,20V72.67h2.67V89.55Z"/><path class="cls-1" d="M100.32,89.74a17.62,17.62,0,0,1-6-.81,5.32,5.32,0,0,1-3.11-2.71,11.86,11.86,0,0,1-.92-5.16,11.55,11.55,0,0,1,1-5.19,5.38,5.38,0,0,1,3.2-2.63,19.26,19.26,0,0,1,6-.76,22.47,22.47,0,0,1,5.13.49,5.38,5.38,0,0,1,3,1.7,5.08,5.08,0,0,1,1,3.32,3.25,3.25,0,0,1-.81,2.3,4.65,4.65,0,0,1-2.33,1.25,15.09,15.09,0,0,1-3.59.38H93a8.91,8.91,0,0,0,.64,3.7,4,4,0,0,0,2.33,2,14.85,14.85,0,0,0,5,.63H109v1.11c-1.47.1-2.86.19-4.16.25S102,89.74,100.32,89.74ZM93,80.62h9.72a7.81,7.81,0,0,0,3.36-.56A2.09,2.09,0,0,0,107.14,78a4.07,4.07,0,0,0-.67-2.47,3.65,3.65,0,0,0-2.12-1.25,16.77,16.77,0,0,0-3.89-.36,14.3,14.3,0,0,0-4.54.57,3.74,3.74,0,0,0-2.3,2A10.09,10.09,0,0,0,93,80.62Z"/><path class="cls-1" d="M124,89.55a11,11,0,0,1-3.71-.54A4.23,4.23,0,0,1,118,87.3a5.63,5.63,0,0,1-.73-3l.14-10h-3.92V73l3.92-.35.5-4.72h2v4.72h7.46v1.55h-7.46v10a4.23,4.23,0,0,0,.39,1.95,2.83,2.83,0,0,0,1,1.12,4.06,4.06,0,0,0,1.34.52A8.48,8.48,0,0,0,124,88l3,.19v1.33Z"/><path class="cls-1" d="M132.79,89.55V66.31h2.67V77.1h6.45l9.94-10.79h2.86L144,77.93,154.8,89.55h-2.9l-10-10.8h-6.4v10.8Z"/><path class="cls-1" d="M168.06,89.74a17.7,17.7,0,0,1-6-.81A5.32,5.32,0,0,1,159,86.22a12,12,0,0,1-.92-5.16,11.4,11.4,0,0,1,1-5.19,5.35,5.35,0,0,1,3.2-2.63,19.19,19.19,0,0,1,6-.76,22.63,22.63,0,0,1,5.14.49,5.38,5.38,0,0,1,3,1.7,5.08,5.08,0,0,1,1,3.32,3.25,3.25,0,0,1-.81,2.3,4.61,4.61,0,0,1-2.32,1.25,15.14,15.14,0,0,1-3.59.38h-9.86a8.89,8.89,0,0,0,.65,3.7,3.9,3.9,0,0,0,2.32,2,14.85,14.85,0,0,0,4.95.63h8.11v1.11c-1.48.1-2.87.19-4.17.25S169.78,89.74,168.06,89.74Zm-7.37-9.12h9.72a7.75,7.75,0,0,0,3.36-.56A2.09,2.09,0,0,0,174.88,78a4,4,0,0,0-.67-2.47,3.62,3.62,0,0,0-2.12-1.25,16.72,16.72,0,0,0-3.89-.36,14.23,14.23,0,0,0-4.53.57,3.76,3.76,0,0,0-2.31,2A10.26,10.26,0,0,0,160.69,80.62Z"/><path class="cls-1" d="M190.86,89.55,182,66.31h2.81l7.83,20.86,9-20.86h2.86l8.93,20.86,7.87-20.86H224l-8.89,23.24h-3L203,68.75l-9.12,20.8Z"/><path class="cls-1" d="M236.82,89.74a17.62,17.62,0,0,1-6-.81,5.32,5.32,0,0,1-3.11-2.71,11.86,11.86,0,0,1-.92-5.16,11.55,11.55,0,0,1,1-5.19,5.41,5.41,0,0,1,3.2-2.63,19.26,19.26,0,0,1,6-.76,22.47,22.47,0,0,1,5.13.49,5.38,5.38,0,0,1,3,1.7,5.08,5.08,0,0,1,1,3.32,3.25,3.25,0,0,1-.81,2.3A4.66,4.66,0,0,1,243,81.54a15.17,15.17,0,0,1-3.6.38H229.5a8.91,8.91,0,0,0,.64,3.7,4,4,0,0,0,2.33,2,14.85,14.85,0,0,0,4.95.63h8.1v1.11c-1.47.1-2.86.19-4.16.25S238.54,89.74,236.82,89.74Zm-7.37-9.12h9.72a7.81,7.81,0,0,0,3.36-.56A2.09,2.09,0,0,0,243.64,78a4.07,4.07,0,0,0-.67-2.47,3.65,3.65,0,0,0-2.12-1.25,16.77,16.77,0,0,0-3.89-.36,14.3,14.3,0,0,0-4.54.57,3.74,3.74,0,0,0-2.3,2A10.09,10.09,0,0,0,229.45,80.62Z"/><path class="cls-1" d="M263.85,89.74a17.2,17.2,0,0,1-3.34-.32,23,23,0,0,1-2.9-.76c-.87-.29-1.62-.58-2.23-.85l-.6,1.74h-2.07V65.39h2.67v8.93a26.66,26.66,0,0,1,4.17-1.3,18.75,18.75,0,0,1,4.21-.54,12.35,12.35,0,0,1,4.86.84,5.91,5.91,0,0,1,3,2.76,11,11,0,0,1,1,5.14,10.75,10.75,0,0,1-.87,4.48,6.39,6.39,0,0,1-2.79,3A10.55,10.55,0,0,1,263.85,89.74Zm-.69-1.55a8,8,0,0,0,3.76-.8A5,5,0,0,0,269.17,85a8.83,8.83,0,0,0,.76-3.86,9.24,9.24,0,0,0-.87-4.5,4.6,4.6,0,0,0-2.4-2.09,9.92,9.92,0,0,0-3.5-.57,16.61,16.61,0,0,0-4.07.45,35.92,35.92,0,0,0-3.71,1.14v11c1,.38,2.2.74,3.48,1.07A17.65,17.65,0,0,0,263.16,88.19Z"/><path class="cls-1" d="M87.19,13,86,17.06l-5.52,2.83L76,15l2.62-3.31L75.12,7.13l-3.45,4.55L74.29,15l-4.48,4.9-5.52-2.83L63.05,13l-5.66-.76,1.1,4.9,4.17,1,5.22,9.24H82.36l5.22-9.24,4.17-1,1.1-4.9ZM59.8,16.1l-.55-2.21,2.56.34.69,2.35Zm13.8-4.42,1.52-2.07,1.52,2.07-1.52,1.79Zm7,14-5.52,0-5.52,0-3.79-5.8,4.48,2.21,4.83-5.52L80,22.1l4.48-2.21Zm9.8-9.59-2.7.48.69-2.35L91,13.89Z"/><path class="cls-1" d="M105.2,29.84a7.11,7.11,0,0,0-.42-1.43,7.64,7.64,0,0,0-.71-1.32,10,10,0,0,0-.94-1.21,8,8,0,0,0-1.14-1,11.11,11.11,0,0,0-7-2.27H89.76L87,27.52h8A7.24,7.24,0,0,1,99.62,29a3.07,3.07,0,0,1,1.45,2.38V41.52a2.13,2.13,0,0,1-.19.84,3.61,3.61,0,0,1-.5.82,4.41,4.41,0,0,1-.76.73A7.3,7.3,0,0,1,95,45.37H27.46a7.31,7.31,0,0,1-4.62-1.46,3.07,3.07,0,0,1-1.44-2.39V31.36A3.06,3.06,0,0,1,22.84,29,6.86,6.86,0,0,1,25.7,27.7a8.47,8.47,0,0,1,1.76-.18h36l-2.79-4.95H27.46a11.12,11.12,0,0,0-7,2.27A8.71,8.71,0,0,0,18,27.76a7.56,7.56,0,0,0-.89,3.6V41.52a7.52,7.52,0,0,0,.23,1.89A7.29,7.29,0,0,0,18,45.17a8.35,8.35,0,0,0,1.06,1.55,8.77,8.77,0,0,0,1.39,1.33,11.15,11.15,0,0,0,7,2.26H95a11.15,11.15,0,0,0,7-2.26,8.81,8.81,0,0,0,2.48-2.91,7.78,7.78,0,0,0,.88-3.62V31.36A7.68,7.68,0,0,0,105.2,29.84Z"/></svg>