<svg id="Layer_1" data-name="Layer 1" xmlns="http://www.w3.org/2000/svg" viewBox="0 0 800 400"><defs><style>.cls-1{fill:#ebebeb;}.cls-2{fill:#263238;}.cls-12,.cls-3{fill:#337f81;}.cls-10,.cls-11,.cls-3,.cls-5{opacity:0.5;}.cls-11,.cls-3{isolation:isolate;}.cls-4{fill:#959595;}.cls-6{fill:#5d5d5d;}.cls-7{opacity:0.2;}.cls-8{fill:#fafafa;}.cls-9{fill:#fff;}.cls-10{fill:#455a64;}</style></defs><g id="freepik--Photos--inject-2"><rect class="cls-1" x="218.35" y="255.9" width="30.06" height="24.07" transform="translate(-59.47 66.7) rotate(-14.45)"/><path class="cls-2" d="M245.14,251.52H245l-.37.09-1.54.46-5.9,1.54-21,5.45.09-.09c1.81,6.9,3.9,14.8,6.08,23.25h0l-.09-.09,29.07-7.54-.1.09c-1.81-7-3.26-12.8-4.35-16.8-.55-2-.91-3.63-1.19-4.72l-.27-1.27a1.67,1.67,0,0,1-.09-.46l.09.46c.09.27.18.72.37,1.27l1.27,4.72c1.09,4.09,2.54,9.9,4.45,16.89v.09h-.09l-29.07,7.54h-.09v-.09h0l-6.08-23.25V259h.09l21.07-5.45,5.9-1.54,1.55-.37.36-.09Z"/><rect class="cls-3" x="219.62" y="256.45" width="27.88" height="20.98" transform="translate(-59.71 67.44) rotate(-14.59)"/><polygon class="cls-4" points="222.71 280.59 228.88 265.51 236.78 271.87 239.69 266.69 249.77 273.59 222.71 280.59"/><path class="cls-4" d="M236.78,261.88a2.19,2.19,0,0,1-1.54,2.63,2.25,2.25,0,0,1-2.63-1.54,2.13,2.13,0,0,1,1.54-2.64,2,2,0,0,1,2.63,1.55Z"/><g class="cls-5"><polygon class="cls-6" points="222.71 280.59 228.88 265.51 236.78 271.87 239.69 266.69 249.77 273.59 222.71 280.59"/></g><g class="cls-7"><path d="M236.78,261.88a2.19,2.19,0,0,1-1.54,2.63,2.25,2.25,0,0,1-2.63-1.54,2.13,2.13,0,0,1,1.54-2.64,2,2,0,0,1,2.63,1.55Z"/></g><rect class="cls-1" x="231.7" y="233.08" width="45.32" height="36.24" transform="translate(-17.03 18.5) rotate(-4.03)"/><path class="cls-2" d="M275.75,231.45h-.18l-.64.09-2.45.18-9.27.73-32.69,2.36.09-.09c.72,10.81,1.63,23.07,2.54,36.15h0l-.18-.09,45.23-3.18-.09.09c-.73-10.9-1.36-19.89-1.82-26.25-.18-3.18-.36-5.63-.45-7.36a16.23,16.23,0,0,1-.09-1.9,1,1,0,0,1,0-.73v.64c0,.45.09,1.09.18,1.9.09,1.73.27,4.18.54,7.27.46,6.36,1.09,15.35,1.91,26.25v.09h-.09l-45.23,3.18h-.18v-.09h0c-.91-13.08-1.82-25.43-2.54-36.15v-.09h.09l32.69-2.27,9.27-.64,2.45-.18h.64Z"/><rect class="cls-3" x="233.33" y="235.35" width="42.14" height="31.7" transform="translate(-17.03 18.5) rotate(-4.03)"/><polygon class="cls-4" points="234.51 268.42 247.77 247.8 257.76 259.42 263.49 252.43 276.47 265.51 234.51 268.42"/><path class="cls-4" d="M260.58,244.44a3.32,3.32,0,1,1-3.54-3.09h0A3.4,3.4,0,0,1,260.58,244.44Z"/><g class="cls-5"><polygon class="cls-6" points="234.51 268.42 247.77 247.8 257.76 259.42 263.49 252.43 276.47 265.51 234.51 268.42"/></g><g class="cls-7"><path d="M260.58,244.44a3.32,3.32,0,1,1-3.54-3.09h0A3.4,3.4,0,0,1,260.58,244.44Z"/></g><g id="freepik--Video--inject-2"><path class="cls-4" d="M319,326.77a2.33,2.33,0,0,0,1.09-.72,2.51,2.51,0,0,0,.55-1.55,3.35,3.35,0,0,0-.19-1c-.09-.36-.18-.81-.27-1.18-.82-3.36-2.09-8.26-3.54-14.26-.36-1.54-.73-3.08-1.18-4.72-.18-.82-.37-1.63-.64-2.54a6.52,6.52,0,0,0-.36-1.27,2,2,0,0,0-.82-.91,1.9,1.9,0,0,0-1.18-.27l-1.36.27-2.82.73-5.81,1.54-25.79,6.63A2.14,2.14,0,0,0,275.1,310c.27,1.18.55,2.27.82,3.36.54,2.27,1.09,4.45,1.63,6.63q1.63,6.54,3,12.54l.36,1.45a2.59,2.59,0,0,0,.64,1.18,2.05,2.05,0,0,0,1.18.55,7,7,0,0,0,1.36-.19l5.45-1.36,9.81-2.54L313.61,328l3.91-.91,1-.28H319l-.36.1-1,.27-3.82,1.09L299.62,332l-9.8,2.54L284.37,336a4.31,4.31,0,0,1-1.55.27,2.21,2.21,0,0,1-1.45-.73,2.84,2.84,0,0,1-.73-1.36c-.09-.45-.27-1-.36-1.45l-3.09-12.54-1.63-6.63-.82-3.45a2.54,2.54,0,0,1,1.91-3l25.79-6.63,5.81-1.46,2.82-.72a3.61,3.61,0,0,1,1.45-.28,2.58,2.58,0,0,1,1.45.37,2.24,2.24,0,0,1,1,1.09,6.7,6.7,0,0,1,.37,1.36,26.15,26.15,0,0,0,.63,2.54c.37,1.64.82,3.18,1.18,4.72,1.46,6,2.55,10.9,3.36,14.26.1.46.19.82.28,1.18a4.68,4.68,0,0,1,.18,1.09,2.34,2.34,0,0,1-.64,1.55,5,5,0,0,1-.81.63C319.24,326.68,319.15,326.77,319,326.77Z"/><polygon class="cls-3" points="298.72 314.24 304.26 315.88 300.17 320.05 295.99 324.14 294.63 318.33 293.18 312.51 298.72 314.24"/></g><g id="freepik--Sheet--inject-2"><path class="cls-3" d="M431.24,207.89l-29.33,15.44a4.19,4.19,0,0,1-5.63-1.73L375,181a4.19,4.19,0,0,1,1.73-5.63h0l18.62-9.81,22.16,7.27L433,202.25a4.11,4.11,0,0,1-1.73,5.64Z"/><g class="cls-7"><path d="M400.18,180.27a4.17,4.17,0,0,0,4.91,2.09l.45-.09c1.55-.54,11.9-3.81,11.81-4s-1.64-3.09-1.64-3.09l-11,5.81C404.72,180.91,401.91,182.27,400.18,180.27Z"/></g><path class="cls-8" d="M396.82,180.18c.09.19-2.9,1.91-6.63,3.82s-6.81,3.45-6.9,3.27,2.91-1.82,6.63-3.82S396.64,180,396.82,180.18Z"/><path class="cls-8" d="M408.9,182c.09.18-4.81,2.91-11,6.18s-11.26,5.72-11.26,5.54,4.81-2.91,11-6.18S408.9,181.91,408.9,182Z"/><path class="cls-8" d="M413.81,186.36c.09.18-5.36,3.09-12,6.63s-12.26,6.27-12.35,6.18,5.26-3.09,12-6.63S413.72,186.18,413.81,186.36Z"/><path class="cls-8" d="M416.44,191.45c.09.18-5.27,3.08-12,6.63s-12.26,6.26-12.35,6.17,5.36-3.09,12-6.63C410.9,194,416.35,191.26,416.44,191.45Z"/><path class="cls-8" d="M419.17,196.53c.09.18-5.36,3.09-12,6.63s-12.27,6.27-12.27,6.18,5.27-3.09,12-6.63S419.07,196.35,419.17,196.53Z"/><path class="cls-8" d="M421.8,201.62c.09.18-5.27,3.09-12,6.63s-12.26,6.27-12.26,6.17,5.36-3.08,12.08-6.63S421.8,201.44,421.8,201.62Z"/></g><rect class="cls-3" x="277.2" y="161.11" width="46.41" height="31.24" transform="translate(-14.63 27.64) rotate(-5.14)"/><path class="cls-9" d="M321.24,158.75c-.09.18-.27.27-.36.45-.27.37-.73.73-1.18,1.28-1.09,1.09-2.54,2.63-4.45,4.45l-14.71,14.8-.09.09-.19-.09-.36-.27-17.53-11.72-5.27-3.54-1.45-1a.9.9,0,0,1-.45-.36l.54.27,1.45.91,5.36,3.45,17.62,11.62.37.28h-.28l14.81-14.72,4.54-4.36,1.27-1.18Z"/><path class="cls-9" d="M277.92,193.9c-.09-.09,3-4.63,6.9-10.17s7.18-10,7.27-9.9-3,4.63-6.9,10.17S278.1,194,277.92,193.9Z"/><path class="cls-9" d="M307.35,172c.09-.09,3.9,3.82,8.44,8.72s8.27,9,8.18,9.08-3.91-3.81-8.45-8.72S307.26,172.1,307.35,172Z"/><path class="cls-3" d="M171.36,229.68l21.89-3.36a22.2,22.2,0,1,1-25.34-18.53h0a20.9,20.9,0,0,1,5.81-.09Z"/><path class="cls-10" d="M178.54,207.7l-2.64,17,16.72-3.09C192.53,221.6,190.07,212.06,178.54,207.7Z"/><g class="cls-11"><path class="cls-12" d="M409.43,336.84a11.28,11.28,0,0,1-.18-1.73A7.87,7.87,0,0,0,409,333a13.45,13.45,0,0,0-.55-2.81,29.53,29.53,0,0,0-2.9-7.27,28.09,28.09,0,0,0-6.81-7.81,25.86,25.86,0,0,0-11.27-5.27,26.88,26.88,0,0,0-14.17.91,27.8,27.8,0,0,0-12.71,9.08,26.85,26.85,0,0,0-.82,31.79c.82,1.09,1.64,2.18,2.54,3.18a21,21,0,0,0,3,2.64,27.87,27.87,0,0,0,6.72,3.9,27.22,27.22,0,0,0,32.79-10.63,31,31,0,0,0,4-10,16.6,16.6,0,0,0,.36-2.09c.09-.63.18-1.18.27-1.81a6.1,6.1,0,0,1,0,1.81,17.64,17.64,0,0,1-.18,2.18,16.53,16.53,0,0,1-.54,2.91,25.74,25.74,0,0,1-3.18,7.45,28.06,28.06,0,0,1-34.06,11.44,26.17,26.17,0,0,1-7.09-4,29.9,29.9,0,0,1-3.17-2.82,31.84,31.84,0,0,1-2.73-3.36A28.07,28.07,0,0,1,359.3,319c.91-1.09,1.81-2.18,2.81-3.18s2.18-1.82,3.27-2.64a26.2,26.2,0,0,1,7.27-3.63,28.05,28.05,0,0,1,33.42,13.17,25.37,25.37,0,0,1,2.82,7.54c.18,1,.36,1.91.45,2.9a17.74,17.74,0,0,1,.09,2.18A3,3,0,0,1,409.43,336.84Z"/><path class="cls-12" d="M403.89,319.58c.09.09-.45.55-1.36,1.27l-1.82,1.27-1.09.82-1.36.73a31.55,31.55,0,0,1-16.17,4.09l-2.45-.09-2.36-.37c-.36-.09-.73-.09-1.18-.18l-1.09-.27a14.18,14.18,0,0,1-2.09-.64A39.84,39.84,0,0,1,366,323c-3.73-2.27-5.54-4.27-5.36-4.36s2.18,1.55,5.9,3.45a47.8,47.8,0,0,0,6.72,2.73c.64.18,1.37.36,2.09.54l1.09.28,1.09.18,2.27.36,2.37.09a33.78,33.78,0,0,0,15.71-3.54l1.36-.64c.45-.18.82-.45,1.18-.63l1.91-1C403.26,319.76,403.8,319.49,403.89,319.58Z"/><path class="cls-12" d="M359.75,353.19c-.09-.09.46-.55,1.36-1.27l1.82-1.28a13.4,13.4,0,0,1,1.18-.81l1.36-.73A30.74,30.74,0,0,1,381.73,345l2.45.09,2.37.37c.36.09.81.09,1.18.18l1.09.27c.72.18,1.45.36,2.08.55a38.83,38.83,0,0,1,6.91,3.17c3.72,2.28,5.54,4.27,5.36,4.46s-2.18-1.55-5.91-3.46a44.13,44.13,0,0,0-6.81-2.81c-.64-.18-1.36-.37-2.09-.55l-1.09-.27-1.09-.18-2.27-.36-2.36-.09a33.51,33.51,0,0,0-15.71,3.54l-1.37.63c-.45.18-.81.46-1.18.64l-1.9,1.09C360.39,353,359.75,353.28,359.75,353.19Z"/><path class="cls-12" d="M409.43,337.47c0,.46-12.35.46-27.61.09s-27.61-1-27.61-1.45,12.35-.45,27.61-.09S409.43,337.11,409.43,337.47Z"/><path class="cls-12" d="M380.55,363.81c-.45,0-.45-12.35-.09-27.61s1-27.61,1.45-27.61.46,12.35.09,27.61S380.91,363.81,380.55,363.81Z"/><path class="cls-12" d="M380.55,363.72c-.09.18-3.18-1.9-6.63-6.54a33.09,33.09,0,0,1-4.9-9,35.92,35.92,0,0,1-2.18-12.35,31.86,31.86,0,0,1,2.81-12.26,37.35,37.35,0,0,1,5.36-8.72c3.72-4.54,6.81-6.45,6.9-6.36a90.49,90.49,0,0,0-6.08,7,42.69,42.69,0,0,0-5,8.63,32.46,32.46,0,0,0-.63,23.62,40.39,40.39,0,0,0,4.54,8.81C377.92,361.27,380.73,363.54,380.55,363.72Z"/><path class="cls-12" d="M382.46,308.59c.09-.18,3.18,1.91,6.63,6.54a33.24,33.24,0,0,1,4.9,9,34,34,0,0,1,2.18,12.36,32,32,0,0,1-2.81,12.26,38.11,38.11,0,0,1-5.36,8.72c-3.73,4.54-6.81,6.44-6.9,6.35s2.63-2.45,6.08-7a38.67,38.67,0,0,0,4.91-8.63,32.9,32.9,0,0,0,2.63-11.81,33.38,33.38,0,0,0-1.91-11.89,40.16,40.16,0,0,0-4.54-8.81A62.54,62.54,0,0,0,382.46,308.59Z"/></g></g></svg>