<svg id="Layer_1" data-name="Layer 1" xmlns="http://www.w3.org/2000/svg" viewBox="0 0 300 100"><defs><style>.cls-1{fill:#16272e;}</style></defs><path class="cls-1" d="M222.46,69.43a1.24,1.24,0,0,0-.21-.77,1.06,1.06,0,0,0-.66-.39,4.86,4.86,0,0,0-1.21-.12,4.39,4.39,0,0,0-1.41.18,1.19,1.19,0,0,0-.72.63,3.12,3.12,0,0,0-.21,1.28h3a2.38,2.38,0,0,0,1.05-.17A.64.64,0,0,0,222.46,69.43Z"/><polygon class="cls-1" points="85.49 28.53 84.14 26.68 82.78 28.53 84.14 30.13 85.49 28.53"/><polygon class="cls-1" points="84.14 41.05 89.06 41.03 92.45 35.85 88.45 37.83 84.14 32.9 79.83 37.83 75.82 35.85 79.21 41.03 84.14 41.05"/><polygon class="cls-1" points="72.86 32.9 72.25 30.8 69.97 30.5 70.46 32.47 72.86 32.9"/><path class="cls-1" d="M243.56,69.43a1.24,1.24,0,0,0-.21-.77,1.06,1.06,0,0,0-.66-.39,4.86,4.86,0,0,0-1.21-.12,4.39,4.39,0,0,0-1.41.18,1.19,1.19,0,0,0-.72.63,3.12,3.12,0,0,0-.21,1.28h3a2.38,2.38,0,0,0,1.05-.17A.64.64,0,0,0,243.56,69.43Z"/><path class="cls-1" d="M0,0V100H300V0ZM197.06,38.25h76.85v4.41h-73v5.75h54.29v4.41H200.88V58.6h73V63H197.06ZM73.36,29.7l1.11,3.63,4.92,2.52,4-4.37-2.34-2.95,3.08-4.07,3.07,4.07-2.34,2.95,4,4.37,4.92-2.52,1.11-3.63,5-.68-1,4.37-3.72.86L90.6,42.51H77.67L73,34.25l-3.72-.86-1-4.37ZM31,64a2.84,2.84,0,0,1-2.07.88A2.88,2.88,0,0,1,26.86,64a2.83,2.83,0,0,1-.85-2,2.88,2.88,0,0,1,.23-1.12,3.31,3.31,0,0,1,.62-1A2.9,2.9,0,0,1,28.94,59a2.92,2.92,0,0,1,2.92,2.93A2.79,2.79,0,0,1,31,64Zm80.11-8.81a6.91,6.91,0,0,1-.78,3.23A7.9,7.9,0,0,1,108.13,61a10,10,0,0,1-6.24,2H41.58a9.94,9.94,0,0,1-6.23-2,8.23,8.23,0,0,1-1.25-1.18,8.49,8.49,0,0,1-.94-1.39,6.72,6.72,0,0,1-.6-1.57,6.84,6.84,0,0,1-.21-1.68V46.09a6.82,6.82,0,0,1,.8-3.21,8,8,0,0,1,2.2-2.61,9.9,9.9,0,0,1,6.23-2H71.26l2.49,4.41H41.58a8.09,8.09,0,0,0-1.56.16,6.3,6.3,0,0,0-1.39.46,5.91,5.91,0,0,0-1.17.69,2.7,2.7,0,0,0-1.28,2.12v9.08a2.7,2.7,0,0,0,1.28,2.12,6.53,6.53,0,0,0,4.12,1.31h60.31A6.53,6.53,0,0,0,106,57.29a3.51,3.51,0,0,0,.68-.65,3.35,3.35,0,0,0,.45-.73,2,2,0,0,0,.16-.74V46.09A2.71,2.71,0,0,0,106,44a6.53,6.53,0,0,0-4.12-1.31H94.71l2.49-4.41h4.69a9.91,9.91,0,0,1,6.24,2,8.07,8.07,0,0,1,1,.93,8.69,8.69,0,0,1,.84,1.08,7.06,7.06,0,0,1,.63,1.18,6.1,6.1,0,0,1,.38,1.28,6.72,6.72,0,0,1,.13,1.35ZM193.37,63,118.42,44V63H114.6V38.41l75,19V38.27h3.82Zm11.16,3.29h-3.37V73h-.83V66.3H197v-.51h7.57ZM212.05,73h-.83V69.46a1.08,1.08,0,0,0-.22-.64,1.4,1.4,0,0,0-.6-.45,2.44,2.44,0,0,0-1-.17,7.16,7.16,0,0,0-1,.07,7.35,7.35,0,0,0-.84.19l-.86.29V73h-.83V65.5h.83v2.86a6.82,6.82,0,0,1,1.33-.47,6,6,0,0,1,1.58-.21,3.13,3.13,0,0,1,1.31.24,1.75,1.75,0,0,1,.79.63,1.54,1.54,0,0,1,.27.87Zm3.12,0h-.83V67.77h.83Zm.06-6.39q0,.15-.18.15h-.56c-.15,0-.22,0-.22-.15v-.7c0-.09.07-.14.22-.14h.56a.2.2,0,0,1,.14,0,.12.12,0,0,1,0,.1Zm3,5.17a1.2,1.2,0,0,0,.72.63,4.68,4.68,0,0,0,1.55.2h2.52V73l-1.3.07c-.4,0-.88,0-1.41,0a5.49,5.49,0,0,1-1.86-.25,1.69,1.69,0,0,1-1-.84,3.78,3.78,0,0,1-.28-1.61,3.6,3.6,0,0,1,.3-1.62,1.65,1.65,0,0,1,1-.81,5.91,5.91,0,0,1,1.86-.24,7,7,0,0,1,1.6.15,1.63,1.63,0,0,1,.93.53,1.56,1.56,0,0,1,.31,1,1,1,0,0,1-.25.71,1.47,1.47,0,0,1-.72.39,4.63,4.63,0,0,1-1.12.12h-3.07A2.67,2.67,0,0,0,218.26,71.8Zm10.51-3.55h-2.32v3.13a1.28,1.28,0,0,0,.12.6.78.78,0,0,0,.32.35,1.23,1.23,0,0,0,.41.17,3.34,3.34,0,0,0,.43,0l.93.06V73h-1a3.53,3.53,0,0,1-1.16-.16,1.26,1.26,0,0,1-.69-.54,1.66,1.66,0,0,1-.23-.94l0-3.13h-1.22v-.37l1.22-.11.16-1.47h.63v1.47h2.32ZM236.4,73l-3.12-3.36h-2V73h-.83V65.79h.83v3.36h2l3.1-3.36h.89L234,69.41,237.31,73Zm3-1.22a1.2,1.2,0,0,0,.72.63,4.68,4.68,0,0,0,1.55.2h2.52V73l-1.3.07c-.4,0-.88,0-1.41,0a5.49,5.49,0,0,1-1.86-.25,1.69,1.69,0,0,1-1-.84,3.78,3.78,0,0,1-.28-1.61,3.6,3.6,0,0,1,.3-1.62,1.65,1.65,0,0,1,1-.81,5.91,5.91,0,0,1,1.86-.24,7,7,0,0,1,1.6.15,1.63,1.63,0,0,1,.93.53,1.56,1.56,0,0,1,.31,1,1,1,0,0,1-.25.71,1.47,1.47,0,0,1-.72.39,4.63,4.63,0,0,1-1.12.12h-3.07A2.67,2.67,0,0,0,239.36,71.8ZM256.1,73h-1l-2.82-6.47L249.49,73h-1l-2.77-7.23h.88l2.43,6.49,2.8-6.49h.89l2.78,6.49L258,65.79h.86Zm4.67-1.22a1.25,1.25,0,0,0,.73.63,4.62,4.62,0,0,0,1.54.2h2.53V73l-1.3.07c-.41,0-.88,0-1.42,0a5.42,5.42,0,0,1-1.85-.25,1.66,1.66,0,0,1-1-.84,3.77,3.77,0,0,1-.29-1.61,3.6,3.6,0,0,1,.3-1.62,1.67,1.67,0,0,1,1-.81,5.83,5.83,0,0,1,1.86-.24,7.06,7.06,0,0,1,1.6.15,1.7,1.7,0,0,1,.93.53,1.56,1.56,0,0,1,.31,1,1,1,0,0,1-.25.71,1.46,1.46,0,0,1-.73.39,4.57,4.57,0,0,1-1.12.12h-3.07A2.83,2.83,0,0,0,260.77,71.8Zm13,0a2,2,0,0,1-.87.92,3.3,3.3,0,0,1-1.59.33,5,5,0,0,1-1-.1,6.55,6.55,0,0,1-.9-.23,6.25,6.25,0,0,1-.69-.27l-.19.54h-.65V65.5h.84v2.78a7.86,7.86,0,0,1,1.29-.4,6,6,0,0,1,1.32-.17,3.93,3.93,0,0,1,1.51.26,1.79,1.79,0,0,1,.92.86,3.44,3.44,0,0,1,.32,1.6A3.4,3.4,0,0,1,273.73,71.83Z"/><path class="cls-1" d="M272.15,68.36a3.08,3.08,0,0,0-1.09-.18,5.36,5.36,0,0,0-1.27.14,10,10,0,0,0-1.15.36v3.44a10,10,0,0,0,1.08.33,5.43,5.43,0,0,0,1.34.15,2.41,2.41,0,0,0,1.17-.25,1.57,1.57,0,0,0,.7-.74,2.7,2.7,0,0,0,.24-1.2,2.89,2.89,0,0,0-.27-1.4A1.48,1.48,0,0,0,272.15,68.36Z"/><path class="cls-1" d="M265,69.43a1.24,1.24,0,0,0-.21-.77,1.09,1.09,0,0,0-.66-.39,4.91,4.91,0,0,0-1.21-.12,4.46,4.46,0,0,0-1.42.18,1.2,1.2,0,0,0-.71.63,3.12,3.12,0,0,0-.21,1.28h3a2.36,2.36,0,0,0,1-.17A.65.65,0,0,0,265,69.43Z"/><polygon class="cls-1" points="98.3 30.5 96.02 30.8 95.41 32.9 97.81 32.47 98.3 30.5"/></svg>